<?xml version="1.0" encoding="UTF-8"?>
<svg id="Layer_2" data-name="Layer 2" xmlns="http://www.w3.org/2000/svg" viewBox="0 0 238.87 84.33">
  <defs>
    <style>
      .cls-1 {
        fill: #fff;
      }
    </style>
  </defs>
  <g id="Layer_1-2" data-name="Layer 1">
    <g>
      <path d="M227.53,20.16c12.43-1.98,16.47,12.35,2.73,12.38.16,5.1-.28,10.31-1.2,15.31-.78,4.29-4,10.68-4.32,13.71-.55,5.21,18.85,12.29,10.75,20.09-6.84,6.59-17.49-.46-20.34-7.6-19.06,11.47-53.44,13.01-68.79-5.21-1.88-2.23-3.47-6.18-5.27-7.94s-4.12-2.02-6.08-4.3c-3.99-4.65-5.07-12.64-6.18-18.43l-19.27.02c.3,5.2-2.76,15.88-6.57,19.37-1.59,1.45-3.63,1.56-5.28,3.21-2.47,2.48-4.84,8.02-7.91,10.95-16.07,15.33-47.75,12.41-66.38,3.19-3.41,6.23-12.14,12.6-19.01,7.64-10.66-7.69,9.86-16.35,9.91-20.28-4.09-9.37-6.25-19.5-5.64-29.76-6.21,1.2-10.54-3.1-7.86-9.22,1.3-2.97,7.65-2.26,9.73-3.52,1.29-.78,2.14-4.48,3.37-6.06C24.95-.41,54.03-.72,70.47.41c12.92.89,26.81,4.53,32.95,16.95,10.43-6.59,20.89-4.72,31.93-.96,7.84-11.85,19.53-15.12,33.11-15.99,18.23-1.16,52.49-1.25,59.08,19.75ZM50.9,3.56C21.74,5.49,7.41,14.35,12.7,45.96c4.68,27.98,24.79,35.17,51.12,32.8,26.14-2.35,40.71-27.66,38.19-52.35C99.6,2.82,69.14,2.35,50.9,3.56ZM172.54,3.56c-14.91.88-33.77,3.53-35.63,21.91-2.13,21.13,8.43,47.26,30.89,52.1,36.97,7.97,62.09-9.27,58.71-48.37-2.22-25.63-33.85-26.83-53.97-25.64ZM135.02,21.2c-8.02-7.52-21.62-5.14-31.12-1.87-.52,4.2,6.41-.5,9.04-.87,7.72-1.08,14.88.28,22.08,2.74ZM132.97,24.19c-4.8-3.95-28.88-5.13-28.19,3.14.14,1.71.88,2.09,2.43,2.37,3.26.6,20.28.62,23.57,0,2.94-.55,2.69-3.03,2.19-5.52ZM9.6,23.1l-3.32.91-.46,4.74-2.81-4.71.4,4.77,5.12.76,1.06-6.47ZM233.09,27.81l-.88-4.31-3.84-.39.94,6.6c3.82,1.29,9.17-2.88,4.72-5.67l-.94,3.77ZM133.13,31.59l-26.39,2.35c3.02,4.44,7.13,1.52,10.85,1.43,4.77-.12,14.87,2.04,15.54-3.78ZM100.14,56.12c4.08-4.27,8.61-14.47,5.17-19.81l-5.17,19.81ZM138.78,56.12c-2.31-5.01-3.11-10.41-4.66-15.61-.38-1.27-.08-2.93-1.92-3.26-.19,6.27,1.56,14.93,6.58,18.87ZM5.02,79.6c.7,1.11,7.04,1.35,8.64.86.9-.27,8.03-7.25,8.04-7.81-1.61-1.89-3.75-6.82-6.71-6.04-.59.15-8.9,7.33-9.21,7.85-.79,1.3-1.51,3.93-.75,5.14ZM222.37,66.65c-1.53,1.4-6,4.32-4.91,6.45,2.14,4.16,10.44,10.31,15.22,6.69,4.44-3.36-8.5-13.5-10.31-13.14Z"/>
      <path class="cls-1" d="M172.54,3.56c20.12-1.19,51.75,0,53.97,25.64,3.39,39.1-21.74,56.34-58.71,48.37-22.46-4.84-33.03-30.97-30.89-52.1,1.85-18.38,20.72-21.03,35.63-21.91ZM171.6,5.45c-14.81,1.16-30.65,3.44-32.71,21.05-2.64,22.53,10.8,48.49,35.22,50.42,34.24,2.7,53.37-10.49,50.51-46.78-1.97-25-33.49-26.22-53.03-24.69Z"/>
      <path class="cls-1" d="M50.9,3.56c18.24-1.21,48.69-.74,51.1,22.85,2.52,24.68-12.06,50-38.19,52.35-26.32,2.37-46.44-4.82-51.12-32.8C7.41,14.35,21.74,5.49,50.9,3.56ZM49.02,5.45C21.73,7.71,10.37,16.26,14.43,45.16c3.97,28.24,24.78,33.93,50.37,31.76,25.86-2.2,40.88-33.26,33.49-56.23C93.09,4.5,63.06,4.29,49.02,5.45Z"/>
      <path class="cls-1" d="M5.02,79.6c-.76-1.21-.04-3.84.75-5.14.31-.52,8.63-7.7,9.21-7.85,2.96-.78,5.1,4.16,6.71,6.04,0,.56-7.13,7.54-8.04,7.81-1.6.48-7.95.25-8.64-.86ZM13.38,78.78l-6.6-.94c.27,2.1,6.05,3.02,6.6.94Z"/>
      <path class="cls-1" d="M222.37,66.65c1.81-.35,14.75,9.78,10.31,13.14-4.78,3.62-13.08-2.53-15.22-6.69-1.1-2.13,3.37-5.05,4.91-6.45ZM231.19,77.84l-5.65.94v.92c2.07.06,4.93.52,5.65-1.87Z"/>
      <path class="cls-1" d="M133.13,31.59c-.67,5.82-10.78,3.66-15.54,3.78-3.72.09-7.83,3.01-10.85-1.43l26.39-2.35Z"/>
      <path class="cls-1" d="M135.02,21.2c-7.2-2.45-14.36-3.82-22.08-2.74-2.63.37-9.56,5.07-9.04.87,9.5-3.27,23.1-5.66,31.12,1.87Z"/>
      <path class="cls-1" d="M100.14,56.12l5.17-19.81c3.44,5.34-1.09,15.54-5.17,19.81Z"/>
      <path class="cls-1" d="M138.78,56.12c-5.02-3.94-6.77-12.6-6.58-18.87,1.84.33,1.54,1.99,1.92,3.26,1.55,5.2,2.36,10.6,4.66,15.61Z"/>
      <path class="cls-1" d="M233.09,27.81l.94-3.77c4.44,2.79-.9,6.95-4.72,5.67l-.94-6.6,3.84.39.88,4.31Z"/>
      <polygon class="cls-1" points="9.6 23.1 8.54 29.57 3.42 28.82 3.02 24.04 5.83 28.76 6.28 24.01 9.6 23.1"/>
      <path d="M171.6,5.45c19.53-1.53,51.06-.31,53.03,24.69,2.86,36.29-16.28,49.47-50.51,46.78-24.43-1.92-37.87-27.89-35.22-50.42,2.07-17.61,17.91-19.89,32.71-21.05ZM221.76,23.09c-6.14-16.22-34.7-16.99-49.49-16.03-13.98.91-32.67,3.69-31.6,21.7l81.09-5.67ZM222.66,29.65l-.05-3.15-1.39-1.41-79.13,5.56c-7.5,4.69,6.99,3.93,10.4,3.81,20.94-.75,44.12-2.07,65.01-3.82.86-.07,4.98-.78,5.15-.98ZM222.71,32.53l-41.5,2.36c6,2.36,11.8,4.74,17.27,8.2,4.71,2.98,15.64,13.55,19.15,14.82,1.71.62,1.11-.39,1.52-1.1.99-1.73,3.56-8.99,3.56-10.6v-13.68ZM197.86,50.79c2.34,2.1,12.78,15.4,14.14,15.64,1.79,0,5.26-4.18,4.62-5.6-10.35-9.26-22.34-19.95-36.15-23.29-12.69-3.07-24.1-.85-36.96-1.22l33.94,4.23c7.42,1.92,14.68,5.09,20.41,10.24ZM210.44,69.32c.37-1.37-.38-1.57-.92-2.36-2-2.94-9.85-11.1-12.73-13.69-15.8-14.22-35.47-11.54-55.18-14.12,3.86,4.12,1.68,8.14,2.49,12.04s6.84,13.01,9.73,15.83c12.8,12.49,41.72,10.56,56.61,2.31Z"/>
      <path d="M49.02,5.45c14.04-1.16,44.07-.95,49.27,15.24,7.39,22.97-7.63,54.04-33.49,56.23-25.59,2.17-46.4-3.52-50.37-31.76C10.37,16.26,21.73,7.71,49.02,5.45ZM98.23,29.7c1.26-18.61-17.02-21.64-31.59-22.64-12.01-.82-45.1.47-49.48,14.63-.6,1.93.57,1.17,1.41,1.37,1.51.37,4.11.82,5.66.96,23.52,2.03,47.18,3.01,70.74,4.7,1.26.09,2.15.53,3.26.97ZM98.24,30.65l-13.66-.02-68.37-5.65.05,4.67c17.9,2.26,36.26,1.7,54.17,3.9l27.81-2.9ZM58.64,34.43l-43.37-1.9c-.28,9.07,1.29,18.09,4.73,26.42l20.81-16.43,17.83-8.09ZM98.24,33.48c-15.85,2.06-33.33.63-48.33,6.83-4.92,2.03-9.11,5.23-13.39,8.31-1.83,1.32-13.73,10.51-14.22,11.27-1.57,2.44,2.55,5.38,3.81,7.55,1.31.04,12.38-14.48,14.58-16.53,14.44-13.48,39.02-12.85,57.56-13.65v-3.77ZM97.3,39.15c-17.72,2.41-38.68.18-53.3,12.24-3.11,2.57-12.45,12.4-14.61,15.57-.54.79-1.29.99-.92,2.36,14.05,7.78,40.03,9.82,53.27.02,4.04-2.99,11.08-12.15,12.29-16.95s-.85-9.26,3.27-13.23Z"/>
      <path d="M13.38,78.78c-.55,2.08-6.32,1.16-6.6-.94l6.6.94Z"/>
      <path d="M231.19,77.84c-.73,2.39-3.59,1.93-5.65,1.87v-.92s5.65-.94,5.65-.94Z"/>
      <path class="cls-1" d="M210.44,69.32c-14.88,8.26-43.81,10.18-56.61-2.31-2.89-2.82-8.93-11.99-9.73-15.83s1.36-7.92-2.49-12.04c19.71,2.58,39.38-.1,55.18,14.12,2.88,2.59,10.72,10.75,12.73,13.69.54.79,1.29.99.92,2.36Z"/>
      <path class="cls-1" d="M221.76,23.09l-81.09,5.67c-1.06-18.01,17.62-20.79,31.6-21.7,14.79-.96,43.35-.2,49.49,16.03Z"/>
      <path class="cls-1" d="M222.71,32.53v13.68c0,1.61-2.57,8.87-3.56,10.6-.41.71.19,1.72-1.52,1.1-3.51-1.27-14.44-11.84-19.15-14.82-5.47-3.46-11.28-5.84-17.27-8.2l41.5-2.36Z"/>
      <path class="cls-1" d="M222.66,29.65c-.17.2-4.29.91-5.15.98-20.89,1.75-44.08,3.08-65.01,3.82-3.41.12-17.91.89-10.4-3.81l79.13-5.56,1.39,1.41.05,3.15Z"/>
      <path class="cls-1" d="M197.86,50.79c-5.73-5.16-12.99-8.32-20.41-10.24l-33.94-4.23c12.86.37,24.26-1.86,36.96,1.22,13.81,3.35,25.8,14.03,36.15,23.29.64,1.43-2.83,5.6-4.62,5.6-1.36-.24-11.8-13.53-14.14-15.64Z"/>
      <path class="cls-1" d="M97.3,39.15c-4.12,3.97-2.08,8.48-3.27,13.23s-8.25,13.97-12.29,16.95c-13.24,9.8-39.22,7.77-53.27-.02-.37-1.37.38-1.57.92-2.36,2.16-3.17,11.5-13,14.61-15.57,14.62-12.06,35.58-9.83,53.3-12.24Z"/>
      <path class="cls-1" d="M98.23,29.7c-1.11-.44-2-.88-3.26-.97-23.55-1.69-47.22-2.67-70.74-4.7-1.55-.13-4.15-.58-5.66-.96-.84-.21-2.01.55-1.41-1.37,4.38-14.17,37.47-15.45,49.48-14.63,14.57.99,32.85,4.02,31.59,22.64Z"/>
      <path class="cls-1" d="M58.64,34.43l-17.83,8.09-20.81,16.43c-3.44-8.33-5.01-17.35-4.73-26.42l43.37,1.9Z"/>
      <path class="cls-1" d="M98.24,33.48v3.77c-18.53.8-43.11.17-57.55,13.65-2.2,2.05-13.27,16.57-14.58,16.53-1.26-2.17-5.38-5.11-3.81-7.55.49-.76,12.39-9.95,14.22-11.27,4.27-3.08,8.46-6.27,13.39-8.31,15-6.2,32.48-4.76,48.33-6.83Z"/>
      <path class="cls-1" d="M98.24,30.65l-27.81,2.9c-17.9-2.2-36.26-1.64-54.17-3.9l-.05-4.67,68.37,5.65,13.66.02Z"/>
    </g>
  </g>
</svg>