<?xml version="1.0" encoding="UTF-8"?>
<svg id="Layer_2" data-name="Layer 2" xmlns="http://www.w3.org/2000/svg" viewBox="0 0 264.31 189.37">
  <defs>
    <style>
      .cls-1 {
        fill: #231f20;
      }

      .cls-2 {
        fill: #fff;
      }

      .cls-3 {
        opacity: .85;
      }
    </style>
  </defs>
  <g id="Layer_1-2" data-name="Layer 1">
    <g>
      <polygon class="cls-2" points="134.36 60.11 168.51 107.52 233.6 80.99 262.2 70.27 255.7 61.31 223.87 32.51 134.36 60.11"/>
      <g>
        <path d="M228.24,30.93c1.4,1.79.79,4.41,2.05,6.65,2.57,4.54,17.25,14.73,21.99,19.15,2.94,2.74,11.04,9.59,9.92,13.54-1.62,2.77-5.92,3.8-9.02,4.31-1.49,1.67,9.76,8.05,10.1,11.47s-3.66,5.03-6.44,5c-.56.54,5.01,4.81,5.36,6.14.73,2.75-1.82,3.93-1.62,5.16.4,2.51,10.23,7.04-3.74,9.74,4.02,4.58,12.68,8.12,3,12.59-24.61,11.37-55.26,15.64-80,26.05-5.66,2.38-3.05,2.26-5.73,5.21-3.5,3.87-5.63.69-8.44.19-3.53-.63-57.47,22.96-66.71,26.15-4.73,1.63-20.56,7.28-24.47,7.1-1.83-.09-2.74-.79-4.13-1.8-3.82-2.76-10.5-10.41-14.14-14.2-2.79-2.9-12.38-15.3-14.56-16.53-3.18-1.81-5.88.06-9.24-3.56-2.86-3.08-2.23-6.67-4.04-9.67-3.01-5-14.99-14.22-19.69-19.62-5.08-5.84-11.95-12.19-.44-15.58L0,96.06c-.05-3.23,5.85-3.85,8.23-4.11l-6.4-12.8h3.66s-2.79-5.94-2.79-5.94c.3-3.13,5.02-3.41,7.36-3.22-5.2-7.48-10.02-9.15.69-13.48,25.17-10.16,55.11-15.79,80.92-24.91,2.54-8.39,8.08-3.31,13.46-4.05,20.15-6.55,39.77-14.85,59.84-21.6,7-2.36,20.47-8.76,26.52-4.56,6.38,4.43,23.15,24.91,27.89,26.97,2.45,1.07,6.74-.17,8.86,2.55ZM210.76,24.65c-3.27-3.03-22.03-21.91-23.82-21.98l-79.98,28.44,20.51,21.55c.95.77,2.46,1.18,3.62.93.74-.16,4.01-11.59,5.24-14.11,3.55-7.26,14.07-19.71,22.98-12.52,9.2,7.42-7.63,23.14-13.96,27.03-.13.71.83.54,1.37.46,10.3-1.51,33.71-13.47,45.68-17.41,7.92-2.61,16.01-4.95,24.24-6.39-1.52-2.36-3.85-4.14-5.87-6.01ZM154.47,27.02l-4.56.92c-1.14,4.26,5.24-.61,4.56-.92ZM159.04,30.66c-1.24-2.85-2.86-2.9-5.48-1.81.3,1.6,4.19,1.28,5.48,1.81ZM99.63,29.76h-4.56s0,1.82,0,1.82l4.56-.92v-.9ZM145.34,33.41c1.82-.49,2.05-1.95,1.81-3.66-1.82.49-2.05,1.95-1.81,3.66ZM106.03,33.4c-.93-2.38-3.09-3.09-5.48-2.73-.64,2.97,3.72,2.6,5.48,2.73ZM137.12,53.53c4.62-3.96,16.69-12.68,17.34-18.83.94-8.92-8.55.84-10.79,3.89-3.19,4.35-5.34,9.7-6.55,14.93ZM159.04,35.24c.24-1.71,0-3.16-1.81-3.65v3.65s1.81,0,1.81,0ZM217.54,34.32c1.52.37,2.92-.86,4.24-.89,2.59-.06,3.16,2.92,4.88.45-2.15-3.3-7.53-3.36-9.12.45ZM141.69,37.07c2.07-.55,1.95-2.86,1.81-4.57h-.89s-.92,4.57-.92,4.57ZM216.62,32.51c-2.18-.05-4.58,1.75-5.48,3.64,2.18.05,4.58-1.75,5.48-3.64ZM117.91,50.78c-3.05-3.78-16.37-17.23-20.54-17.29L8.23,61.33l27.88,35.11c10.44-6.98,23.16-11.66,34.97-16.15,14.35-5.45,29.13-10.57,44.09-13.96.21-1.63-2.06-.9-3.08-.8-7.64.73-22.81.94-27.49-6.55-4.22-6.75.07-12.6,7.35-13.6,10.14-1.39,16.79,2.55,25.97,5.4ZM110.6,37.98c-1.11-2.36-3.8-3.83-6.4-3.64,1.11,2.36,3.8,3.83,6.4,3.64ZM210.23,34.34c-2.68.37-6.04,2.12-7.31,4.56,2.68-.37,6.04-2.12,7.31-4.56ZM138.95,41.64c2.32-.71,1.87-3.48,1.81-5.48h-.89s-.92,5.48-.92,5.48ZM159.04,36.17h-2.74s0,2.73,0,2.73h1.81s.92-2.73.92-2.73ZM152.97,78.83c.82.9,2.37,1.39,3.38,2.55,6.43,7.42,12.11,15.54,16.83,24.17,29.08-10.89,57.92-22.59,85.47-36.92.01-3.41-30.57-26.54-34.21-31.61-.79-.77-1.7-.89-2.74-.92-4.87-.14-22.35,5.81-28.12,7.63-16.78,5.3-33.01,12.64-50.07,17.13,1.87,2.09,6.74,3.72,9.56,4.59,9.94,3.09,16.78,2.47,27,1.8,1.16,5.99-3.02,6.02-7.74,6.44-9.56.84-18.16-1.35-26.99-4.6-.53.43,6.83,8.85,7.63,9.73ZM202,37.08c-1.63-.1-3.9,1.02-4.57,2.73,2.06.33,3.83-.81,4.57-2.73ZM195.6,38.91c-1.97-.33-2.99,1.48-4.57,2.12-4.89,1.97-11.6,2.96-16.71,5.4-.99.47-2.23,1.4-2.49,2.53,2.57-.88,6.45-1.64,8.83-2.49,2.71-.97,6.84-3.72,8.71-4.57.75-.34,5.31.91,6.22-2.98ZM115.17,42.55c-.79-2.05-3.46-2.84-5.48-2.73.91,2.38,3.07,3.04,5.48,2.73ZM156.3,39.82l-3.64,2.3v1.35s3.64-2.3,3.64-2.3v-1.35ZM138.01,46.21c.55-1.98,1.69-3.73-.89-4.57v4.57s.89,0,.89,0ZM119.74,47.12c.88-.67-3.69-2.52-4.56-2.73v1.82s4.56.92,4.56.92ZM98.72,49.87c-.95-4.86-11.77-.91-11.86.47-.16,2.33,3.8.97,4.17-1.4l7.69.94ZM106.94,49.89l-7.3-2.75c.4,1.47,1.87,2.2,3.13,2.8.68.32,4.29,1.83,4.17-.05ZM169.1,48.97c-1.28-.45-6.97,2.11-5.47,3.65,1.99-.88,4.63-1.31,5.47-3.65ZM114.25,51.72l-6.39-1.83c.23,1.57,5.83,3.97,6.39,1.83ZM125.23,53.53c-.97-1.67-2.65-3.88-4.57-3.64.97,1.67,2.65,3.88,4.57,3.64ZM162.7,50.8c-2.16.25-5.33,1.65-6.4,3.64,2.59.19,5.29-1.28,6.4-3.64ZM123.39,58.12c-10.78-2.61-21.51-9.04-32.89-5.49-.38,2.36.67,3.27,2.41,4.43,4.85,3.22,17.8,3.28,23.62,2.87l6.86-1.81ZM153.56,54.46c-2.18-.05-4.58,1.75-5.48,3.64,2.18.05,4.58-1.75,5.48-3.64ZM90.49,59.02c.18-2.79-3.32-3.75-5.48-3.64.2,1.45,4.66,4.41,5.48,3.64ZM134.38,64.51c4.46-2.69,1.66-8.43-2.75-9.14,2.87,2.84,3.16,5.12,2.75,9.14ZM132.53,64.5c.54-1.59,1.28-5.64-.89-6.39l.89,6.39ZM141.67,58.11c-1.73-.29-3.04,1.07-2.73,2.74l2.73-.93v-1.81ZM96.9,60.86l-5.48.89c1.8.14,6.11,2.74,5.48-.89ZM127.96,60.86l-5.47.92v.89c1.49.71,6.73-1.23,5.47-1.81ZM144.42,65.42c-.82-2.1-3.45-2.82-5.48-2.73.54,1.56,4.01,2.51,5.48,2.73ZM128.88,63.61c-1.49-.71-6.73,1.23-5.47,1.81l5.47-.92v-.89ZM121.57,65.43c-1.09-.49-6.33,2.08-5.48,2.73,2.03.12,4.69-.68,5.48-2.73ZM140.76,69.08l-3.21-3.64h-1.35c-.18,2.46,2.38,4.01,4.57,3.64ZM151.73,69.08c-.91-1.91-3.32-3.69-5.48-3.64.91,1.91,3.32,3.69,5.48,3.64ZM127.97,66.35c-24.45,9.79-51.05,16.97-74.93,27.9-2.62,1.2-12.71,5.48-11.79,8.95l30.62,34.26,94.49-29.06c2.96-2.89-28.63-37.1-31.55-41.15-4.54-1.13-7.33,17.48-7.57,20.58-.21,2.77,1.81,6.16-.18,9.84-.87,1.6-4.91,2.32-5.99.73-3.05-4.49,2.13-27.44,6.9-32.05ZM131.62,66.35c-2.21-.4-2.86,2.05-3.66,3.64h1.81s1.84-3.64,1.84-3.64ZM114.26,68.18c-2.03-.12-4.69.68-5.48,2.73,2.03.12,4.69-.68,5.48-2.73ZM158.13,70.9c-.76-1.92-2.47-3.1-4.57-2.73v1.81s4.57.92,4.57.92ZM171.84,69.09c.23,2.35,6.37,3.73,6.38,1.36,0-1.63-5.16-1.54-6.38-1.36ZM165.44,71.82c-.71-2.32-3.48-1.87-5.48-1.81v.89s5.48.92,5.48.92ZM171.83,70.92l-5.47-.92c-1.26.58,3.97,2.52,5.47,1.81v-.89ZM145.33,73.65c-.74-1.91-2.51-3.06-4.57-2.73.74,1.91,2.51,3.06,4.57,2.73ZM102.38,71.84c-1.98-.41-3.05,1.64-4.56,2.12-2.31.74-6-.35-7.32,3.35,3.98-1.7,9.38-1.82,11.88-5.47ZM128.88,71.84c-2.21-.4-2.86,2.05-3.66,3.64,2.21.4,2.86-2.05,3.66-3.64ZM31.99,103.84l1.42-5.44-19.61-24.35c-2.39-2.43-5.53-1.06-8.3-.38,7.98,10.75,16.79,20.92,26.49,30.17ZM148.99,78.22c-.74-1.91-2.51-3.06-4.57-2.73.74,1.91,2.51,3.06,4.57,2.73ZM88.66,76.41c-.81-.77-5.3,2.21-5.48,3.65,1.27.5,6.98-2.22,5.48-3.65ZM123.4,80.97c2.3.24,3.09-1.45,2.73-3.65l-2.73,3.65ZM259.58,87.37c1.1-1.23-8.84-11.1-11.88-10.05,1.59,3.35,6.72,4.88,6.39,9.13l-6.84-7.4-1.42-.45-71.24,29.36.44,3.17c2-.69,27.86-11.01,27.9-8.66-8.29,4.02-18.25,5.33-26.52,9.18-1.36.64-2.26-.14-1.82,2.25l84.99-26.53ZM82.27,79.16c-2.59-.19-5.29,1.28-6.4,3.64,2.36-.14,5.41-1.34,6.4-3.64ZM153.56,82.8c-.74-1.91-2.51-3.06-4.57-2.73.74,1.91,2.51,3.06,4.57,2.73ZM8.86,83.11l-3.36-1.21c7.35,10.61,15.99,20.55,24.67,30.17l.5-4.55-21.8-24.42ZM74.04,81.89c-2.4-.35-4.74,1.28-4.56,3.65,1.78-.91,4.93-1,4.56-3.65ZM125.22,82.81h-1.82v2.73h1.82v-2.73ZM67.65,84.64c-2.19-.37-4.76,1.17-4.56,3.65l4.56-3.65ZM158.12,88.29c.18-2.47-2.38-4.01-4.57-3.64l3.21,3.64h1.35ZM62.16,86.47c-2.48-.39-3.79,2.25-5.48,3.06-1.03.5-6.33,1.52-7.26,2s-3.63,3.22-2.79,4.08c2.61-1.62,5.47-3.55,8.21-4.9,1.73-.85,6.06,0,7.31-4.24ZM122.49,92.87c2.82-1.1,3.01-3.71,2.72-6.4-2.43,1.03-2.87,4.07-2.72,6.4ZM162.7,93.77c-.33-1.15-3.57-4.52-4.57-3.64.63,2.22,2.07,3.82,4.57,3.64ZM125.22,97.44l-.45-4.57c-1.53,1.28-2.67,2.43-2.28,4.56h2.73ZM176.42,123.05l82.23-25.15-5.95-5.05c-25.99,7.05-51.18,16.71-77.14,23.87l.86,6.33ZM45.71,93.79c-2.71-.12-4.68,1.85-4.56,4.56l4.56-4.56ZM29.25,126.71l.54-9.64-17.38-21.52c-1.72-1.76-9.68-.55-7.99,2.49l24.83,28.67ZM167.26,100.18c.99-1.06-3.55-5.55-4.56-4.57-.86,1.99,4.33,4.81,4.56,4.57ZM40.22,96.53c-4.93.87-5.68,7.94-5.47,11.88l5.47-11.88ZM169.06,101.11l-2.7,1.35c4.2,1.84,1.47,2.16,2.15,5.06.81,3.45,2.7,9.32,4.24,12.33l-1.74.83,2.65,6.94c-.53-3.16.03-7.09-.35-10.07-.45-3.53-2.61-8.83-3.63-11.87-.41-1.24.1-3.17-.62-4.57ZM260.49,106.6l-6.39-2.75-.55,4.68-76.14,25.6-.09,4.48,83.16-32ZM252.26,104.76c-3.23,1.87-22.64,5.41-23.57,6.66-.36.48.02,1.84-.37,2.24-.22.23-5.1,1.67-5.98,1.86s-3.21.92-2.98-.7l5.47-.94c.21-1.65-1.98-.83-2.96-.68-14.54,2.25-30.69,9.81-45.38,12.66l.83,7.23,72.2-25.15,2.73-3.2ZM40.21,105.68c-1.89-.56-2.27.84-2.51,2.52-.85,5.8,5.23,9.78,8.38,14.03,6.08,8.19,13.19,20.8,19.77,27.78,1.15,1.22,2.28,3.06,4.11,3.25l98.23-36.61-1.21-1.67-92.01,32.78,15.97-7.32,75.79-26.43.54-2.82-95.46,29.29c-11.59-9.86-22.64-22.3-31.6-34.77ZM34.73,118.48c-.04-2.54.2-5.12-.1-7.67-.11-.96-.35-4.29-1.71-4.22.62,3.56-1.72,9.63,1.81,11.89ZM29.25,139.51l-.46-9.13-17.31-19.28c-1.83-2.21-5.41.74-5.88,2.53-.74,2.84,4.04,4.49,5.88,6.63,1.43,1.66,1.59,4.19,3.61,5.53l.9-1.82c2.94,3.75,8.36,7.3,11.06,10.95,1.58,2.14-.04,3.66,2.19,4.6ZM176.41,148.65l84.07-28.8-9.35-5.81-72.9,27.75-1.82,6.86ZM49.36,133.11c.21-1.6-1.13-2.72-1.99-3.94-3-4.24-6.85-9.24-10.78-12.52-.21,1.67.01,2.71.86,4.17,1.7,2.92,9.37,9.13,11.92,12.3ZM33.82,127.62c-.21-2.64.96-7.6-1.81-9.14.21,2.64-.96,7.6,1.81,9.14ZM169.09,119.4l-82.25,32,82.16-26.6.08-5.4ZM64.27,153.87c-1.67-1.53-4.14-6.57-6.21-8.88-6.95-7.73-15.92-13.65-22.39-21.94l.19,10.79c10.39,8.18,17.63,21.9,26.76,31.29,1.74,1.79,2.78,3.56,5.48,3.73,4.9.31,23.36-7.8,29.72-9.69,23.72-7.06,48.15-11.91,72.16-17.88l.04-4.53c-14.34,4.57-29.34,6.61-43.86,10.52-18.95,5.1-37.31,12.52-56.24,17.72l-6.86-3.96-24.63-29.77c2.48,1.81,4.77,4.14,6.86,6.39,6.27,6.77,13.39,17.84,19.96,23.47,1.29,1.11,2.89,2.15,4.66,2.2,17.99-5.04,35.5-12.03,53.51-16.96,15.26-4.18,31-6.43,46.07-11.33l.54-7.42c-19.12,5.04-38.96,11.08-57.56,17.85-16.64,6.06-15.56,7.17-34.27,8.67-4.7.38-9.37,3.9-13.9-.28ZM34.73,150.49l-1.53-6.97.49-13.43-2.59-2.46c.11,3.16-.23,6.39.04,9.55.12,1.47,1.38,2.64,1.52,3.82.3,2.44-1.87,7.15,2.08,9.49ZM174.58,134.02c.37-2.42-.39-4.58-2.73-5.48.12,1.88-.19,6.15,2.73,5.48ZM174.57,140.43c.02-2.01.52-4.78-1.81-5.49-.02,2.01-.52,4.78,1.81,5.49ZM44.8,151.41c-.2-.18-1.46-.21-2.29-.87-1.92-1.53-3.54-3.92-5.48-5.53-1.25.67-.14,2.4.42,3.24,2.16,3.23,8.44,8.06,11.48,11.38,7.57,8.26,14.93,16.78,22.43,25.11,1.14,1.04,2.43,1.42,3.96,1.37,4.69-.15,20.93-6.43,26.4-8.39,20.65-7.4,40.57-17.07,61.03-24.9,5.23-2,7.46.07,7.27-7.81-22.76,8.23-46.19,14.84-69.02,22.85-5.14,1.8-18.96,8.97-22.92,9.13-4.46.17-5.38-3.97-7.69-4.98-1.67-.73-3.54-.27-5.43-.98-3.23-1.21-5.1-6.24-8.26-7.73,2.6,6.5,11.09,9.97,13.69,16.46-5.69-5.32-11.69-10.66-16.91-16.45-3.46-3.84-5.96-8.31-8.67-11.9,3.98,3.52,6.66,7.4,10.52,10.97l.45-1.36-20.09-23.34c-.78,5.95,5.67,9.13,9.13,13.72ZM174.57,146.83c.02-2.01.52-4.78-1.81-5.49-.02,2.01-.52,4.78,1.81,5.49ZM171.85,151.41l1.81-1.39-1.37-2.27-.44,3.65ZM138.02,152.33c-21.09,4.59-42.58,9.73-62.87,17.13-.87.32-2.74-.18-2.01,1.6.57,1.39,4.02,3.51,5.72,3.06l23.05-9.92,36.11-11.87ZM172.75,152.33c-1.65-.3-3,1.24-3.66,2.73,1.65.3,3-1.24,3.66-2.73Z"/>
        <path class="cls-2" d="M127.97,66.35c-4.78,4.61-9.96,27.56-6.9,32.05,1.08,1.59,5.13.87,5.99-.73,1.99-3.68-.03-7.06.18-9.84.23-3.09,3.03-21.71,7.57-20.58,2.92,4.06,34.51,38.26,31.55,41.15l-94.49,29.06-30.62-34.26c-.91-3.47,9.17-7.75,11.79-8.95,23.89-10.93,50.48-18.11,74.93-27.9ZM64.9,123.05c-.47-3.04-4.15-5.48-6.38-7.32.47,3.04,4.15,5.48,6.38,7.32ZM107.86,121.23l-4.38.63-25.77,8.5,8.92-1.58,21.24-7.55Z"/>
        <path class="cls-2" d="M117.91,50.78c-9.18-2.85-15.83-6.79-25.97-5.4-7.28,1-11.57,6.84-7.35,13.6,4.68,7.49,19.85,7.28,27.49,6.55,1.02-.1,3.29-.83,3.08.8-14.96,3.4-29.74,8.51-44.09,13.96-11.81,4.49-24.53,9.17-34.97,16.15L8.23,61.33l89.14-27.84c4.17.06,17.49,13.5,20.54,17.29ZM64.9,50.8c-4.37-.38-8.48,2.15-12.52,3.29-2.16.61-4.78-1.52-5.75,3.09l18.27-6.38ZM68.56,55.37c-2.34-.18-5.37.3-6.39,2.73,1.7-.56,5.42-1.21,6.39-2.73ZM40.23,59.93c-2.56-5.21-11.25,3.74-12.35,3.65-1.5-1.17-.68-3.4-3.18-2.72l-1.84,4.56c1.61.49,2-1.21,3.17-1.4.88-.15,2.18.72,3.47.37,2.06-.56,5.99-6.37,10.72-4.45ZM53.02,60.86l-8.22,2.73c2.86.14,6.73.36,8.22-2.73ZM42.05,64.52c-1.71-.14-4.02-.26-4.57,1.81,1.27.47,5.69-1.28,4.57-1.81ZM30.18,70c.2.27,5.43-2.58,4.55-4.57-.44-.49-2.63,3.25-4.12,2.04l-.43,2.53ZM50.28,69.09c-5.17-.96-9.55,3.2-14.49,2.9l-1.04,4.41,3.69-3.16,11.84-4.15Z"/>
        <path class="cls-2" d="M210.76,24.65c2.01,1.87,4.35,3.65,5.87,6.01-8.23,1.44-16.31,3.79-24.24,6.39-11.97,3.94-35.38,15.9-45.68,17.41-.54.08-1.5.24-1.37-.46,6.34-3.89,23.16-19.61,13.96-27.03-8.91-7.19-19.43,5.27-22.98,12.52-1.23,2.52-4.51,13.95-5.24,14.11-1.16.25-2.67-.16-3.62-.93l-20.51-21.55L186.93,2.67c1.8.07,20.55,18.94,23.82,21.98ZM187.38,12.37c.49.19,1.29,0,1.78.53l12.83,13.17c-2.23,2.14-3.69,1.02-5.25,1.55-.97.33-.91,1.66-1.86,2.05-3.99,1.66-9.28,2.66-13.35,4.67-1.6-1.94-3.3-3.98-5.1-5.75-.81-.8-2.04-.51-2.46-.93-.7-.71-2-4.76-3.95-5.23.09,3.39,4.02,6.33,5.85,8.81l4.84,3.88c1.27.36,8.54-1.68,10.33-2.32,1.34-.48,8.94-3.78,10.01-4.47,4.2-2.71.27-4.19-.59-5.31-1.5-1.96-3.85-5.11-5.94-7.31-2.53-2.66-5.39-5-7.75-7.84-4.4.99-8.06,2.3-11.87,3.9-1.7.72-1.31.77-4.21,1.54-.51.14-1.73,3.29-5.24,1.81l1.82,5.48-.9-4.56c3.61,1.37,4.35-1.38,5.29-1.75,4.49-1.76,10.38-2.86,14.36-5.56,1.75.85,1,2.81,1.37,3.64-5.62-2.16-13.14,3.47-18.26,5.95l11.41,12.34c1.48-.91-.3-2.02-.91-2.75-.85-1.01-9.15-9.57-8.69-10.04l14.22-5.41,11.35,12.26-10.95,5.94,12.79-4.58c-2.19-5.54-8.43-7.99-10.97-13.71Z"/>
        <path class="cls-2" d="M64.27,153.87c4.54,4.18,9.2.65,13.9.28,18.72-1.5,17.63-2.61,34.27-8.67,18.6-6.77,38.44-12.81,57.56-17.85l-.54,7.42c-15.07,4.9-30.8,7.16-46.07,11.33-18.01,4.93-35.52,11.92-53.51,16.96-1.77-.05-3.37-1.08-4.66-2.2-6.57-5.63-13.69-16.7-19.96-23.47-2.08-2.25-4.38-4.58-6.86-6.39l24.63,29.77,6.86,3.96c18.93-5.19,37.29-12.62,56.24-17.72,14.53-3.91,29.52-5.95,43.86-10.52l-.04,4.53c-24.01,5.97-48.44,10.82-72.16,17.88-6.35,1.89-24.82,10-29.72,9.69-2.7-.17-3.74-1.95-5.48-3.73-9.13-9.4-16.36-23.12-26.76-31.29l-.19-10.79c6.47,8.29,15.45,14.21,22.39,21.94,2.07,2.31,4.54,7.34,6.21,8.88ZM155.38,134.95c-12.29,2.78-25.91,5.97-37.71,10.28-.96.35-2.71.32-2.5,1.59l24.87-6.65,15.33-5.22Z"/>
        <path class="cls-2" d="M40.21,105.68c8.96,12.47,20,24.91,31.6,34.77l95.46-29.29-.54,2.82-75.79,26.43-15.97,7.32,92.01-32.78,1.21,1.67-98.23,36.61c-1.82-.19-2.96-2.03-4.11-3.25-6.58-6.98-13.7-19.59-19.77-27.78-3.15-4.25-9.23-8.23-8.38-14.03.25-1.68.62-3.08,2.51-2.52ZM52.1,125.79c.24-1.92-1.97-3.6-3.64-4.57-.24,1.92,1.97,3.6,3.64,4.57ZM69.47,146.82l-16.44-20.11,13.33,18.21,3.11,1.91Z"/>
        <path class="cls-2" d="M44.8,151.41c-3.46-4.59-9.91-7.77-9.13-13.72l20.09,23.34-.45,1.36c-3.86-3.57-6.54-7.45-10.52-10.97,2.71,3.6,5.21,8.06,8.67,11.9,5.23,5.79,11.22,11.13,16.91,16.45-2.6-6.5-11.09-9.97-13.69-16.46,3.16,1.49,5.02,6.51,8.26,7.73,1.89.71,3.76.24,5.43.98,2.32,1.02,3.23,5.16,7.69,4.98,3.97-.15,17.78-7.32,22.92-9.13,22.83-8.01,46.26-14.62,69.02-22.85.19,7.88-2.04,5.81-7.27,7.81-20.46,7.83-40.38,17.49-61.03,24.9-5.47,1.96-21.71,8.24-26.4,8.39-1.53.05-2.82-.33-3.96-1.37-7.5-8.33-14.86-16.84-22.43-25.11-3.04-3.32-9.32-8.14-11.48-11.38-.56-.84-1.67-2.57-.42-3.24,1.94,1.6,3.56,4,5.48,5.53.83.66,2.09.69,2.29.87ZM133.45,161.48l-29.49,10.26-13.46,6.18,4.15-.87,38.8-15.58Z"/>
        <path class="cls-2" d="M259.58,87.37l-84.99,26.53c-.45-2.39.45-1.61,1.82-2.25,8.27-3.86,18.23-5.17,26.52-9.18-.03-2.34-25.89,7.97-27.9,8.66l-.44-3.17,71.24-29.36,1.42.45,6.84,7.4c.33-4.25-4.8-5.79-6.39-9.13,3.04-1.05,12.98,8.82,11.88,10.05ZM246.78,83.73c-1.48.22-4.96,1.18-5.48,2.73,2.05.1,4.68-.64,5.48-2.73ZM246.78,87.38h-3.66s.94,1.82.94,1.82l-2.75.91c1.89-.11,6.13.19,5.47-2.73Z"/>
        <path class="cls-2" d="M176.42,123.05l-.86-6.33c25.96-7.16,51.16-16.82,77.14-23.87l5.95,5.05-82.23,25.15Z"/>
        <path class="cls-2" d="M176.41,148.65l1.82-6.86,72.9-27.75,9.35,5.81-84.07,28.8ZM255.01,120.32c-22.65,6.1-45.07,13.86-67.63,20.57l-2.75,2.27,49.55-14.89,20.82-7.96Z"/>
        <path class="cls-2" d="M252.26,104.76l-2.73,3.2-72.2,25.15-.83-7.23c14.69-2.86,30.84-10.41,45.38-12.66.98-.15,3.17-.97,2.96.68l-5.47.94c-.23,1.62,2.05.9,2.98.7s5.76-1.63,5.98-1.86c.39-.41.01-1.76.37-2.24.93-1.25,20.34-4.79,23.57-6.66Z"/>
        <polygon class="cls-2" points="260.49 106.6 177.33 138.6 177.42 134.12 253.55 108.52 254.1 103.84 260.49 106.6"/>
        <path class="cls-2" d="M29.25,126.71l-24.83-28.67c-1.69-3.04,6.27-4.25,7.99-2.49l17.38,21.52-.54,9.64ZM25.59,119.39l-8.24-11.41-7.28-7.8,8.24,11.41,7.28,7.8Z"/>
        <polygon class="cls-2" points="169.09 119.4 169.01 124.79 86.84 151.4 169.09 119.4"/>
        <path class="cls-2" d="M31.99,103.84c-9.7-9.25-18.51-19.42-26.49-30.17,2.77-.68,5.91-2.06,8.3.38l19.61,24.35-1.42,5.44Z"/>
        <path class="cls-2" d="M138.02,152.33l-36.11,11.87-23.05,9.92c-1.7.45-5.14-1.67-5.72-3.06-.73-1.77,1.13-1.28,2.01-1.6,20.29-7.4,41.78-12.54,62.87-17.13Z"/>
        <path class="cls-2" d="M123.39,58.12l-6.86,1.81c-5.82.42-18.77.35-23.62-2.87-1.75-1.16-2.79-2.07-2.41-4.43,11.39-3.55,22.11,2.88,32.89,5.49Z"/>
        <path class="cls-2" d="M29.25,139.51c-2.23-.94-.61-2.45-2.19-4.6-2.7-3.65-8.12-7.2-11.06-10.95l-.9,1.82c-2.02-1.34-2.18-3.87-3.61-5.53-1.85-2.14-6.62-3.79-5.88-6.63.47-1.79,4.05-4.74,5.88-2.53l17.31,19.28.46,9.13Z"/>
        <path class="cls-2" d="M137.12,53.53c1.21-5.24,3.36-10.59,6.55-14.93,2.24-3.05,11.73-12.82,10.79-3.89-.65,6.15-12.71,14.87-17.34,18.83Z"/>
        <path class="cls-2" d="M8.86,83.11l21.8,24.42-.5,4.55c-8.68-9.62-17.31-19.57-24.67-30.17l3.36,1.21Z"/>
        <path class="cls-2" d="M49.36,133.11c-2.56-3.16-10.22-9.38-11.92-12.3-.84-1.45-1.07-2.49-.86-4.17,3.93,3.28,7.78,8.29,10.78,12.52.87,1.22,2.2,2.34,1.99,3.94Z"/>
        <path class="cls-2" d="M34.73,150.49c-3.95-2.34-1.78-7.05-2.08-9.49-.15-1.19-1.4-2.36-1.52-3.82-.27-3.17.07-6.39-.04-9.55l2.59,2.46-.49,13.43,1.53,6.97Z"/>
        <path class="cls-2" d="M40.22,96.53l-5.47,11.88c-.21-3.95.54-11.02,5.47-11.88Z"/>
        <path class="cls-2" d="M34.73,118.48c-3.53-2.25-1.19-8.32-1.81-11.89,1.35-.07,1.6,3.26,1.71,4.22.3,2.55.06,5.12.1,7.67Z"/>
        <path class="cls-2" d="M217.54,34.32c1.59-3.81,6.97-3.75,9.12-.45-1.73,2.48-2.3-.51-4.88-.45-1.32.03-2.71,1.26-4.24.89Z"/>
        <path class="cls-2" d="M134.38,64.51c.41-4.02.12-6.3-2.75-9.14,4.41.71,7.21,6.44,2.75,9.14Z"/>
        <path class="cls-2" d="M169.06,101.11c.72,1.4.21,3.33.62,4.57,1.01,3.04,3.18,8.34,3.63,11.87.38,2.98-.18,6.91.35,10.07l-2.65-6.94,1.74-.83c-1.54-3.01-3.43-8.88-4.24-12.33-.68-2.9,2.06-3.22-2.15-5.06l2.7-1.35Z"/>
        <path class="cls-2" d="M98.72,49.87l-7.69-.94c-.37,2.37-4.33,3.74-4.17,1.4.09-1.37,10.91-5.33,11.86-.47Z"/>
        <path class="cls-2" d="M33.82,127.62c-2.77-1.53-1.6-6.5-1.81-9.14,2.77,1.53,1.6,6.5,1.81,9.14Z"/>
        <path class="cls-2" d="M195.6,38.91c-.92,3.89-5.47,2.64-6.22,2.98-1.87.85-6,3.59-8.71,4.57-2.38.86-6.26,1.62-8.83,2.49.26-1.13,1.5-2.06,2.49-2.53,5.1-2.44,11.82-3.42,16.71-5.4,1.58-.64,2.6-2.44,4.57-2.12Z"/>
        <path class="cls-2" d="M171.84,69.09c1.22-.18,6.39-.26,6.38,1.36,0,2.37-6.15.99-6.38-1.36Z"/>
        <path class="cls-2" d="M45.71,93.79l-4.56,4.56c-.12-2.71,1.85-4.68,4.56-4.56Z"/>
        <path class="cls-2" d="M122.49,92.87c-.15-2.34.29-5.38,2.72-6.4.28,2.69.09,5.3-2.72,6.4Z"/>
        <path class="cls-2" d="M210.23,34.34c-1.27,2.43-4.64,4.19-7.31,4.56,1.27-2.43,4.64-4.19,7.31-4.56Z"/>
        <path class="cls-2" d="M110.6,37.98c-2.59.19-5.29-1.28-6.4-3.64,2.59-.19,5.29,1.28,6.4,3.64Z"/>
        <path class="cls-2" d="M106.03,33.4c-1.76-.13-6.11.24-5.48-2.73,2.39-.36,4.55.35,5.48,2.73Z"/>
        <path class="cls-2" d="M106.94,49.89c.12,1.88-3.5.37-4.17.05-1.26-.6-2.74-1.33-3.13-2.8l7.3,2.75Z"/>
        <path class="cls-2" d="M90.49,59.02c-.82.76-5.28-2.2-5.48-3.64,2.16-.11,5.66.85,5.48,3.64Z"/>
        <path class="cls-2" d="M82.27,79.16c-.99,2.3-4.04,3.5-6.4,3.64,1.11-2.36,3.8-3.83,6.4-3.64Z"/>
        <path class="cls-2" d="M62.16,86.47c-1.26,4.23-5.59,3.39-7.31,4.24-2.75,1.35-5.61,3.28-8.21,4.9-.84-.87,1.86-3.6,2.79-4.08s6.22-1.5,7.26-2c1.69-.81,3-3.45,5.48-3.06Z"/>
        <path class="cls-2" d="M174.58,134.02c-2.92.67-2.6-3.6-2.73-5.48,2.34.9,3.1,3.06,2.73,5.48Z"/>
        <path class="cls-2" d="M167.26,100.18c-.23.24-5.42-2.58-4.56-4.57,1-.98,5.55,3.51,4.56,4.57Z"/>
        <path class="cls-2" d="M125.22,97.44h-2.73c-.38-2.15.75-3.3,2.28-4.57l.45,4.57Z"/>
        <path class="cls-2" d="M74.04,81.89c.37,2.65-2.77,2.74-4.56,3.65-.18-2.37,2.15-4,4.56-3.65Z"/>
        <path class="cls-2" d="M88.66,76.41c1.51,1.43-4.21,4.15-5.48,3.65.18-1.44,4.67-4.42,5.48-3.65Z"/>
        <path class="cls-2" d="M102.38,71.84c-2.5,3.65-7.9,3.77-11.88,5.47,1.31-3.69,5.01-2.6,7.32-3.35,1.51-.49,2.59-2.54,4.56-2.12Z"/>
        <path class="cls-2" d="M96.9,60.86c.63,3.63-3.68,1.03-5.48.89l5.48-.89Z"/>
        <path class="cls-2" d="M162.7,50.8c-1.11,2.36-3.8,3.83-6.4,3.64,1.06-1.99,4.24-3.39,6.4-3.64Z"/>
        <path class="cls-2" d="M115.17,42.55c-2.41.32-4.57-.34-5.48-2.73,2.03-.12,4.69.68,5.48,2.73Z"/>
        <path class="cls-2" d="M169.1,48.97c-.84,2.34-3.48,2.77-5.47,3.65-1.5-1.54,4.2-4.1,5.47-3.65Z"/>
        <path class="cls-2" d="M140.76,69.08c-2.19.37-4.74-1.18-4.57-3.64h1.35s3.21,3.64,3.21,3.64Z"/>
        <path class="cls-2" d="M158.12,88.29h-1.35s-3.21-3.64-3.21-3.64c2.19-.37,4.74,1.18,4.57,3.64Z"/>
        <path class="cls-2" d="M174.57,146.83c-2.33-.71-1.83-3.48-1.81-5.49,2.33.71,1.83,3.48,1.81,5.49Z"/>
        <path class="cls-2" d="M174.57,140.43c-2.33-.71-1.83-3.48-1.81-5.49,2.33.71,1.83,3.48,1.81,5.49Z"/>
        <path class="cls-2" d="M67.65,84.64l-4.56,3.65c-.2-2.48,2.38-4.02,4.56-3.65Z"/>
        <path class="cls-2" d="M158.13,70.9l-4.57-.92v-1.81c2.09-.37,3.8.81,4.57,2.73Z"/>
        <path class="cls-2" d="M114.26,68.18c-.79,2.05-3.46,2.84-5.48,2.73.79-2.05,3.46-2.84,5.48-2.73Z"/>
        <path class="cls-2" d="M151.73,69.08c-2.16.05-4.57-1.74-5.48-3.64,2.16-.05,4.57,1.74,5.48,3.64Z"/>
        <path class="cls-2" d="M153.56,54.46c-.9,1.89-3.31,3.69-5.48,3.64.9-1.89,3.31-3.69,5.48-3.64Z"/>
        <path class="cls-2" d="M114.25,51.72c-.56,2.14-6.16-.26-6.39-1.83l6.39,1.83Z"/>
        <polygon class="cls-2" points="156.3 39.82 156.29 41.17 152.65 43.47 152.65 42.11 156.3 39.82"/>
        <path class="cls-2" d="M216.62,32.51c-.9,1.89-3.31,3.69-5.48,3.64.9-1.89,3.31-3.69,5.48-3.64Z"/>
        <path class="cls-2" d="M132.53,64.5l-.89-6.39c2.17.75,1.43,4.8.89,6.39Z"/>
        <path class="cls-2" d="M121.57,65.43c-.79,2.05-3.46,2.84-5.48,2.73-.84-.64,4.39-3.21,5.48-2.73Z"/>
        <path class="cls-2" d="M165.44,71.82l-5.48-.92v-.89c2-.06,4.77-.51,5.48,1.81Z"/>
        <path class="cls-2" d="M145.33,73.65c-2.06.33-3.83-.81-4.57-2.73,2.06-.33,3.83.81,4.57,2.73Z"/>
        <path class="cls-2" d="M148.99,78.22c-2.06.33-3.83-.81-4.57-2.73,2.06-.33,3.83.81,4.57,2.73Z"/>
        <path class="cls-2" d="M153.56,82.8c-2.06.33-3.83-.81-4.57-2.73,2.06-.33,3.83.81,4.57,2.73Z"/>
        <path class="cls-2" d="M138.95,41.64l.92-5.48h.89c.06,2,.51,4.77-1.81,5.48Z"/>
        <path class="cls-2" d="M162.7,93.77c-2.5.18-3.94-1.42-4.57-3.64,1-.88,4.24,2.49,4.57,3.64Z"/>
        <path class="cls-2" d="M159.04,30.66c-1.29-.53-5.18-.21-5.48-1.81,2.61-1.09,4.24-1.04,5.48,1.81Z"/>
        <path class="cls-2" d="M154.47,27.02c.68.31-5.7,5.17-4.56.92l4.56-.92Z"/>
        <path class="cls-2" d="M202,37.08c-.74,1.91-2.51,3.06-4.57,2.73.67-1.7,2.94-2.82,4.57-2.73Z"/>
        <path class="cls-2" d="M119.74,47.12l-4.57-.92v-1.82c.87.21,5.45,2.06,4.57,2.73Z"/>
        <path class="cls-2" d="M128.88,71.84c-.79,1.59-1.44,4.05-3.66,3.64.79-1.59,1.44-4.05,3.66-3.64Z"/>
        <path class="cls-2" d="M125.23,53.53c-1.92.24-3.59-1.97-4.57-3.64,1.92-.24,3.59,1.97,4.57,3.64Z"/>
        <path class="cls-2" d="M144.42,65.42c-1.47-.22-4.94-1.17-5.48-2.73,2.03-.09,4.66.63,5.48,2.73Z"/>
        <path class="cls-2" d="M127.96,60.86c1.26.59-3.98,2.52-5.47,1.81v-.89s5.47-.92,5.47-.92Z"/>
        <path class="cls-2" d="M128.88,63.61v.89s-5.47.92-5.47.92c-1.26-.59,3.98-2.52,5.47-1.81Z"/>
        <path class="cls-2" d="M131.62,66.35l-1.84,3.64h-1.81c.79-1.59,1.44-4.05,3.66-3.64Z"/>
        <path class="cls-2" d="M171.83,70.92v.89c-1.5.71-6.73-1.23-5.47-1.81l5.47.92Z"/>
        <path class="cls-2" d="M123.4,80.97l2.73-3.65c.36,2.19-.43,3.89-2.73,3.65Z"/>
        <path class="cls-2" d="M138.01,46.21h-.89s0-4.57,0-4.57c2.58.83,1.44,2.59.89,4.57Z"/>
        <polygon class="cls-2" points="159.04 36.17 158.12 38.9 156.31 38.9 156.31 36.16 159.04 36.17"/>
        <path class="cls-2" d="M159.04,35.24h-1.82s0-3.65,0-3.65c1.82.49,2.05,1.95,1.81,3.65Z"/>
        <polygon class="cls-2" points="99.63 29.76 99.63 30.66 95.07 31.58 95.07 29.76 99.63 29.76"/>
        <path class="cls-2" d="M145.34,33.41c-.24-1.71,0-3.17,1.81-3.66.24,1.71,0,3.17-1.81,3.66Z"/>
        <path class="cls-2" d="M141.69,37.07l.92-4.57h.89c.14,1.71.26,4.02-1.81,4.57Z"/>
        <path class="cls-2" d="M141.67,58.11v1.81s-2.73.93-2.73.93c-.31-1.67,1-3.03,2.73-2.74Z"/>
        <rect class="cls-2" x="123.4" y="82.81" width="1.82" height="2.73"/>
        <polygon class="cls-2" points="171.85 151.41 172.29 147.75 173.66 150.02 171.85 151.41"/>
        <path class="cls-2" d="M172.75,152.33c-.66,1.49-2.01,3.03-3.66,2.73.66-1.49,2.01-3.03,3.66-2.73Z"/>
        <polygon points="107.86 121.23 86.62 128.78 77.7 130.36 103.47 121.86 107.86 121.23"/>
        <path d="M64.9,123.05c-2.23-1.84-5.91-4.28-6.38-7.32,2.23,1.84,5.91,4.28,6.38,7.32Z"/>
        <path d="M40.23,59.93c-4.73-1.92-8.66,3.89-10.72,4.45-1.29.35-2.59-.51-3.47-.37-1.18.2-1.56,1.9-3.17,1.4l1.84-4.56c2.49-.68,1.68,1.55,3.18,2.72,1.1.09,9.79-8.86,12.35-3.65Z"/>
        <path d="M64.9,50.8l-18.27,6.38c.97-4.61,3.59-2.48,5.75-3.09,4.05-1.14,8.16-3.67,12.52-3.29Z"/>
        <path d="M50.28,69.09l-11.84,4.15-3.69,3.16,1.04-4.41c4.93.3,9.32-3.86,14.49-2.9Z"/>
        <path d="M53.02,60.86c-1.49,3.08-5.36,2.87-8.22,2.73l8.22-2.73Z"/>
        <path d="M30.18,70l.43-2.53c1.49,1.21,3.68-2.53,4.12-2.04.88,1.99-4.35,4.84-4.55,4.57Z"/>
        <path d="M68.56,55.37c-.97,1.52-4.69,2.16-6.39,2.73,1.03-2.42,4.05-2.9,6.39-2.73Z"/>
        <path d="M42.05,64.52c1.13.53-3.3,2.28-4.57,1.81.55-2.07,2.86-1.95,4.57-1.81Z"/>
        <path d="M187.38,12.37c-.37-.83.38-2.79-1.37-3.64-3.99,2.7-9.88,3.8-14.36,5.56-.94.37-1.67,3.12-5.29,1.75l.9,4.56-1.82-5.48c3.51,1.48,4.73-1.67,5.24-1.81,2.91-.77,2.51-.82,4.21-1.54,3.81-1.61,7.47-2.91,11.87-3.9,2.37,2.84,5.23,5.19,7.75,7.84,2.09,2.2,4.44,5.36,5.94,7.31.86,1.12,4.79,2.6.59,5.31-1.06.69-8.67,3.99-10.01,4.47-1.79.64-9.06,2.69-10.33,2.32l-4.84-3.88c-1.82-2.48-5.75-5.41-5.85-8.81,1.95.47,3.25,4.52,3.95,5.23.42.42,1.65.13,2.46.93,1.81,1.77,3.5,3.81,5.1,5.75,4.07-2.01,9.35-3.01,13.35-4.67.94-.39.89-1.73,1.86-2.05,1.56-.53,3.02.59,5.25-1.55l-12.83-13.17c-.49-.53-1.29-.35-1.78-.53,2.54,5.72,8.77,8.17,10.97,13.71l-12.79,4.58,10.95-5.94-11.35-12.26-14.22,5.41c-.46.48,7.84,9.04,8.69,10.04.61.72,2.4,1.84.91,2.75l-11.41-12.34c5.12-2.47,12.64-8.1,18.26-5.95Z"/>
        <path d="M155.38,134.95l-15.33,5.22-24.87,6.65c-.22-1.28,1.54-1.24,2.5-1.59,11.8-4.31,25.42-7.5,37.71-10.28Z"/>
        <polygon points="69.47 146.82 66.36 144.92 53.03 126.71 69.47 146.82"/>
        <path d="M52.1,125.79c-1.67-.98-3.88-2.65-3.64-4.57,1.67.98,3.88,2.65,3.64,4.57Z"/>
        <polygon points="133.45 161.48 94.65 177.05 90.5 177.92 103.96 171.74 133.45 161.48"/>
        <path d="M246.78,87.38c.66,2.92-3.59,2.62-5.47,2.73l2.75-.91-.94-1.82h3.66Z"/>
        <path d="M246.78,83.73c-.8,2.08-3.43,2.82-5.48,2.73.52-1.55,4-2.51,5.48-2.73Z"/>
        <path d="M255.01,120.32l-20.82,7.96-49.55,14.89,2.75-2.27c22.56-6.72,44.98-14.48,67.63-20.57Z"/>
        <polygon points="25.59 119.39 18.31 111.59 10.07 100.18 17.35 107.98 25.59 119.39"/>
        <g class="cls-3">
          <path class="cls-1" d="M197.63,89.08c.1-.23.12-.49.07-.79l-.32-1.83c-.05-.26-.14-.45-.29-.57-.15-.12-.35-.12-.62,0l-.11.05c-.16.07-.31.17-.44.31-.13.13-.24.29-.33.46s-.17.36-.22.56h-.18s.16-1.48.16-1.48l.24-.11.12.05,3.29-1.45.09-.14.24-.11.68,1.12-.15.14c-.21-.18-.43-.3-.66-.36s-.46-.03-.7.07l-.11.05c-.27.12-.45.29-.53.51-.08.22-.1.46-.06.72l.32,1.83c.05.3.16.51.32.63s.42.15.77.11l.03.17-2.13.94-.03-.17c.28-.25.47-.49.57-.72Z"/>
          <path class="cls-1" d="M201.15,87.65c.06-.2.06-.41.02-.64l-.09-.49c-.05-.26-.13-.46-.24-.57-.11-.12-.26-.19-.45-.23l-.03-.15.7-.71.17-.07c0,.23.01.46.04.69.1-.25.23-.47.38-.67.16-.2.34-.35.56-.45.17-.08.33-.11.49-.1.16.01.29.06.4.15l-.23.61-.17.07c-.09-.09-.18-.15-.27-.17s-.21,0-.34.05c-.17.08-.33.2-.48.38-.15.18-.24.35-.28.52l.17.99c.02.14.07.26.13.37.06.1.15.18.25.23.11.05.24.07.4.05l.03.15-1.53.68-.03-.15c.21-.16.34-.34.4-.54Z"/>
          <path class="cls-1" d="M204.79,86.47c-.27-.01-.51-.09-.72-.23-.21-.14-.37-.33-.48-.58-.13-.3-.16-.61-.09-.93s.22-.63.45-.9c.23-.27.49-.48.8-.61s.6-.19.85-.16c.25.04.45.12.61.26l.08.43c-.16-.13-.37-.2-.62-.21-.25-.01-.53.05-.83.18-.25.11-.46.26-.63.45s-.28.4-.33.62c-.05.22-.03.43.06.63s.21.34.36.43.33.14.54.13c.2,0,.43-.07.67-.17.26-.12.47-.26.64-.43s.27-.33.32-.49l.08.39c0,.17-.1.36-.29.56-.18.2-.4.36-.65.46-.28.12-.55.18-.82.17ZM203.97,82.47c.13-.25.2-.5.22-.74l.58-.26c.1.2.24.36.43.47s.46.21.81.29l-.16.14-1.25-.17-1.03,1.17h-.2c.27-.35.47-.65.59-.91ZM204.23,81.01v-.09s.68-.55.68-.55c.07.16.2.31.38.46.18.14.42.26.71.36l-.13.12-1.63-.3ZM206.83,85.67c-.09-.02-.17-.08-.24-.18-.07-.1-.12-.23-.15-.39l-.26-1.49c-.04-.24-.06-.45-.04-.62s.06-.32.13-.44l.1-.04.37,2.12c.03.2.09.33.16.39s.15.07.24.03c.07-.03.12-.08.15-.15.04-.07.06-.18.08-.32l.17.03c.02.25,0,.46-.07.65-.07.19-.19.32-.36.39-.09.04-.19.05-.28.03Z"/>
          <path class="cls-1" d="M208.17,84.56c.06-.18.06-.4.02-.66l-.07-.42c-.04-.28-.12-.49-.23-.62-.11-.13-.27-.21-.47-.25l-.02-.15.72-.71.16-.07c0,.1,0,.25.02.43s.03.34.05.45l.2,1.12c.05.27.13.47.25.58.12.11.3.16.54.14l.03.15-1.53.68-.03-.15c.21-.18.34-.36.39-.53ZM210.89,83.83c-.12-.04-.21-.12-.26-.25-.04-.08-.06-.19-.08-.33-.02-.14-.04-.32-.06-.56-.02-.21-.03-.37-.06-.49-.02-.12-.06-.24-.1-.34-.06-.14-.17-.24-.31-.29-.14-.05-.31-.03-.52.06s-.43.25-.66.47c-.23.22-.4.44-.53.65l-.06-.32c.16-.31.36-.58.58-.82.22-.24.46-.41.72-.52s.49-.15.7-.09.34.17.42.34c.04.08.07.19.1.32s.05.27.07.41l.11.66c.02.12.05.21.08.28.04.08.08.14.14.16.06.03.12.03.18,0,.08-.03.13-.09.17-.17s.06-.18.09-.3l.17.03c.02.23,0,.45-.08.64-.07.19-.2.33-.38.41-.16.07-.3.08-.42.04Z"/>
          <path class="cls-1" d="M214.15,81.82c.09-.19.11-.43.06-.73l-.36-2.07c-.03-.2-.09-.34-.16-.44-.07-.1-.17-.16-.3-.19-.13-.03-.31-.04-.54-.04l-.03-.18,2.52-1.11.03.18c-.2.13-.34.28-.42.44s-.1.31-.07.45c.03.15.1.27.21.39l1.48,1.47-.34.12.78-2.44c.1-.3.09-.52-.02-.67-.11-.15-.32-.22-.63-.2l-.03-.17,2.48-1.1.03.18c-.19.17-.33.32-.43.45-.09.13-.16.27-.18.41-.03.14-.02.32.01.52l.36,2.07c.05.29.14.49.29.59.14.1.37.13.68.1l.03.17-1.9.84-.04-.17c.23-.2.39-.41.47-.62s.11-.45.07-.71l-.51-2.81h.09s-1,3.01-1,3.01c-.13.39-.15.7-.07.93s.29.34.63.34l.03.17-1.44.64-.03-.17c.17-.15.28-.31.31-.5.04-.19.01-.38-.07-.57-.08-.19-.2-.37-.36-.52l-1.77-1.71.11-.06.47,2.7c.05.26.15.47.31.62.16.15.39.22.68.19l.04.17-2.02.89-.03-.17c.29-.26.48-.48.57-.67Z"/>
          <path class="cls-1" d="M220.38,79.51c-.13-.11-.21-.3-.25-.57l-.1-.68c-.04-.28-.1-.48-.18-.63s-.21-.25-.4-.34l-.03-.15.7-.71.12-.05c-.01.47.03.97.13,1.5l.13.68c.03.15.07.25.14.32.07.06.15.07.26.02.14-.06.23-.21.27-.46h.16c.02.24,0,.46-.08.66-.07.2-.2.34-.37.42-.21.09-.37.08-.5-.03ZM219.61,75.81c-.08-.03-.14-.09-.18-.16-.05-.11-.05-.22-.01-.34.04-.12.12-.2.24-.26.09-.04.18-.05.26-.01.08.03.14.09.17.17.05.11.05.22,0,.34-.04.12-.12.2-.25.26-.08.04-.16.04-.25,0Z"/>
          <path class="cls-1" d="M222.03,78.43c.06-.18.06-.4.02-.66l-.07-.42c-.04-.28-.12-.49-.23-.62-.11-.13-.27-.21-.47-.25l-.02-.15.72-.71.16-.07c0,.1,0,.25.02.43s.03.34.05.45l.2,1.12c.05.27.13.47.25.58.12.11.3.16.54.14l.03.15-1.53.68-.03-.15c.21-.18.34-.36.39-.53ZM224.75,77.71c-.12-.04-.21-.12-.26-.25-.04-.08-.06-.19-.08-.33-.02-.14-.04-.32-.06-.56-.02-.21-.03-.37-.06-.49-.02-.12-.06-.24-.1-.34-.06-.14-.17-.24-.31-.29-.14-.05-.31-.03-.52.06s-.43.25-.66.47c-.23.22-.4.44-.53.65l-.06-.32c.16-.31.36-.58.58-.82.22-.24.46-.41.72-.52s.49-.15.7-.09.34.17.42.34c.04.08.07.19.1.32s.05.27.07.41l.11.66c.02.12.05.21.08.28.04.08.08.14.14.16.06.03.12.03.18,0,.08-.03.13-.09.17-.17s.06-.18.09-.3l.17.03c.02.23,0,.45-.08.64-.07.19-.2.33-.38.41-.16.07-.3.08-.42.04Z"/>
          <path class="cls-1" d="M226.39,76.49c.05-.19.06-.4.01-.65l-.37-2.1c-.04-.26-.11-.47-.19-.63s-.22-.28-.4-.33l-.03-.15.7-.71.11-.05c0,.27.01.53.03.79.02.26.05.52.1.78l.38,2.19c.05.26.14.46.27.58s.31.17.51.14l.03.15-1.54.68-.03-.15c.22-.18.35-.36.4-.55ZM229.1,75.78c-.12-.04-.21-.12-.26-.24-.04-.08-.06-.19-.08-.33-.02-.14-.04-.32-.06-.56-.02-.21-.03-.37-.06-.49-.02-.12-.06-.24-.1-.34-.06-.14-.17-.24-.31-.29-.14-.05-.31-.03-.52.06s-.43.25-.66.47c-.23.22-.4.44-.53.65l-.06-.32c.16-.31.36-.58.58-.82.22-.24.46-.41.72-.52s.49-.15.7-.09.34.17.42.34c.04.08.07.19.1.32s.05.27.07.41l.11.66c.02.12.04.21.07.27.04.09.09.14.15.16s.13.01.2-.02c.07-.03.12-.08.16-.16.03-.07.06-.17.08-.28l.17.03c.02.23,0,.45-.08.64s-.2.33-.38.41c-.16.07-.3.08-.42.05Z"/>
          <path class="cls-1" d="M232.36,73.8c.11-.23.13-.49.08-.79l-.35-2.04c-.05-.29-.15-.47-.31-.56-.16-.09-.39-.12-.72-.09l-.03-.17,2.21-.98.03.17c-.32.24-.54.47-.68.7s-.18.49-.13.78l.33,1.89c.05.29.19.47.41.54.23.07.5.03.83-.12l.43-.19c.21-.09.41-.2.61-.34s.38-.29.54-.46.29-.36.39-.56l.16.03-.31,1.24-4.03,1.78-.03-.17c.28-.2.47-.42.57-.65Z"/>
          <path class="cls-1" d="M237.21,72.2c-.17-.02-.31-.08-.42-.19-.11-.11-.17-.25-.2-.42l-.16-.94c-.03-.16-.09-.3-.19-.42-.1-.12-.22-.2-.35-.23l-.02-.14.69-.68.11-.05c0,.25.02.5.05.75.03.25.06.51.11.78l.07.39c.05.3.15.5.3.59.15.09.34.09.56-.01.21-.09.41-.25.6-.46s.33-.42.41-.64l-.13-.7c-.05-.26-.11-.45-.19-.56-.08-.11-.21-.18-.38-.24l-.02-.14.7-.69.11-.05c0,.22,0,.43.03.65s.05.44.1.67c.01.07.03.14.04.21l.11.64c.03.15.08.26.14.33.06.07.16.08.28.02.06-.03.11-.08.16-.16.04-.08.07-.17.08-.28l.17.03c.03.23,0,.45-.07.64-.08.19-.2.33-.38.41-.16.07-.3.07-.41,0-.11-.07-.2-.21-.27-.4-.09.26-.22.49-.38.69-.16.2-.38.35-.65.47-.22.1-.41.13-.58.12Z"/>
          <path class="cls-1" d="M241.29,70.35c-.27-.01-.51-.09-.72-.23-.21-.14-.37-.33-.48-.58-.13-.3-.16-.61-.09-.93s.22-.63.45-.9c.23-.27.49-.48.8-.61s.6-.19.85-.16c.25.04.45.12.61.26l.08.43c-.16-.13-.37-.2-.62-.21-.25-.01-.53.05-.83.18-.25.11-.46.26-.63.45s-.28.4-.33.62c-.05.22-.03.43.06.63s.21.34.36.43.33.14.54.13c.2,0,.43-.07.67-.17.26-.12.47-.26.64-.43s.27-.33.32-.49l.08.39c0,.17-.1.36-.29.56-.18.2-.4.36-.65.46-.28.12-.55.18-.82.17ZM240.47,66.34c.13-.25.2-.5.22-.74l.58-.26c.1.2.24.36.43.47.19.11.46.21.81.29l-.16.14-1.25-.17-1.03,1.17h-.2c.27-.35.47-.65.59-.91ZM242.11,71.19c-.08-.03-.14-.09-.18-.16-.05-.11-.05-.22-.01-.34.04-.12.12-.2.24-.26.09-.04.18-.05.26-.01.08.03.14.09.17.17.05.11.05.22,0,.34-.04.12-.12.2-.25.26-.08.04-.16.04-.25,0ZM243.34,69.54c-.09-.02-.17-.08-.24-.18-.07-.1-.12-.23-.15-.39l-.26-1.49c-.04-.24-.06-.45-.04-.62s.06-.32.13-.44l.1-.04.37,2.12c.03.2.09.33.16.39s.15.07.24.03c.07-.03.12-.08.15-.15.04-.07.06-.18.08-.32l.17.03c.02.25,0,.46-.07.65-.07.19-.19.32-.36.39-.09.04-.19.05-.28.03Z"/>
          <path class="cls-1" d="M244.67,68.43c.06-.18.06-.4.02-.66l-.07-.42c-.04-.28-.12-.49-.23-.62-.11-.13-.27-.21-.47-.25l-.02-.15.72-.71.16-.07c0,.1,0,.25.02.43s.03.34.05.45l.2,1.12c.05.27.13.47.25.58.12.11.3.16.54.14l.03.15-1.53.68-.03-.15c.21-.18.34-.36.39-.53ZM247.39,67.71c-.12-.04-.21-.12-.26-.25-.04-.08-.06-.19-.08-.33-.02-.14-.04-.32-.06-.56-.02-.21-.03-.37-.06-.49-.02-.12-.06-.24-.1-.34-.06-.14-.17-.24-.31-.29-.14-.05-.31-.03-.52.06s-.43.25-.66.47c-.23.22-.4.44-.53.65l-.06-.32c.16-.31.36-.58.58-.82.22-.24.46-.41.72-.52s.49-.15.7-.09.34.17.42.34c.04.08.07.19.1.32s.05.27.07.41l.11.66c.02.12.05.21.08.28.04.08.08.14.14.16.06.03.12.03.18,0,.08-.03.13-.09.17-.17s.06-.18.09-.3l.17.03c.02.23,0,.45-.08.64-.07.19-.2.33-.38.41-.16.07-.3.08-.42.04Z"/>
        </g>
      </g>
    </g>
  </g>
</svg>