<?xml version="1.0" encoding="UTF-8"?>
<svg id="Layer_2" data-name="Layer 2" xmlns="http://www.w3.org/2000/svg" viewBox="0 0 209.18 186.36">
  <defs>
    <style>
      .cls-1 {
        fill: #fff;
      }
    </style>
  </defs>
  <g id="Layer_1-2" data-name="Layer 1">
    <g>
      <path d="M208.93,68.49c.59,1.76,0,4.17-.61,5.91-5.29,15.28-15.13,33.05-21.88,48.26-7.61,17.15-14.2,36.14-23.69,52.52-3.84,6.63-11.3,10.4-18.63,6.79-3.13,7.66-3.21,3.13-4.99,2.33-.53-.24-1.91.76-2.69.24-1.18-.78.72-4.74.68-6.13l-5.66-3.06-2.17,4.53-1.52.59-4.56-2.28.95-5.76-5.67-2.94c-.18,1.02-2.89,5.78-3.7,5.29-1.63-1-.61-2.9-4.28-1.95l.32-6.83-5.3-2.36c-1.03,1.96-1.31,4.74-3.7,5.27-1.59-3.2-2.42-1.27-4.52-2.46l.91-6.02-5.66-2.65-2.17,4.52c-1.35,1.54-4.02.34-2.67-1.5l-2.48.56-1.06-1.31.78-5.76-5.67-1.6-1.86,3.76-1.52.59-4.56-2.28.55-6.24-5.11-1.58-3.86,4.39c-.87-.32-1.06-1.95-1.59-2.19-2.18-.97-4.01,2.53-2.37-5.29l-5.29-3.66-2.18,4.52-1.52.61-5.38-2.3,2.28-5.04-6.07-2.75c-1.01-.28-2.73,7.99-5.39,2.2-5.5,1.6-1.93-3.55-2.48-5.53-.48-1.73-3.72-2.78-5.46-2.56-3.36,7.54-3.23,3.03-5.03,2.22-.53-.24-1.91.76-2.69.24-1.24-.82.93-5.03.64-6.54l-5.62-2.66-2.62,4.91c-2.64.49-1.76-2.85-5.36-1.58l.69-6.25c-5.81-3.43-9.21-3.17-6.55-10.67,7.56-21.33,20.78-47.41,30.16-68.71,2.99-6.79,14.69-35.15,19.08-38.13.37-.25,7.91-2.08,8.73-2.18,2.57-.28,5.93.66,8.35,1.54,25.42,9.18,51.37,24.05,76,35.26,18.63,8.48,39.5,15.45,57.33,24.95,2.48,1.32,7.51,4.11,8.37,6.69ZM143.96,178.4c7.85,4.9,9.01,1.83,12.73-5.05,6.96-12.9,11.54-27.4,17.43-40.66,8.9-20.08,18.63-39.97,26.8-60.27-.32-1.98-1.25-3.48-3.26-4.14L54.42,4.01l-2.25.36L2.64,113.79l5.86,3.33c2.23-.68,2.22-10.98,8.04-7.29,5.6,3.54-2.89,8.22-2.24,10.01l7.21,3.26c1.6-2.85,2.04-9.35,6.75-7.97,6.89,2.01-1.41,9.42-.99,10.56l7.14,3.11c3.57-2.48,1.09-9.92,7.24-7.09,7.23,3.33-2.2,7.71-1.42,9.84l6.77,3.11c1.71.43,2.93-10.41,8.44-7.32s-2.81,8.49-2.24,10.07l7.21,3.26c1.44-.55,1.49-10.5,7.44-7.84,6.4,2.87-2.19,9.03-1.68,10.43l7.21,3.26c1.14-2.06,2.69-7.78,5.13-8.15,7.68.76,3.41,6.63.63,10.75,11.86,6.91,7.19-.41,9.7-3.44,2.25-2.72,6.62-1.19,7.27,2.13l-4.01,7.17,7.21,3.26c3.51-13.72,14.83-8.39,5.76,2.6l7.21,3.26c1.68-5.49,5.79-12.88,9.73-4.56l-3.98,7.15,6.74,3.1c2.18.33,2.72-9.81,7.9-7.72,5.93,2.39-2.01,9.58-1.67,10.48,2.86.83,7.47,5.18,8.98,1.15.89-2.36.51-6.6,5.08-5.63,7.53,1.59-1.48,9.3-1.1,10.34ZM158.08,177.84c.75-2.79,2.89-4.75,4.16-7.18,11.43-21.99,20.41-46.04,30.1-68.73,3.84-8.98,10.79-20.75,13.42-29.55,1.01-3.39-.78-4.79-3.62-6.4-33.99-19.21-76.55-30.86-110.61-50.82-10.95-4.51-21.31-10.54-32.75-13.01-.74,1.17,1.33,1.42,2.19,1.84,30.8,15.32,63.32,27.99,94.67,41.86,12.26,5.43,26.6,11.06,38.26,17.27,4.52,2.41,11.49,5.55,9.1,11.49l-44.49,100.39-.42,2.83ZM14.08,114.53c1.18-1.4,2.34-2.06.24-3.35l-1.72.93,1.49,2.42ZM9.72,120.37l-1.3,2.87,1.43.65,1.3-2.87-1.43-.65ZM13.43,115.98c-1.61-.26-2.31.8-2.73,2.23l1.43.65,1.3-2.88ZM22.36,126.95l-.97,2.15,1.43.65.97-2.15-1.43-.65ZM24.97,121.19l-1.3,2.87,1.43.65,1.3-2.87-1.43-.65ZM26.92,116.87l-.57,3.2.7.32c1.52-1.55,2.2-2.46-.13-3.52ZM35.33,132.81l-.97,2.15,1.43.65.97-2.15-1.43-.65ZM37.93,127.05l-1.3,2.87,1.43.65,1.3-2.87-1.43-.65ZM39.88,122.73l-.57,3.2.7.32c1.52-1.55,2.2-2.46-.13-3.52ZM55.39,130.61l-3.9-.92,1.48,2.41,2.42-1.49ZM48.3,138.66l-.97,2.15,1.43.65.97-2.15-1.43-.65ZM50.9,132.9l-1.3,2.87,1.43.65,1.3-2.87-1.43-.65ZM61.26,144.52l-.97,2.15,1.43.65.97-2.15-1.43-.65ZM63.86,138.76l-1.3,2.87,1.43.65,1.3-2.87-1.43-.65ZM68.36,136.46l-2.52-1.15-.6,2.32,3.12-1.18ZM81.01,143.01c.43-2.21-2.32-3.19-3.44-1.96-.29.32,1.66,1.3.65,2.44l2.79-.48ZM74.23,150.38l-.97,2.15,1.43.65.97-2.15-1.43-.65ZM76.83,144.62l-1.3,2.87,1.43.65,1.3-2.87-1.43-.65ZM90.38,147.26l1.48,1.53,1.55-.58-1.29-1.88-1.74.94ZM88.95,156.15l-1.92.44.27,2.27,1.65-2.72ZM91.23,151.11c-1.61-.26-2.31.8-2.73,2.23l1.43.65,1.3-2.88ZM107.26,154.03l-3.9-.93,1.48,2.41,2.42-1.49ZM101.92,162.01c-1.61-.26-2.31.8-2.73,2.23l1.43.65,1.3-2.88ZM102.76,156.33l-1.3,2.87,1.43.65,1.3-2.87-1.43-.65ZM114.89,167.87c-1.61-.26-2.31.8-2.73,2.23l1.43.65,1.3-2.88ZM115.73,162.19l-1.3,2.87,1.43.65,1.3-2.87-1.43-.65ZM127.85,173.72l-1.92.44.27,2.27,1.65-2.72ZM129.42,168.37l-2.02,2.54,1.43.65,1.29-2.87-.7-.32ZM130.65,163.72l-.98,2.16,2.87,1.29c1.35-1.3-.88-3.84-1.9-3.45ZM139.06,179.66l-.97,2.15,1.43.65.97-2.15-1.43-.65ZM143.61,169.58l-.65,1.43,2.88,1.3c.26-1.61-.8-2.31-2.23-2.73Z"/>
      <path class="cls-1" d="M143.96,178.4c-.37-1.04,8.63-8.74,1.1-10.34-4.57-.97-4.19,3.27-5.08,5.63-1.52,4.03-6.12-.32-8.98-1.15-.34-.9,7.6-8.1,1.67-10.48-5.18-2.09-5.72,8.05-7.9,7.72l-6.74-3.1,3.98-7.15c-3.94-8.32-8.06-.94-9.73,4.56l-7.21-3.26c9.07-10.99-2.25-16.32-5.76-2.6l-7.21-3.26,4.01-7.17c-.65-3.32-5.02-4.85-7.27-2.13-2.51,3.03,2.16,10.35-9.7,3.44,2.78-4.12,7.05-9.99-.63-10.75-2.44.37-4,6.09-5.13,8.15l-7.21-3.26c-.51-1.4,8.08-7.57,1.68-10.43-5.94-2.66-6,7.29-7.44,7.84l-7.21-3.26c-.57-1.58,7.85-6.92,2.24-10.07s-6.73,7.75-8.44,7.32l-6.77-3.11c-.78-2.13,8.65-6.52,1.42-9.84-6.15-2.83-3.68,4.61-7.24,7.09l-7.14-3.11c-.42-1.14,7.87-8.55.99-10.56-4.71-1.38-5.15,5.12-6.75,7.97l-7.21-3.26c-.65-1.79,7.84-6.46,2.24-10.01-5.83-3.68-5.82,6.61-8.04,7.29l-5.86-3.33L52.16,4.37l2.25-.36,143.24,64.26c2.01.67,2.94,2.17,3.26,4.14-8.18,20.3-17.9,40.19-26.8,60.27-5.88,13.26-10.46,27.76-17.43,40.66-3.71,6.88-4.88,9.95-12.73,5.05Z"/>
      <path class="cls-1" d="M158.08,177.84l.42-2.83,44.49-100.39c2.39-5.94-4.58-9.09-9.1-11.49-11.65-6.2-26-11.84-38.26-17.27C124.29,31.98,91.77,19.31,60.97,3.99c-.86-.43-2.93-.67-2.19-1.84,11.44,2.47,21.81,8.5,32.75,13.01,34.05,19.96,76.62,31.62,110.61,50.82,2.84,1.6,4.63,3.01,3.62,6.4-2.63,8.8-9.59,20.56-13.42,29.55-9.69,22.69-18.67,46.74-30.1,68.73-1.27,2.44-3.41,4.39-4.16,7.18Z"/>
      <path class="cls-1" d="M81.01,143.01l-2.79.48c1.02-1.15-.93-2.12-.65-2.44,1.11-1.23,3.86-.25,3.44,1.96Z"/>
      <path class="cls-1" d="M130.65,163.72c1.02-.39,3.25,2.16,1.9,3.45l-2.87-1.29.98-2.16Z"/>
      <polygon class="cls-1" points="107.26 154.03 104.84 155.52 103.36 153.11 107.26 154.03"/>
      <path class="cls-1" d="M14.08,114.53l-1.49-2.42,1.72-.93c2.1,1.29.94,1.95-.24,3.35Z"/>
      <rect class="cls-1" x="8.22" y="121.35" width="3.15" height="1.57" transform="translate(-105.55 80.79) rotate(-65.69)"/>
      <rect class="cls-1" x="23.46" y="122.17" width="3.15" height="1.57" transform="translate(-97.32 95.16) rotate(-65.69)"/>
      <rect class="cls-1" x="36.42" y="128.02" width="3.15" height="1.57" transform="translate(-95.03 110.42) rotate(-65.69)"/>
      <polygon class="cls-1" points="55.39 130.61 52.98 132.09 51.49 129.68 55.39 130.61"/>
      <rect class="cls-1" x="49.39" y="133.88" width="3.15" height="1.57" transform="translate(-92.74 125.68) rotate(-65.69)"/>
      <rect class="cls-1" x="62.36" y="139.73" width="3.15" height="1.57" transform="translate(-90.45 140.95) rotate(-65.69)"/>
      <rect class="cls-1" x="75.32" y="145.59" width="3.15" height="1.57" transform="translate(-88.15 156.21) rotate(-65.69)"/>
      <rect class="cls-1" x="101.26" y="157.3" width="3.15" height="1.57" transform="translate(-83.57 186.74) rotate(-65.69)"/>
      <rect class="cls-1" x="114.22" y="163.16" width="3.15" height="1.57" transform="translate(-81.28 202) rotate(-65.69)"/>
      <path class="cls-1" d="M13.43,115.98l-1.3,2.88-1.43-.65c.42-1.43,1.12-2.49,2.73-2.23Z"/>
      <path class="cls-1" d="M26.92,116.87c2.33,1.06,1.65,1.97.13,3.52l-.7-.32.57-3.2Z"/>
      <path class="cls-1" d="M39.88,122.73c2.33,1.06,1.65,1.97.13,3.52l-.7-.32.57-3.2Z"/>
      <polygon class="cls-1" points="68.36 136.46 65.24 137.64 65.84 135.32 68.36 136.46"/>
      <polygon class="cls-1" points="90.38 147.26 92.12 146.32 93.4 148.2 91.86 148.78 90.38 147.26"/>
      <path class="cls-1" d="M91.23,151.11l-1.3,2.88-1.43-.65c.42-1.43,1.12-2.49,2.73-2.23Z"/>
      <path class="cls-1" d="M101.92,162.01l-1.3,2.88-1.43-.65c.42-1.43,1.12-2.49,2.73-2.23Z"/>
      <path class="cls-1" d="M114.89,167.87l-1.3,2.88-1.43-.65c.42-1.43,1.12-2.49,2.73-2.23Z"/>
      <path class="cls-1" d="M143.61,169.58c1.43.42,2.49,1.12,2.23,2.73l-2.88-1.3.65-1.43Z"/>
      <rect class="cls-1" x="21.41" y="127.56" width="2.36" height="1.57" transform="translate(-103.68 96.11) rotate(-65.69)"/>
      <rect class="cls-1" x="34.38" y="133.42" width="2.36" height="1.57" transform="translate(-101.39 111.38) rotate(-65.69)"/>
      <rect class="cls-1" x="47.35" y="139.28" width="2.36" height="1.57" transform="translate(-99.09 126.64) rotate(-65.69)"/>
      <rect class="cls-1" x="60.31" y="145.13" width="2.36" height="1.57" transform="translate(-96.8 141.9) rotate(-65.69)"/>
      <rect class="cls-1" x="73.28" y="150.99" width="2.36" height="1.57" transform="translate(-94.51 157.16) rotate(-65.69)"/>
      <polygon class="cls-1" points="88.95 156.15 87.3 158.87 87.03 156.6 88.95 156.15"/>
      <polygon class="cls-1" points="127.85 173.72 126.2 176.44 125.93 174.17 127.85 173.72"/>
      <polygon class="cls-1" points="129.42 168.37 130.13 168.69 128.83 171.56 127.4 170.91 129.42 168.37"/>
      <rect class="cls-1" x="138.11" y="180.27" width="2.36" height="1.57" transform="translate(-83.05 233.48) rotate(-65.69)"/>
    </g>
  </g>
</svg>