<?xml version="1.0" encoding="UTF-8"?>
<svg id="Layer_2" data-name="Layer 2" xmlns="http://www.w3.org/2000/svg" viewBox="0 0 111.64 46.3">
  <defs>
    <style>
      .cls-1 {
        fill: #fff;
      }
    </style>
  </defs>
  <g id="Layer_1-2" data-name="Layer 1">
    <g>
      <path d="M96.4,35.17c.4.5,6.67.73,7.86.99.87,1.8,6.94,6.05,7.34,7.08.15.39-.14,1.23-.18,1.72-.48.8-8.72,1.49-9.9,1.3-3.1-.49-5.46-3.78-7.43-4.31-.34-.09-.8.82-1.57.95-2.32.39-12.52-3.73-15.54-4.64-1.87-.56-4.16-.56-6.06-1.18-10.25-3.3-19.91-8.56-30.18-10.82-1.96-.43-3.97-1.65-5.93-2.19l.93,3.31c-.99.61-1.98.5-3.06.23-6.54-1.61-22.03-8.28-27.18-12.52-3.62-2.99-1.68-3.91-2.6-6.12C2.12,7.13-1.13,6.79.41,2.77c1.96-5.11,13.37-1.77,17.44-.77,11.85,2.93,20.03,7.17,30.89,11.6,15.08,6.16,30.67,10.95,45.09,18.58,2.73,1.44,1.86,2.11,2.57,2.99ZM43.42,12.67C32.99,8.89,22.27,4.2,11.29,2.32,8.89,1.91-.37.55,2.16,5.57c1.12,2.22,8.97,6.51,11.49,7.8,8.14,4.14,16.95,7.49,25.49,10.71.84-4.12,2.2-7.75,4.28-11.41ZM27.66,21.4c-8.17-2.99-15.94-7.01-23.37-11.48.07,2.09.94,2.98,2.54,4.17,7.53,5.6,17.96,8.73,26.6,12.17.62-1.01.21-.79-.21-1.29-2.21-2.63-3.48-1.32-5.85-2.07-5.63-1.78-12.88-4.74-17.66-8.18-.73-.53-1.45-.16-.72-1.43,5.48,2.92,10.91,5.98,16.83,7.94.59.19,1.63,1.02,1.83.15ZM41.05,24.79l4.28-11.41c-1.08-.47-.78-.49-1.22.35-1.7,3.29-2.95,6.37-3.73,10-.19.88-.55.7.67,1.07ZM74.23,36.15l3.57-9.51-30.92-11.59c-.73,1.47-4.67,8.7-3.26,9.64l30.62,11.46ZM79.05,27.65l-2.76,7.37c-.16.42-1.9.9.02,1.37.47-.22,4.32-7.55,2.74-8.73ZM94.77,34.71l-13.55-6.22c-.96-.12-1.8,4.18-2.31,5.37-.46,1.05-1.22,1.83-1.64,2.88,4.32.85,8.7,3.2,12.79,4.26s4.2-3.19,4.71-6.29ZM108.72,42.59c-1.77-.85-3.57-3.87-5.09-4.62-1.73-.85-4.56-.27-6.45-1.25l-.99.42-1.28,3.16,6.46,4.68,6.82-.96c-1.32-1.43-9.33-1.28-6.69-3.88,1.92.48,3.41,1.62,5.39,2.3.58.2,1.64,1.02,1.83.15Z"/>
      <path class="cls-1" d="M43.42,12.67c-2.08,3.66-3.44,7.29-4.28,11.41-8.54-3.22-17.36-6.57-25.49-10.71-2.52-1.28-10.37-5.58-11.49-7.8C-.37.55,8.89,1.91,11.29,2.32c10.98,1.88,21.7,6.57,32.13,10.35ZM33.55,10.05c-7.52-2.82-15.63-5.57-23.51-7.03-.64-.12-2.34-.78-2.58-.06l19.32,5.62,6.78,1.47ZM40.21,12.55l-3.33-1.25-.17.47,3.33,1.25.17-.47Z"/>
      <path class="cls-1" d="M74.23,36.15l-30.62-11.46c-1.41-.94,2.53-8.18,3.26-9.64l30.92,11.59-3.57,9.51ZM68.82,23.82l-18.08-6.78-3.44-.21c7.34,2.72,14.84,4.69,21.88,8.21.13-.29-.21-1.11-.36-1.21Z"/>
      <path class="cls-1" d="M94.77,34.71c-.52,3.1-.65,7.34-4.71,6.29s-8.47-3.4-12.79-4.26c.42-1.05,1.19-1.83,1.64-2.88.52-1.19,1.36-5.49,2.31-5.37l13.55,6.22ZM89.63,32.71l-7.61-2.85-.18.48,7.61,2.85.18-.48ZM93.27,34.61l-1.02,5.58c.35-1.69,2.4-4,1.02-5.58Z"/>
      <path class="cls-1" d="M108.72,42.59c-.19.86-1.26.05-1.83-.15-1.98-.68-3.47-1.82-5.39-2.3-2.64,2.6,5.37,2.45,6.69,3.88l-6.82.96-6.46-4.68,1.28-3.16.99-.42c1.89.98,4.72.4,6.45,1.25,1.52.75,3.32,3.77,5.09,4.62Z"/>
      <path class="cls-1" d="M27.66,21.4c-.2.87-1.25.04-1.83-.15-5.93-1.95-11.36-5.02-16.83-7.94-.73,1.27-.02.9.72,1.43,4.78,3.44,12.03,6.4,17.66,8.18,2.37.75,3.64-.57,5.85,2.07.42.5.83.27.21,1.29-8.64-3.44-19.08-6.58-26.6-12.17-1.6-1.19-2.47-2.08-2.54-4.17,7.43,4.46,15.2,8.49,23.37,11.48Z"/>
      <path class="cls-1" d="M41.05,24.79c-1.22-.37-.86-.19-.67-1.07.78-3.62,2.04-6.7,3.73-10,.43-.84.14-.82,1.22-.35l-4.28,11.41Z"/>
      <path class="cls-1" d="M79.05,27.65c1.59,1.19-2.27,8.51-2.74,8.73-1.93-.47-.18-.95-.02-1.37l2.76-7.37Z"/>
      <path d="M33.55,10.05l-6.78-1.47L7.45,2.97c.25-.72,1.95-.06,2.58.06,7.89,1.46,16,4.21,23.51,7.03Z"/>
      <rect x="38.21" y="10.39" width=".5" height="3.55" transform="translate(13.57 43.9) rotate(-69.44)"/>
      <path d="M68.82,23.82c.15.1.49.92.36,1.21-7.05-3.52-14.54-5.49-21.88-8.21l3.44.21,18.08,6.78Z"/>
      <rect x="85.48" y="27.45" width=".51" height="8.13" transform="translate(26.12 100.73) rotate(-69.44)"/>
      <path d="M93.27,34.61c1.38,1.58-.67,3.89-1.02,5.58l1.02-5.58Z"/>
    </g>
  </g>
</svg>