<?xml version="1.0" encoding="UTF-8"?>
<svg id="Layer_2" data-name="Layer 2" xmlns="http://www.w3.org/2000/svg" viewBox="0 0 166.56 190.61">
  <defs>
    <style>
      .cls-1 {
        fill: #fff;
      }
    </style>
  </defs>
  <g id="Layer_1-2" data-name="Layer 1">
    <g>
      <path d="M86.16,1.72c.3.14.32,1.73,1.15,1.85,2.13.31,4.51-1.49,6.35-1.02,1.44.37,2.35,2.67,3.81,3.05,1.97.52,5.03-1.62,7.44-1.03,1.22.3,1.17,2.97,2.52,3.3s4.92-1.74,7.59-1.03c1.28.34,1.16,2.95,2.53,3.28,2.77.67,7.84-4.2,10.09,2.41,5.54-5.28,8.62,1.57,10.57,1.75,1.45.13,2.16-1.54,4.63-1.33,3.95.33,4.11,3.87,5.05,4.08,1.43.32,2.67-3.41,7.52-1.04.88.43.91,2.12,1.61,2.2,2.21.24,6.86-2.93,8.9-.09,2.56,3.56-3.41,6.14-3.53,7.84s1.98,2.62,1.64,4.9c-.28,1.89-2.75,3.48-3.05,5.01-.41,2.1,1.39,4.08.78,6.25-.42,1.49-2.73,2.42-3.08,3.83-.46,1.86,1.47,4.07.83,6.29-.43,1.49-2.71,2.4-2.98,3.75-.34,1.69,1.6,4.92.92,7.53-.33,1.28-2.98,1.18-3.29,2.53-.26,1.13,1.29,3.49,1.04,5.52-.3,2.49-3.1,3.47-3.31,4.71s1.8,2.3,1.66,3.87c-.17,1.92-2.34,3.73-2.65,5.27-.44,2.23,1.27,4.22-.05,7.72-.62,1.64-2.42,1.64-2.49,2.29-.22,2.04,1.83,4.94,1.22,7.48-.3,1.27-3.22,1.42-3.45,2.5-.17.81,3.13,4.57,1.05,7.2-4.02,2.16-7.19-2.97-8.5-3.19-1.48-.26-2.84,2.64-5.25,2.05-1.74-.43-2.99-3.4-4.16-3.92-1.01-.45-2.01,1.54-4.55,1.35-3.13-.23-3.51-2.88-4.1-2.98-2.4-.42-5.27,1.81-7.52,1.06-1.53-.51-1.45-3.14-2.59-3.38-2.16-.45-5.25,1.88-7.54,1.13-1.53-.51-1.45-3.14-2.58-3.38-1.94-.4-4.52,1.43-6.54,1.23-2.37-.23-3.18-2.86-4.72-3.24-1.86-.46-4.07,1.47-6.29.83-1.49-.43-2.39-2.71-3.74-2.98s-4.36,1.15-6.67,1c-1.36-.09-.94-1.47-6.9-1.67-11.48-.4-.6-7.88-.62-9.13,0-.57-1.5-1.6-1.74-2.54-1.33-5.08,3.06-4.25,3.22-5.45.25-1.89-1.59-3.13-1.81-4.43-.66-4.04,3.77-4.77,3.97-5.65.34-1.47-4-3.55-1.18-7.62.77-1.11,3.1-1.44,3.38-2.55.36-1.43-2.25-3.61-2.2-5.58.05-2.23,2.83-3.11,3.22-4.69.45-1.86-1.46-4.06-.83-6.29.42-1.49,2.69-2.4,3.07-3.84.51-1.99-1.61-5.02-1.03-7.45.29-1.19,2.93-1.14,3.35-2.59.52-1.75-1.69-5.04-1.1-7.53.3-1.26,3.22-1.43,3.45-2.5.25-1.16-1.89-2.35-1.77-3.99.22-3.03,3.74-5.21,3.9-6.27s-3.34-4.98-.95-8.23c2.63-.69,4.2.55,6.28,1.52ZM94.2,4.87c-1.75-.84-4.31,1.41-6.83.75-1.63-.42-2.9-3.05-3.64-3.22-4.26-.98-1.39,5.52-1.62,7.25-.32,2.41-3.19,3.7-3.15,4.54.03.64,1.76,1.65,1.76,3.18,0,2.26-2.59,4.44-2.9,6.12s.81,3.35.65,5.13c-.27,2.96-3.08,2.98-3.2,3.77-.32,2.24,1.43,4.34.74,7.21-.52,2.15-2.86,2.1-2.98,2.93-.37,2.41,1.82,5.35,1.09,7.55-.52,1.56-3.22,1.46-3.38,2.55-.24,1.53,1.6,4.14,1.27,6.54s-2.92,3.31-3.17,4.68c-.3,1.59,1.46,3.79.72,6.39-.46,1.59-2.93,2.67-3.12,3.77-.26,1.49,2.68,2.9,2.06,5.25-.37,1.39-2.76,2.35-3.12,3.81-.45,1.83,1.4,3.97.82,6.3-.48,1.96-3.8,2.68-3.22,5.3,2.63.25,5.67-1.8,8.21-1.19,1.29.31,1.28,3.13,2.52,3.43,1.36.33,3.12-1.86,4.45-1.87,1.7-.02,3.41,2.81,5.66,3,5.3.45,10.24.57,15.48,1.33,2.12.31,3.59,3.01,5.78,3.08,8.37.27,4.92,1.12,9.28,2.2,1.86.46,4.07-1.47,6.29-.83,1.49.43,2.41,2.73,3.74,2.99,1.61.31,4.09-1.59,6.49-.78,1.66.56,1.53,3.36,2.44,3.35,2.5-.02,3.62-3.53,7.58-1.19,1.18.69.53,3.3,4.17,2.24-3.2-5.14,2.27-8.09,2.31-8.59.16-1.87-1.56-4.16-1.23-6.55s2.92-3.31,3.17-4.68c.3-1.59-1.46-3.79-.72-6.39.44-1.54,2.88-2.63,2.94-3.6s-1.95-2.5-1.77-4.35,2.59-3.33,2.98-4.97c.63-2.64,1.71-7.52,2.24-10.09.41-2.02-1.4-4.08-.78-6.25.42-1.49,2.73-2.42,3.08-3.83.46-1.86-1.46-4.06-.83-6.29.43-1.49,2.73-2.42,3.07-3.83.46-1.86-1.47-4.07-.83-6.29.43-1.5,2.74-2.43,2.99-3.74s-1.15-3.48-.92-5.45c.32-2.85,3.75-3.33,3.41-6.24-2.43-.38-4.69,1.11-7.09.89-2.98-.28-3.01-3.15-3.73-3.21-1.66-.14-3.64,1.39-5.46,1.22-2.34-.22-3.18-2.86-4.63-3.15-1.69-.34-4.89,1.58-7.53.92-1.3-.33-1.28-3.09-2.52-3.41-1.5-.38-3.61,2.42-5.41,2.08-1.69-.32-3.17-3.89-4.82-4.18-1.56-.28-3.18,1.87-5.3,1.84-2.73-.03-3.09-3.55-5.09-3.76s-3.13,1.55-5.02,1.51c-2.74-.07-2.96-3.06-3.73-3.17-2.24-.32-4.34,1.44-7.2.74-2.14-.52-2.15-2.6-2.4-2.72Z"/>
      <path class="cls-1" d="M94.2,4.87c.25.12.26,2.19,2.4,2.72,2.85.7,4.96-1.06,7.2-.74.77.11.99,3.11,3.73,3.17,1.89.05,3.11-1.7,5.02-1.51s2.36,3.73,5.09,3.76c2.13.02,3.75-2.12,5.3-1.84,1.65.29,3.14,3.86,4.82,4.18,1.8.34,3.91-2.46,5.41-2.08,1.24.32,1.22,3.08,2.52,3.41,2.63.67,5.84-1.26,7.53-.92,1.46.29,2.29,2.93,4.63,3.15,1.82.17,3.81-1.35,5.46-1.22.73.06.75,2.93,3.73,3.21,2.4.22,4.66-1.26,7.09-.89.34,2.91-3.09,3.4-3.41,6.24-.22,1.97,1.18,4.09.92,5.45s-2.56,2.25-2.99,3.74c-.64,2.22,1.29,4.43.83,6.29-.35,1.41-2.65,2.34-3.07,3.83-.64,2.23,1.28,4.44.83,6.29-.35,1.41-2.65,2.34-3.08,3.83-.62,2.17,1.19,4.23.78,6.25-.52,2.57-1.6,7.45-2.24,10.09-.39,1.64-2.8,3.16-2.98,4.97s1.83,3.38,1.77,4.35-2.5,2.06-2.94,3.6c-.75,2.59,1.02,4.79.72,6.39-.26,1.37-2.85,2.27-3.17,4.68s1.39,4.68,1.23,6.55c-.04.49-5.51,3.44-2.31,8.59-3.63,1.07-2.99-1.54-4.17-2.24-3.96-2.34-5.08,1.18-7.58,1.19-.91,0-.78-2.79-2.44-3.35-2.4-.81-4.88,1.09-6.49.78-1.33-.26-2.25-2.56-3.74-2.99-2.22-.64-4.43,1.29-6.29.83-4.36-1.07-.91-1.93-9.28-2.2-2.18-.07-3.66-2.77-5.78-3.08-5.24-.76-10.18-.87-15.48-1.33-2.25-.19-3.97-3.02-5.66-3-1.33.02-3.09,2.2-4.45,1.87-1.24-.3-1.23-3.11-2.52-3.43-2.53-.61-5.58,1.43-8.21,1.19-.58-2.62,2.74-3.34,3.22-5.3.57-2.33-1.27-4.47-.82-6.3.36-1.46,2.75-2.42,3.12-3.81.62-2.36-2.31-3.76-2.06-5.25.19-1.1,2.66-2.18,3.12-3.77.74-2.6-1.01-4.8-.72-6.39.26-1.37,2.84-2.27,3.17-4.68s-1.5-5.01-1.27-6.54c.17-1.09,2.86-.99,3.38-2.55.73-2.2-1.45-5.13-1.09-7.55.13-.83,2.46-.78,2.98-2.93.69-2.86-1.06-4.96-.74-7.21.11-.8,2.93-.82,3.2-3.77.16-1.78-.96-3.44-.65-5.13s2.9-3.86,2.9-6.12c0-1.54-1.73-2.54-1.76-3.18-.03-.84,2.84-2.13,3.15-4.54.23-1.74-2.64-8.23,1.62-7.25.74.17,2.01,2.8,3.64,3.22,2.53.66,5.09-1.59,6.83-.75ZM156.18,23.87l-69.66-14.25-16.83,80.55,70.93,13.03,15.56-79.33Z"/>
      <path d="M156.18,23.87l-15.56,79.33-70.93-13.03L86.51,9.62l69.66,14.25ZM155.16,24.9l-67.55-13.04-15.67,77.18,37.1,6.75-1.13-4.49-2.22,2.24,1.68-4.11,2.8.76c.06-2.22-.9-4.04,2.25-3.38-1.07,1.97.26,4.53,0,5.97-.05.25-2.81,1.76-2.26,4.14,5.84-.72,25.34,6.89,29.34,4.02l15.67-76.04Z"/>
      <path class="cls-1" d="M155.16,24.9l-15.67,76.04c-3.99,2.87-23.5-4.74-29.34-4.02-.55-2.37,2.21-3.88,2.26-4.14.27-1.44-1.06-4.01,0-5.97-3.15-.65-2.19,1.16-2.25,3.38l-2.8-.76-1.68,4.11,2.22-2.24,1.13,4.49-37.1-6.75,15.67-77.18,67.55,13.04ZM93.3,15.9l-4.58.67-.81,3.09,2.64,2.94,2.75-2.2-3.37-3.38,3.36-1.12ZM105.68,22.65c-.17-1.46.13-3.02-.01-4.5l-4.48,4.49,1.13-4.49c-3.36-1.66-3.75.82-6.76,1.11l-1.11-2.24v5.62s3.36-2.26,3.36-2.26l1.12,3.38,1.12-3.36c.84,6.52,2.47,5.23,5.64,2.24.09.73-.07,1.52,0,2.25h4.48s0-5.62,0-5.62c-2.45-.46-2.72,1.7-4.49,3.37ZM125.92,27.15c1.67-2.45.83-2.22-.01-5.63l-5.6,3.37-.57-3.37-2.81,2.25-2.25-3.39-1.12,6.75,7.78-1.09,1.22,4.47c.74.56,2.82-2.58,3.36-3.37h-3.37s0-3.37,0-3.37c2.14-.36,3.72,1.32,3.37,3.37ZM132.66,23.79h-4.49s0,5.61,0,5.61l4.49-5.61ZM140.54,27.14c-4.97-7.09-9.48,5.26-1.13,4.5,1.23-3.84-3.98-.1-3.36-3.92.34-2.1,3.28-.95,4.49-.59ZM145.04,31.65c1.72-1.39,1.78-3.07,3.36-3.37l1.12,5.61,2.24-5.06c-1.5-2.25-2.91-1.74-5.07-.69-2-.1.58-4.58-2.2-3.23-3.71,1.79-6.41,8.06-.17,7.9.96-.09.66-1.12.72-1.16h-2.24s0-3.37,0-3.37h2.24s0,3.37,0,3.37ZM100.06,41.78c-3.04-.43-4.35-1.89-6.74-3.38-.27,4.8,3.07,7.5,6.76,9.66-.94,1.38-.72,5.12-1.36,5.88-.82.96-5.38.11-5.4,2.45,4.06-.78,1.37,4.31,2.34,5.55,8.14-.63,13.51,8.08,11.27,15.19l-3.49.67,3.38,1.12-1.13,4.49h6.74c1.31-4.02-4.36-1.2-4.51-2.82,2.35-7.03,2.84-13.77,3.6-21.16l1.5-1.87,2.8.54-2.36,1.24c2.41,5.47-.83,4.84-1.02,5.69-.55,2.39.32,5.68,0,8.26l3.37-13.5,5.61,1.15v2.23s-3.36-1.12-3.36-1.12c.32,6.85-4.3,10.81-2.25,18l1.12-4.5,20.23,3.37-16.86-3.37c.29-7.79,15.8-2.99,10.67-10.12l-1.12,3.38-1.14-3.4-.55,3.38-2.8.04-2.81-3.41c.57,3.98-.9,5.56-4.5,6.75v-2.23c4.75-.33,3.39-6.6,4.5-10.14l1.16,3.37,6.19-.95,1.05,2.09,2.72-1.25.1-3.26c-2.24,1.34-7.48,1.56-8.98-1.11l7.86,1.12c-1.47-8.42,8.58-3.99,10.13-11.25h-6.74s2.23,3.36,2.23,3.36l-10.1-2.25c-.5,2.11,1.52,5.85-1.69,5.64-.99-.07-5.87-1.02-6.07-1.26-.96-1.12,1.25-5.54-1.24-5.5l-2.25,5.61-2.25-2.24v-6.75s2.25,4.49,2.25,4.49l1.12-3.38,7.87,1.7c-6.56-2.98-9.73-4.08-9.01-11.81.57-.3,8,2.21,8.92,2.88,2.29,1.64,3.28,8.18,6.81,6.68-3.86-4.14-4.76-9.11-11.05-9.82l-.2-3.13-2.79,1.96-5.64-4.1c-1.59,0-5.01,7.52-6.51,8.55-1.24.85-4.32,1.53-6.41,2.6,5.04.71,10.76-.3,15.74-1.11-2.46,3.85-8.09,3.95-11.74,2.19l-1.26,2.34-6.11-1.18,3.37-2.24ZM93.31,62.05c-6.3-3.04-4.11,3.89-9.99,2.4l-3.52,7.71h8.99c-.51-3-6.79,1.22-5.61-3.36,2.21.21,11.59-5.47,10.12-6.75ZM82.06,62.05c-2.06-.28-3.28-.06-4.47,1.68l2.2,1.67,2.27-3.35ZM89.93,74.43l-10.11-1.13,2.25,1.68-2.25,1.68,10.11-2.23ZM97.8,75.55h-6.74v1.1h6.74v-1.1ZM100.05,78.93l-9-1.13,1.14,2.23-4.5,1.12c4.18,2.07,5.93-2.28,6.26-2.26,1.33.05,5.72,2.83,6.09.04ZM79.67,81.31l-4.34-1.28-1.1,6.72,9.48,2.37,1.71-2.32c-.17,2.38,2.32,3.49,4.51,3.36v-4.49s-3.37,2.23-3.37,2.23l.6-3.37-2.83-1.11-2.26,3.37-.57-3.39-1.68,2.26-.15-4.36ZM102.31,90.18l-1.12-4.51v6.74s3.35-3.38,3.35-3.38l-2.23,1.14ZM115.8,89.06h-2.24s0,5.61,0,5.61h2.24s0-5.61,0-5.61ZM121.45,92.42l-2.26-3.38-1.13,6.74,3.36-2.24,2.25,3.37.56-4.5,2.81,1.13-2.23,1.12c.59,5.21,5.81,3.5,7.86,0l-.54,3.38,2.79-2.25,1.12,3.37c1.97-9.43-9.92-2.79-11.26-8.99l-3.33,2.24Z"/>
      <path d="M100.06,41.78c2.1-1.07,5.18-1.75,6.41-2.6,1.51-1.03,4.92-8.54,6.51-8.55l5.64,4.1,2.79-1.96.2,3.13c6.29.71,7.19,5.68,11.05,9.82-3.53,1.5-4.53-5.04-6.81-6.68-.92-.66-8.35-3.18-8.92-2.88-.72,7.72,2.44,8.83,9.01,11.81l-7.87-1.7-1.12,3.38-2.25-4.49v6.75s2.25,2.24,2.25,2.24l2.25-5.61c2.49-.04.28,4.39,1.24,5.5.2.24,5.08,1.19,6.07,1.26,3.21.21,1.18-3.53,1.69-5.64l10.1,2.25-2.23-3.36h6.74c-1.55,7.26-11.6,2.83-10.13,11.25l-7.86-1.12c1.5,2.68,6.74,2.45,8.98,1.11l-.1,3.26-2.72,1.25-1.05-2.09-6.19.95-1.16-3.37c-1.11,3.55.25,9.81-4.5,10.14v2.23c3.6-1.19,5.07-2.77,4.5-6.75l2.81,3.41,2.8-.04.55-3.38,1.14,3.4,1.12-3.38c5.12,7.13-10.38,2.32-10.67,10.12l16.86,3.37-20.23-3.37-1.12,4.5c-2.05-7.19,2.56-11.15,2.25-18l3.36,1.12v-2.23s-5.61-1.15-5.61-1.15l-3.37,13.5c.31-2.57-.55-5.86,0-8.26.2-.86,3.43-.22,1.02-5.69l2.36-1.24-2.8-.54-1.5,1.87c-.76,7.39-1.25,14.12-3.6,21.16.15,1.63,5.82-1.2,4.51,2.82h-6.74s1.13-4.49,1.13-4.49l-3.38-1.12,3.49-.67c2.25-7.11-3.12-15.81-11.27-15.19-.97-1.24,1.73-6.33-2.34-5.55.02-2.34,4.57-1.49,5.4-2.45.64-.76.42-4.5,1.36-5.88-3.69-2.16-7.03-4.86-6.76-9.66,2.39,1.49,3.7,2.95,6.74,3.38l-3.37,2.24,6.11,1.18,1.26-2.34c3.65,1.76,9.28,1.66,11.74-2.19-4.99.81-10.71,1.82-15.74,1.11ZM112.42,37.28h-1.67s-2.83,3.36-2.83,3.36c2.07.27,3.3.07,4.49-1.69v-1.67ZM104.56,51.9l6.25-1.05.48-5.7c-5.09,1.25-6.29.95-6.73,6.74ZM113.54,51.9v-6.74h-1.1v6.74h1.1ZM134.91,51.92l-5.61-1.14,1.13,5.62c2.18.38.44-2.43,1.25-3.23s3.61.93,3.23-1.25ZM115.79,55.3c-2.6.66-8.64-1.49-10.11,1.1,2.59-.66,8.54,1.5,10.11-1.1ZM104.55,58.69l-7.85-2.28v4.5s3.36,0,3.36,0l-2.24-2.23h2.79s.83,2.82.83,2.82l3.12.54v-3.34ZM110.17,58.67c-.96.18-3.11-.64-3.37.57-.64,2.98,2.57.55,2.25,2.79l-3.37.02,2.26,4.48,2.23-7.86Z"/>
      <path d="M79.67,81.31l.15,4.36,1.68-2.26.57,3.39,2.26-3.37,2.83,1.11-.6,3.37,3.36-2.23v4.49c-2.18.13-4.67-.98-4.5-3.36l-1.71,2.32-9.48-2.37,1.1-6.72,4.34,1.28Z"/>
      <path d="M125.92,27.15c-.54.8-2.62,3.93-3.36,3.37l-1.22-4.47-7.78,1.09,1.12-6.75,2.25,3.39,2.81-2.25.57,3.37,5.6-3.37c.85,3.41,1.68,3.18.01,5.63.35-2.05-1.23-3.73-3.37-3.37v3.36s3.37,0,3.37,0Z"/>
      <path d="M105.68,22.65c-3.17,2.98-4.79,4.27-5.64-2.24l-1.12,3.36-1.12-3.38-3.36,2.26v-5.62s1.11,2.24,1.11,2.24c3.01-.29,3.4-2.77,6.76-1.11l-1.13,4.49,4.48-4.49c.14,1.47-.16,3.03.01,4.5,1.77-1.67,2.04-3.84,4.49-3.37v5.63s-4.49,0-4.49,0c-.07-.74.08-1.52,0-2.25Z"/>
      <path d="M121.45,92.42l3.33-2.24c1.34,6.19,13.23-.44,11.26,8.99l-1.12-3.37-2.79,2.25.54-3.38c-2.04,3.5-7.27,5.21-7.86,0l2.23-1.12-2.81-1.13-.56,4.5-2.25-3.37-3.36,2.24,1.13-6.74,2.26,3.38Z"/>
      <path d="M93.31,62.05c1.47,1.28-7.91,6.95-10.12,6.75-1.18,4.58,5.1.36,5.61,3.36h-8.99s3.52-7.71,3.52-7.71c5.88,1.49,3.69-5.44,9.99-2.4Z"/>
      <path d="M145.04,31.65c-.05.04.24,1.07-.72,1.16-6.24.15-3.54-6.11.17-7.9,2.78-1.35.2,3.13,2.2,3.23,2.17-1.05,3.57-1.56,5.07.69l-2.24,5.06-1.12-5.61c-1.58.3-1.64,1.98-3.36,3.37v-3.37s-2.24,0-2.24,0v3.36s2.24,0,2.24,0Z"/>
      <polygon points="93.3 15.9 89.94 17.02 93.31 20.41 90.56 22.61 87.92 19.67 88.73 16.57 93.3 15.9"/>
      <path d="M100.05,78.93c-.38,2.8-4.77.01-6.09-.04-.33-.01-2.08,4.33-6.26,2.26l4.5-1.12-1.14-2.23,9,1.13Z"/>
      <path d="M140.54,27.14c-1.21-.36-4.15-1.51-4.49.59-.62,3.82,4.6.07,3.36,3.92-8.35.76-3.84-11.59,1.13-4.5Z"/>
      <polygon points="89.93 74.43 79.82 76.66 82.07 74.98 79.82 73.3 89.93 74.43"/>
      <polygon points="102.31 90.18 104.54 89.04 101.19 92.42 101.19 85.68 102.31 90.18"/>
      <polygon points="132.66 23.79 128.17 29.39 128.17 23.78 132.66 23.79"/>
      <polygon points="115.8 89.06 115.8 94.66 113.56 94.67 113.56 89.05 115.8 89.06"/>
      <path d="M82.06,62.05l-2.27,3.35-2.2-1.67c1.19-1.74,2.41-1.95,4.47-1.68Z"/>
      <rect x="91.07" y="75.55" width="6.74" height="1.1"/>
      <path class="cls-1" d="M104.56,51.9c.45-5.8,1.64-5.5,6.73-6.74l-.48,5.7-6.25,1.05Z"/>
      <path class="cls-1" d="M134.91,51.92c.38,2.18-2.43.44-3.23,1.25s.93,3.62-1.25,3.23l-1.13-5.62,5.61,1.14Z"/>
      <path class="cls-1" d="M115.79,55.3c-1.57,2.6-7.52.44-10.11,1.1,1.47-2.59,7.51-.45,10.11-1.1Z"/>
      <polygon class="cls-1" points="104.55 58.69 104.55 62.03 101.43 61.49 100.61 58.67 97.81 58.67 100.05 60.9 96.69 60.91 96.69 56.41 104.55 58.69"/>
      <path class="cls-1" d="M110.17,58.67l-2.23,7.86-2.26-4.48,3.37-.02c.32-2.24-2.89.19-2.25-2.79.26-1.21,2.41-.39,3.37-.57Z"/>
      <rect class="cls-1" x="112.44" y="45.16" width="1.1" height="6.74"/>
      <path class="cls-1" d="M112.42,37.28v1.67c-1.19,1.77-2.42,1.97-4.49,1.69l2.83-3.35h1.67Z"/>
    </g>
    <g>
      <polygon class="cls-1" points="19.31 140.85 19.31 142.44 14.54 141.64 14.54 140.86 19.31 140.85"/>
      <path d="M71.1,111.35l-3.13,6.03c-3.9-.87-5.52,2.26-8.81,1.13l3.18-.79v-1.58s-1.46-.1-1.46-.1l.65-2.29-2.38,1.59c-.16-2.21,1.91-3.34,3.51-1.6.41.45-.44,2.38,1.25,2.39l.07-3.93,7.1-.85ZM67.11,116.93c.08-1.49.23-3.51-1.58-3.99-.08,1.49-.23,3.51,1.58,3.99Z"/>
      <polygon points="29.67 120.92 30.46 119.33 31.26 124.11 28.09 121.72 28.88 124.1 23.31 124.9 24.5 120.14 26.89 123.31 27.29 119.32 29.67 120.92"/>
      <path d="M14.54,125.7l.8-4.78,3.58,2.39,1.18-1.59-1.73,4.64-3.84-.65-.39,1.59-2.39-1.6-1.19,1.6-.8-3.98,1.99,1.59,1.99-2.39.8,3.19ZM17.72,123.31c-4.92-.85-.99,3.45,0,2.38v-2.38Z"/>
      <path d="M25.57,152.99c.49.71-.56,2.46.91,2.21l.79-3.18.8,3.98h-2.67s-1.3-1.59-1.3-1.59l-.4,2.41-2.67-.15-.91-3.05,2.38,2.38.38-3.21c.46-1.08,2.49-.08,2.69.21Z"/>
      <polygon points="19.27 152.85 20.11 157.59 16.18 157.54 15.69 153.59 19.27 152.85"/>
      <path class="cls-1" d="M67.11,116.93c-1.81-.48-1.66-2.5-1.58-3.99,1.81.48,1.66,2.5,1.58,3.99Z"/>
      <path class="cls-1" d="M17.72,123.31v2.38c-.99,1.07-4.92-3.23,0-2.38Z"/>
      <g>
        <path d="M135.63,177.52c-1.19.92-.77,2.16-3.19,1.59v-3.18s3.19,0,3.19,0c.04.53-.03,1.06,0,1.59.72-.56.65-.94,1.14-1.52,1.72.86,5.19.57,4.43,3.5l-1.58,1.21.38-2.39-1.98,1.59-.79-2.38-1.6,2.39c-.05-.79.04-1.6,0-2.39Z"/>
        <polygon points="130.06 175.92 131.64 174.34 131.64 178.32 128.86 175.92 127.67 178.32 128.05 174.32 130.06 175.92"/>
        <g>
          <path d="M77.67,107.17c.13.26,2.1.66,2,3.15-.05,1.34-1.57,1.98-1.38,3.4l2.32,1.32-.74,5.09c3.05.7.34-3.9,3.41-3.83s3.74,2.95,4.13,2.99c.51.05,1.93-2.11,4.57-.69.64.34.66,1.53,1.14,1.58,1.33.13,2.84-1.22,4.49-.73,1.09.32,1.85,2.05,2.55,2.09,1.06.07,1.96-2.19,4.63-.6,1.51.9.07,2.19,4.85.84l1.3,2.35,3.39-1.48c2.04.19,2.21,2.3,2.62,2.3,2.4-.03,7.57-.26,9.96.28,1.53.35,1.49,2.08,2.04,2.13,1.48.14,3.43-1.31,5.33-.85,1.4.33-1.23.98,4.15.93,2.7-.02,2.75,2.26,3.26,2.31,1.45.14,3.51-1.31,5.31-.88.9.21,1.01,2.28,1.77,2.45.9.19,1.92-2.13,4.53-.75.65.34.65,1.52,1.09,1.54,1.23.04,3.39-1.4,5.1-.79.14,2.35.5,4.53-2.36,4.82,2.63,3.6-.27,4.64-.59,6.87-.28,1.94,2.25,4.53-1.81,5.09,3,3.65-.81,5.71-.85,6.06-.22,2.09,2.85,5.23-1.54,5.9,3.01,3.66-.82,5.66-.82,6.01-.02,1.24,1.28,2.5.68,4.54-.32,1.1-2.12,1.99-2.1,2.55.01.46,1.42,1.36,1.45,2.42.04,1.5-2.03,2.17-2.24,3.26s1.03,3.01.67,4.55c-.2.85-2.11.83-2.34,1.79s1.29,3.62.69,5.14c-2.59,1.42-5.39-2.16-5.96-2.2-.73-.05-1.9,1.53-3.09,1.3-.9-.18-1.61-1.92-2.65-2.18-1.31-.32-2.88,1.04-4.45.59-1.06-.31-1.71-1.93-2.65-2.12-2.04-.4-4.79,2.6-6.29-1.79h-1.59c-1.58,4.45-4.54-.79-4.88-.82-1.5-.12-2.72,1.19-5.14.53-1.56-.43-1.49-2.07-2.04-2.12-1.46-.13-3.51,1.31-5.31.88-.9-.21-1-2.28-1.77-2.45-.71-.15-2.24,2.1-5.33.74-.71-.31-.66-1.51-1.13-1.56-1.32-.14-2.83,1.22-4.49.73-1.07-.32-1.72-1.93-2.72-2.18-1.31-.32-2.88,1.04-4.46.59-1.09-.31-1.93-2.12-2.55-2.1-.9.03-1.31,2.1-4.57.54-.62-.3-.64-1.51-1.14-1.56-1.64-.17-6.47,2.75-5.91-1.97.26-2.21,3.25-1.36,2.47-3.98-.17-.58-2.72.52-.74-3.76.29-.62,1.51-.64,1.55-1.14.1-1.15-1.03-2.48-.72-3.72.52-2.1,3.27-1.37.62-6.08-3.79-1.08-8.82,4.32-9.88.73-2.8,2.33-4.33,4.28-7.96,1.59-1.8,4.62-4.39,1.3-7.08,1.57-.58.06-.56,1.33-1.05,1.63-2.84,1.71-4.17-.2-6.12-.04-.57.05-.55,1.34-1.05,1.63-4.24,2.47-2.97-1.53-4.62-.79-1.65,4.64-4.65,1.1-7.02,1.71-1.01.26-1.65,1.86-2.72,2.17-1.66.49-3.17-.85-4.5-.74-.57.05-.55,1.34-1.05,1.63-4.24,2.48-2.97-1.54-4.62-.79-1.3,2.97-2.81,2.74-5.89,2.29-1.86-2.21.84-5.27.71-5.87-.16-.75-2.25-.88-2.45-1.77-.37-1.61.96-3.68.75-4.59-.23-.97-2.2-.95-2.36-1.77-.24-1.21.83-2.71.78-3.89-.06-1.48-2.16-3.11-1.97-4.74.07-.67,1.33-1.44,1.18-2.28s-1.88-1.55-2.21-2.68c-.48-1.66.84-3.15.74-4.51-.04-.54-1.79-.51-2.13-2.04-.38-1.7.57-2.93.32-4.24-.2-1.07-1.76-2.37-1.88-3.73-.1-1.11,1.33-1.87,1.18-2.74-.14-.76-1.72-1.48-2.15-2.67-1.65-4.57,2.78-4.97,5.8-2.61,1.64-4.73,4.95-1.03,7.1-1.67.97-.29,1.02-1.89,1.44-2.15,1.8-1.13,4.88.82,6.5.66.58-.06.56-1.33,1.05-1.63,2.84-1.71,4.17.2,6.12.04.56-.05.56-1.34,1.06-1.64,2.57-1.55,4.46.44,6.86.02.6-.11.59-1.74,2.09-2.1,2.03-.49,3.53.77,5.09.51.51-.08.47-1.26,1.16-1.55,3.59-1.53,10.84-1.13,15.14-3.19,3.29-1.58,4.23.59,5.36.52.59-.04,2.29-2.48,4.32-2.63,1.16-.09,1.99,1.44,2.82,1.26.3-.07,1.66-3.56,4.84-2.99,2.69.48-.1,5.47.56,6.77ZM77.72,114.34c-.99-1.68.64-3.59.38-4.9-.2-.96-1.82-1.59-2.1-2.63-.39-1.44,1.49-3.68.29-5.02-1.6.52-2.43,2.99-4.1,3.01-1.41.02-2.46-1.26-3.09-1.22-.71.04-1.5,2.01-3.21,2.23-1.6.21-3.31-1.04-4.59-.72-1.01.26-1.66,1.88-2.72,2.18-1.54.44-2.99-.84-4.43-.55-1.05.21-2.13,1.88-3.55,2.14-1.68.31-3.22-.88-4.45-.58-1,.25-1.66,1.88-2.71,2.18-1.54.44-2.94-.85-4.43-.55-1.2.24-2.23,2.14-4.19,2.23-1.27.06-2.66-.95-3.8-.67-1.01.25-1.66,1.89-2.7,2.16-1.18.31-3.1-.78-4.65-.77-1.46.01-1.2,1.87-2.69,2.15-1.69.32-3.31-.87-5.08-.35-1.1.32-1.81,2.01-2.68,2.17-1.21.23-2.19-1.42-3.54-1.14-1.26.26-2.96,2.58-4.32,2.59-1.13,0-2.12-1.75-3.58-1.34-.79,2.27,1.94,3.24,2.29,4.54.46,1.74-1.36,3.06-1.3,3.84.05.71,1.79,1.45,2.09,2.55.4,1.43-.76,2.82-.37,4.25.28,1.04,1.74,1.99,1.96,2.95.39,1.66-1.31,2.47-1.32,3.01-.01.57,1.79,1.45,2.11,2.55.53,1.84-.72,3.4-.51,4.52.19,1.01,2.08,1.62,2.24,3.28.12,1.31-1.03,2.87-.89,3.87.11.78,2.11.74,2.41,1.79s-.87,2.6-.75,3.88c.18,1.94,2.74,3.99.8,7.6,2.14.66,4.5-2.13,5.98-2.11.84.01,1.78,1.17,2.38,1.12.77-.06,1.48-1.82,2.54-2.08,1.25-.31,2.73.96,4.42.56,1.12-.26,2.24-2.03,3.39-2,.93.02,1.97,1.44,3.08,1.23.89-.17,1.59-1.89,2.67-2.19,1.4-.38,2.73.7,3.72.52s1.61-2.09,3.28-2.23c1.22-.11,2.6,1,3.82.7,1-.25,1.66-1.88,2.71-2.18,1.54-.44,3,.84,4.42.55,1.08-.22,2.18-2,3.37-1.99.92,0,2.05,1.38,3.15,1.39.64,0,.55-1.98,1.73-2.38,1.7-.57,3.45.77,4.6.55.93-.18,1.59-1.8,2.65-2.1,1.6-.46,2.97.51,4.5.38,2.77-.23,4.04-1.22,1.55-3.74l-59.5,11.12-8.43-40.53,65.67-12.82,1.86,1.39,4.92,22.57c-.89-1.98,1.64-2.62,1.64-2.8-.02-1.21-1.57-1.97-1.68-3.22-.14-1.62,1.38-2.58,1.39-3.15.01-.66-1.8-1.98-2.01-3.34-.41-2.77,1.2-1.24-.68-4.42ZM53.57,136.07c.83,1.24,1.16,2.69,2.38,3.19.72-3.66-3.59-8.38-.8-11.58,2.22-2.54,7.28,1.62,10.36-.38v4.78s6,1.61,6,1.61c.76-2.79,3.68-1.7,5.95-.8v-2.39s-6.36.79-6.36.79c1.38-2.44,3.57-2.38,5.56-.79l-4.01-22.3-64.53,13.14,2.43,15.55c4.29-2.08,4.89.29,7.57,1.58,1.94.94.34-1.6.74-2.35.28-.52,2.93-3.09,3.34-3.16,5.18,2.03.4,2.89-1.3,5.51,5.12-1.19,9.15-1.29,14.33,0,.22-1.23-.69-2.17-1.54-2.84-1.32-1.05-3.09-.65-3.24-1.93l4.77-1.59c.23,1.59-2.05-.13-1.59,1.98.17.77,1.03.58,1.61.02,1.36-1.3,4.73-10.81,5.57-13.17l4.76,4.39c.41,1.95-.9.87-1.59,1.19v-1.59s-3.98.8-3.98.8v.78s3.98,0,3.98,0c-2.04.94-4.11.66-4.78,2.39h1.59c-.02,1.37-.43,4.22,1.29,4.74l5.88-1.55c1.7-1.77-5.8-4.14-7.17-3.18l2.78-.8h6.79s0-3.2,0-3.2h3.18c-.51,3.68.08,7.64,0,11.17-4.93-7.34-3.85-2.08-2.4,2.81.34,1.16-.49,1.4,1.61,1.18-.07.02-.32.7-1.13.9-2.96.75-11.58,3.44-13.83,2.96-.24-.18-.11-.62-.17-.67h2.39s-1.6-7.17-1.6-7.17c-4.37.14-.07,4.21-.79,7.17-1.52-1.2-1.33-2.02-1.67-3.91l-9.47-.87,2.34.82.05,3.16c1.31-.68,2.66-1.06,3.18.78l-3.03.4.64,1.19c-1.92.69-3.58.74-5.58.81.11-.45-.07-1.08,0-1.6,1.16.41,2.75,1.46,3.6,0l-.57-3.84-7.81-.94c1.74,2.3,1.33,3.73.8,6.37,1.43-.74,2.89.04,3.98,0-.3,1.27.1,2.32,0,2.38-1.86,1.28-1.2-2.19-2.74-1.55l-6.02,2.35c.03-2,4.46-.52,3.92-2.72-.79-3.25-3.48-3.09-6.32-2.86l.62-1.46-1.4-.13v-1.58s1.39-.14,1.39-.14l-.62-1.46,2.4-.8h-4.77c2.15,5.11,1.99,16.76,4.14,20.95.45.88.65,1.43,1.82,1.39l41.04-8.01c-1.94-2.92-2.99-3.29-2-7.17.75-1.65,2.41,1.08,2.8,1.59.22-1.43-.64-1.85,1.59-1.6l.8,3.98c-2.09.4-1.22-.84-2.39-2.38-.07.47.21,1.04-.06,1.53l-2.32.86,1.59,2.39c.82.42,13.22-2.22,15.15-2.77,4.82-1.38,6.17-1.83,1.59-5.19l-.02,3.18-2.38-2.38.36,2.37-4.34.82-.79-2.4-.4,3.18-2.79-1.59-.79,1.59-.8-4.77,3.17,1.59.8-2.39.02,2.39,2.77-1.6,1.61,2.41c.08-5.1,5.71-2.09,5.97-2.39.16-.19-.27-3.05,2.38-3.59-1.75-1.3-1.71-3.16-1.59-5.18-3.25-1.42-4.84,1.38-5.37,1.54-3.57,1.05-8.41,1.81-12.15,2.44l9.56-4.77-3.98-.82-.8,2.4c1.01-4.26-4.72-1.8-7.18-2.39-.35,3.57-.35,4.31,2.39,6.37-2.07.51-5.32.34-7.17.81.85-1.33.77-2.5.8-3.99ZM85.58,119.98c-.4-.24-.59-2.06-1.34-2.25l-1.95,1.23c1.91,2.93-.33,4.12-.67,5.75-.49,2.33-.71,6.87-.97,9.33-.47,4.41-2.92,10.05-3.8,14.59-.23,1.2.58,2.37.47,3.63-.2,2.11-2.23,2.14-2.24,2.6-.02,1.19,1.26,2.76.83,4.59-.14.6-1.61.5-1.66,1.02-.11,1.12,1.04,2.48.74,3.74-.26,1.08-2.09,1.84-2.22,2.65-.16,1,1.48,1.83,1.41,2.96-.09,1.56-2.58,2.69-2.27,4.51,4.18-2.51,6.43,1.61,6.83,1.62,1.01,0,2.29-1.06,3.88-.85,1.7.22,2.64,2.27,3.21,2.25.88-.03,1.58-2.5,4.64-.61.5.31.5,1.58,1.06,1.63,1.33.11,2.84-1.23,4.5-.74,1.1.32,1.8,2.02,2.68,2.18,1.19.23,2.22-1.45,3.54-1.15.92.21,1.89,1.67,2.93,1.92,1.66.4,3.1-.82,5.03-.36,1.54.36,1.51,2.09,2.04,2.13,1.19.09,2.58-.98,3.87-.86,1.66.15,2.28,2.05,3.28,2.24,1.86.34,7.87.15,10.18.38,1.4.14,2.36,1.82,3.46,2.04,1.24.25,2.48-.82,3.65-.54,1.05.25,1.74,2,2.65,2.18,1.2.23,2.2-1.44,3.54-1.15,1.13.24,2.31,2.26,3.5,2.05,2.4-.42-.72-2.76-.31-4.23.28-1,1.97-1.67,2.14-2.64s-.92-2.33-.52-3.73c.62-2.21,2.85-6.18,3-8.9.05-.91-.85-2.02-.6-3.08s2.04-1.8,2.09-2.53-1.54-1.91-1.3-3.09c.18-.92,1.93-1.6,2.11-2.59s-.91-2.33-.53-3.73c.3-1.09,2.04-1.82,2.1-2.56.05-.62-1.12-1.56-1.14-2.39-.02-1.18,1.77-2.28,1.99-3.38.25-1.24-.81-2.48-.54-3.65.25-1.08,2.06-1.81,2.22-2.65.19-.98-1.62-1.94-1.47-2.98.16-1.1,2.85-1.89,2.32-3.69-3.69,1.98-4.73-1.22-6.08-1.5-1.18-.24-2.35,1.35-3.09,1.3-.69-.04-1.47-1.8-2.55-2.11-1.58-.45-3.16.92-4.46.59-2.63-.67-.95-1.02-5.69-1.5-2.27-.23-7.94-2.66-9.78-3.03-1.24-.25-2.48.81-3.65.54-1.08-.25-1.8-2.07-2.65-2.21-.93-.16-1.73,1.45-2.73,1.2-2.13-.52-5.72-2.17-8.45-2.61-3.82-.63-5.48-.87-9.46-.96-1.48-.03-1.07-1.63-1.68-1.72-1.51-.24-3.19,1.06-4.51.72-1.03-.26-1.67-1.9-2.7-2.16-1.45-.37-3.56,1.34-4.89.54ZM57.57,130.48l-1.21-2.38-1.19,3.98,7.96-.8c.3-2.21-4.77-5.08-3.97-1.38.25.93-1.43.71-1.59.58ZM51.98,128.89h-3.18s0,1.18,0,1.18c.84,1.25,1.71,1.39,3.17,1.2v-2.38ZM48.79,133.67l-7.15,1.63,1.53,6.01,5.63-.47-.82-3.57,1.6,1.18-.79-4.78ZM40.82,136.06l-1.58.39,2.37,5.99-.79-6.38ZM19.31,140.85h-4.77s0,.79,0,.79l4.77.8v-1.59Z"/>
          <path class="cls-1" d="M44.01,126.5c.68-.31,2,.76,1.59-1.19l-4.76-4.39c-.85,2.35-4.21,11.87-5.57,13.17-.59.56-1.44.75-1.61-.02-.46-2.11,1.82-.39,1.59-1.98l-4.77,1.59c.14,1.28,1.92.88,3.24,1.93.84.67,1.76,1.61,1.54,2.84-5.18-1.29-9.21-1.2-14.33,0,1.7-2.62,6.48-3.49,1.3-5.51-.41.07-3.06,2.64-3.34,3.16-.4.75,1.2,3.28-.74,2.35-2.68-1.29-3.29-3.66-7.57-1.58l-2.43-15.55,64.53-13.14,4.01,22.3c-2-1.59-4.19-1.65-5.56.79l6.36-.79v2.39c-2.27-.9-5.2-1.99-5.95.8l-5.99-1.61v-4.78c-3.09,2.01-8.15-2.16-10.37.38-2.8,3.2,1.52,7.92.8,11.58-1.22-.49-1.55-1.95-2.38-3.19-.03,1.48.06,2.65-.8,3.99,1.85-.46,5.1-.3,7.17-.81-2.74-2.06-2.74-2.8-2.39-6.37,2.46.59,8.19-1.87,7.18,2.39l.8-2.4,3.98.82-9.56,4.77c3.74-.63,8.58-1.39,12.15-2.44.53-.15,2.11-2.96,5.37-1.54-.12,2.02-.16,3.88,1.59,5.18-2.65.53-2.22,3.4-2.38,3.59-.26.3-5.89-2.71-5.97,2.39l-1.61-2.41-2.77,1.6-.02-2.39-.8,2.39-3.17-1.59.8,4.77.79-1.59,2.79,1.59.4-3.18.79,2.4,4.34-.82-.36-2.37,2.38,2.38.02-3.18c4.58,3.37,3.23,3.81-1.59,5.19-1.93.55-14.32,3.19-15.15,2.77l-1.59-2.39,2.32-.86c.27-.49-.01-1.06.06-1.53,1.17,1.54.29,2.78,2.39,2.38l-.8-3.98c-2.23-.25-1.36.17-1.59,1.6-.39-.52-2.05-3.24-2.8-1.59-.99,3.88.06,4.25,2,7.17l-41.04,8.01c-1.16.04-1.37-.51-1.82-1.39-2.16-4.2-1.99-15.84-4.14-20.96h4.77s-2.4.8-2.4.8l.62,1.46-1.39.14v1.58s1.4.13,1.4.13l-.62,1.46c2.84-.22,5.53-.39,6.32,2.86.53,2.2-3.89.72-3.92,2.72l6.02-2.35c1.54-.64.88,2.83,2.74,1.55.1-.07-.3-1.11,0-2.38-1.09.04-2.55-.75-3.98,0,.53-2.64.94-4.07-.8-6.37l7.81.94.57,3.84c-.85,1.45-2.44.41-3.6,0-.08.51.1,1.15,0,1.6,2-.07,3.66-.12,5.58-.81l-.64-1.19,3.03-.4c-.52-1.85-1.87-1.46-3.18-.78l-.05-3.16-2.34-.82,9.47.87c.34,1.89.15,2.7,1.67,3.91.72-2.96-3.58-7.03.79-7.17l1.6,7.17h-2.39c.06.05-.06.5.17.68,2.26.48,10.87-2.21,13.83-2.96.81-.21,1.06-.89,1.13-.9-2.1.23-1.27-.02-1.61-1.18-1.44-4.89-2.53-10.15,2.4-2.81.07-3.52-.52-7.48,0-11.16h-3.18s0,3.2,0,3.2h-6.79s-2.78.79-2.78.79c1.37-.96,8.87,1.41,7.17,3.18l-5.88,1.55c-1.72-.51-1.31-3.36-1.29-4.73h-1.59c.67-1.73,2.75-1.45,4.78-2.39h-3.98s0-.79,0-.79l3.97-.8v1.59ZM71.1,111.35l-7.1.85-.07,3.93c-1.7-.02-.84-1.94-1.25-2.39-1.6-1.75-3.67-.62-3.51,1.6l2.38-1.59-.65,2.29,1.44.1v1.58s-3.17.79-3.17.79c3.29,1.13,4.91-2,8.81-1.13l3.13-6.03ZM29.67,120.92l-2.38-1.6-.4,3.98-2.39-3.17-1.19,4.77,5.57-.8-.79-2.39,3.17,2.39-.8-4.78-.79,1.59ZM14.54,125.7l-.8-3.19-1.99,2.39-1.99-1.59.8,3.98,1.19-1.6,2.39,1.6.39-1.59,3.84.65,1.73-4.64-1.18,1.59-3.58-2.39-.8,4.78ZM73.49,137.67l-5.57,1.18c1.13,1.74,4.97.43,5.57-1.18ZM54.37,145.64l-3.19,3.18-2.37-2.39,2.78,4.78,1.2-4.77,1.58,3.98v-4.78ZM43.22,150.42c-.95-.84-2.05-2.94-3.86-.64-.35.45-.06,1.02-.13,1.44-.02-.04-.6.08-.67-.11-.43-1.2.57-3.21-.92-3.07l-.02,4.78c-1.5.26-.36-1.54-.93-2.22-.31-.36-2.26-.35-3.03-.97v3.99s-2.39,0-2.39,0l1.6-1.99-2.39-.39c-.29,5.74,1.58,2.89,4.77,3.19l.02-3.19.8,2.4h3.17c.1-.78-.12-1.67,0-2.4.14.28,1.06,1.83,1.59,1.59l.79-2.38,1.6,2.39c.06-.79-.06-1.6,0-2.39.9.79.55,1.72,1.59,1.59l.79-2.38,1.6,2.39c.12-2.41-1.79-3.7-3.58-4.78-.82.49-.31,2.25-.39,3.18ZM25.57,152.99c-.2-.29-2.23-1.29-2.69-.21l-.38,3.21-2.38-2.38.91,3.05,2.67.15.4-2.41,1.3,1.6h2.67s-.8-3.99-.8-3.99l-.79,3.18c-1.47.25-.43-1.49-.91-2.21ZM19.27,152.85l-3.59.74.49,3.96,3.93.04-.84-4.73Z"/>
          <path class="cls-1" d="M138.82,156.79c-.62-.7-1.72-1.1-1.6-2.38l-1.58,1.58-1.59-3.59c3.01-3.28,3.61.47,5,1.79.39.37,1.25.11,1.36.21-.37.95.01,2.03-1.59,2.39Z"/>
          <path class="cls-1" d="M138.82,156.79c.13.15-.13.67,0,.8-1-.02-4.79.33-4.79-.4,1.14-.98,3.44-.09,4.79-.4Z"/>
          <path class="cls-1" d="M85.58,119.98c1.33.8,3.44-.92,4.89-.54,1.03.27,1.67,1.9,2.7,2.16,1.31.34,3-.96,4.51-.72.61.1.2,1.69,1.68,1.72,3.98.08,5.64.33,9.46.96,2.73.45,6.32,2.09,8.45,2.61.99.24,1.79-1.37,2.73-1.2.84.15,1.56,1.96,2.65,2.21,1.17.27,2.41-.79,3.65-.54,1.84.37,7.5,2.8,9.78,3.03,4.75.48,3.06.83,5.69,1.5,1.29.33,2.88-1.04,4.46-.59,1.08.31,1.86,2.06,2.55,2.11.73.05,1.91-1.54,3.09-1.3,1.35.27,2.39,3.48,6.08,1.5.53,1.8-2.17,2.59-2.32,3.69s1.66,2,1.47,2.98c-.16.84-1.97,1.56-2.22,2.65-.27,1.17.79,2.41.54,3.65-.22,1.1-2.01,2.2-1.99,3.38.02.83,1.19,1.77,1.14,2.39-.06.74-1.79,1.47-2.1,2.56-.39,1.4.71,2.75.53,3.73s-1.93,1.67-2.11,2.59c-.24,1.18,1.35,2.36,1.3,3.09s-1.84,1.47-2.09,2.53.65,2.17.6,3.08c-.15,2.72-2.38,6.69-3,8.9-.39,1.4.7,2.73.52,3.73s-1.87,1.64-2.14,2.64c-.41,1.47,2.71,3.81.31,4.23-1.19.21-2.37-1.81-3.5-2.05-1.34-.29-2.34,1.38-3.54,1.15-.91-.18-1.6-1.93-2.65-2.18-1.17-.27-2.41.79-3.65.54-1.09-.22-2.06-1.89-3.46-2.04-2.32-.24-8.32-.04-10.18-.38-1-.18-1.62-2.08-3.28-2.24-1.29-.12-2.68.95-3.87.86-.53-.04-.5-1.77-2.04-2.13-1.93-.46-3.37.76-5.03.36-1.04-.25-2.01-1.71-2.93-1.92-1.32-.3-2.35,1.37-3.54,1.15-.88-.17-1.58-1.86-2.68-2.18-1.66-.49-3.17.85-4.5.74-.56-.05-.56-1.32-1.06-1.63-3.06-1.89-3.76.58-4.64.61-.57.02-1.51-2.03-3.21-2.25-1.6-.21-2.88.86-3.88.85-.39,0-2.64-4.12-6.83-1.62-.31-1.82,2.17-2.95,2.27-4.51.07-1.13-1.57-1.96-1.41-2.96.13-.81,1.96-1.57,2.22-2.65.31-1.26-.85-2.62-.74-3.74.05-.52,1.52-.42,1.66-1.02.43-1.83-.85-3.4-.83-4.59,0-.46,2.05-.49,2.24-2.6.12-1.27-.7-2.43-.47-3.63.88-4.54,3.33-10.18,3.8-14.59.26-2.46.48-7,.97-9.33.34-1.63,2.58-2.81.67-5.75l1.95-1.23c.74.2.93,2.01,1.34,2.25ZM86.24,123.31l65.94,13.92-9.39,45.88-22.3-4c2.05-2.46-.47-4.73,3.18-3.98.04,1.58-.63,2.85,1.59,2.38v-4.78s-1.99,1.58-1.99,1.58c-1.44.06.38-3.18-1.59-2.39-.86.34.31,2.27-1.99,1.61v-2.39c-2.97-.79-2.22,1.67-3.98,2.39l-1.59-3.18.8,5.58,3.97-3.99-.78,3.99c2.26-1.57,3.8,2.55,1.19,2.4-13.04-.76-28.52-6.73-41.84-7.99l5.95-31.12c4.69-1.85,5.22,4,6.74,5.86s5.87.75,8.02,1.33l-3.18-3.59c3.44-.83,4.02,5.32,7.87,5.28l-.71,7.08-1.19-3.99-.39,4h-6.38s2.39-7.97,2.39-7.97c-3.19.9-7.25,1.55-8.77-2.01l1.59-1.18h-3.18s.84,3.92.84,3.92l5.55,1.25c1.72,1.26.1,4.13-.1,5.9l-7.08.89h23.1v-6.37s-1.68,5.49-1.68,5.49l-3.89-.3.78-6,5.57-.78c-3.47-1.16-9.66,0-9.16-4.79,2.41,2.91,4.97,2.68,8.37,3.18l-5.57-4.79,5.07-3.13c.33.1,4.29,4.96,4.37,5.29.49,2.06-2.27,9.44-2.26,12.2,2.27.38,1.33-.48,1.7-1.84.55-2.01.86-4.03.69-6.12l3.98.8-3.18.8,1.63,1.3-.84,5.87h13.94c.13,0,2.33.78,1.99,1.59-3.65.7-7.31-.89-10.75-.86-2.26.02-4.27.91-6.34.9-9.58-.03-18.8-.67-28.31-1.62l2.38,1.58-4.77.8,10.35-.78-3.18,2.38,4.78-.78-3.98,3.17,7.96-2.39-4.36-2.4c3.48,1.26,8.5.71,11.77,1.64.69.2.56,1.53,1.04,1.61,2.31.35,5.73-3.95,9.08-2.43l-3.98,2.39,2,2.39,3.18-4.78.4,2.4,3.59-2.39.79,2.4.8-2.41.41,3.19.79-3.18,1.58.02c1.94,4.9,6.56-4.08,9.97,1.58l.8-1.64,3.97,1.64-.4-1.6,2.8-.03.79,2.41,3.58-3.18h-6.82c-.74.16-.86-.55-1.14-.81,2.65.06,5.32-.03,7.96,0-.37-1.77-3.8-.37-5.08-.74-.68-.2-.46-1.64-1.29-2.44.14-.35-.15-.85,0-1.17l1.59-.41c.84,3.32,3.03,3.05,5.59,1.57-1.37-3.65-4.93-1.8-7.53-2.42s-5.58-1.63-8.41-2.35c0,.53.01,1.06,0,1.59l-2.38-1.2v-1.18c1.18-.4,1.72.63,2.38.79,0-.64.28-1.33-.46-1.67-2.18-.8-4.71-.49-6.7-1.92-1.6-1.15-2.14-3.69-4.04-4.72-3.25-1.77-9.32-1.55-12.45-5.13-1.12-.17-4.73,3.81-6.61,4.35-3.06.88-5.13-2.06-6.02,1.17-4.27-.91-6.71-5.16-11.52-4.03l2.39-14.35-9.22,47.89,67.38,12.7,8.42-47.87-66.58-12.73ZM95,131.28c.53-.02,1.37-1.11,1.59-.81l.8,2.4.8-4.77-1.58,1.58-1.99-3.05-2.79,1.46-.79-1.59-.4,1.61h-1.61s-1.18-1.61-1.18-1.61l-.8,3.97,3.18-1.59.79,2.4.8-2.38,2,3.97c.56-.4.89-.98,1.19-1.58-4.07.17-2.01-5.3.78-1.99-.87.46-.59,1.61-.78,1.99ZM103.76,133.67l-1.18-4.78-2.79,3.98,3.98.8ZM107.74,132.08c-.79.6-1.56-2.56-1.98-2.39l-1.19,4.78,1.19-2.4,1.98,2.4.82-3.57c-1.18-1.5-.67,1.08-.82,1.18ZM140.41,136.87c-2.3-.41-3.4,1.34-4.77,2.8l2.76,2.67c3.12-1.86,2.61.44,3,.66,2.25,1.29,4.16-.46,3.81-2.94,3.57,3.58,5.9-3.14.34-.91l-.81-1.51c-3.78-.89-2.36,2.67-5.11,2.41l.79-3.18ZM86.11,148.16l-3.06-.92,2.4,4.77c1.43.22.87-3.5.66-3.85ZM103.76,161.59c-1.42-.09-3.4.89-3.98,2.38,1.79.29,3.34-.71,3.98-2.38ZM106.15,162.38c-1.44-.26-2.61,1.08-3.19,2.38,1.44.26,2.61-1.08,3.19-2.38ZM121.03,166.9c.67-.53.94-1.97,1.84-2.53l-3.17-1.19c-.41,1.14,3.17.65,1.59,2.37-.54.58-3.94-.12-3.18,2.4.84-.51,2.31-.58,2.92-1.06ZM84.62,164.85l-3.96-.88-.8,4.78,7.55,1.65,1.2-1.64c.22,2.01,1.15,2.75,3.19,2.38l.8-3.19-2.37,1.59c0-1.57-.36-3.51-2.39-3.19l-1.59,3.18-.02-3.18-.8,1.59-1.21-.79.4-2.32ZM100.16,168.33l-1.19,1.22c-2.96-2.29-5.24-1.25-3.97,2.38h2.38c.49-.97-3.43-.97-1.59-2.38.24-.19,1.72.1,2.38-.01v3.19s2.39-2.39,2.39-2.39l.8,2.39c.1-2.23.6-2.83-1.2-4.4ZM103.76,171.94v-3.19s-.79,0-.79,0l-.8,3.99,1.59-.8v1.59s2.38-2.39,2.38-2.39v2.4c.54-.25,1.13-.46,1.6-.81.08.51-.35,1.65.4,1.59l1.6-2.4.79,2.4c2.94-2.64.35-3.48-1.98-4.78.01,2.25.42,2.28-.8,3.19-.11-.73.16-1.58-.05-2.34l-2.63-.07-1.29,1.61ZM130.06,175.92l-2.01-1.6-.38,4,1.19-2.4,2.78,2.4v-3.98s-1.58,1.58-1.58,1.58ZM135.63,177.52c-.03-.53.04-1.06,0-1.59h-3.19s0,3.18,0,3.18c2.42.57,2-.67,3.19-1.59.04.79-.04,1.6,0,2.39l1.6-2.39.79,2.38,1.98-1.59-.38,2.39,1.58-1.21c.76-2.93-2.71-2.64-4.43-3.5-.49.57-.42.96-1.14,1.52Z"/>
          <path class="cls-1" d="M77.72,114.34c1.89,3.18.27,1.65.68,4.42.2,1.36,2.02,2.68,2.01,3.34-.01.58-1.53,1.53-1.39,3.15.11,1.25,1.66,2.02,1.68,3.22,0,.18-2.53.82-1.64,2.8l-4.92-22.57-1.86-1.39L6.61,120.15l8.43,40.53,59.5-11.12c2.49,2.52,1.22,3.51-1.55,3.74-1.53.13-2.9-.84-4.5-.38-1.06.3-1.72,1.92-2.65,2.1-1.15.22-2.9-1.12-4.6-.55-1.18.4-1.08,2.39-1.73,2.38-1.1-.01-2.23-1.38-3.15-1.39-1.19,0-2.28,1.77-3.37,1.99-1.42.29-2.89-.99-4.42-.55-1.06.3-1.71,1.93-2.71,2.18-1.23.3-2.6-.81-3.82-.7-1.67.15-2.27,2.06-3.28,2.23s-2.33-.91-3.72-.52c-1.09.3-1.79,2.02-2.67,2.19-1.11.21-2.15-1.21-3.08-1.23-1.15-.03-2.27,1.74-3.39,2-1.69.4-3.17-.87-4.42-.56-1.06.26-1.77,2.02-2.54,2.08-.6.05-1.54-1.11-2.38-1.12-1.48-.02-3.84,2.77-5.98,2.11,1.94-3.61-.62-5.66-.8-7.6-.12-1.28,1.05-2.8.75-3.88s-2.3-1-2.41-1.79c-.14-1,1.01-2.56.89-3.87-.16-1.67-2.05-2.28-2.24-3.28-.21-1.12,1.04-2.69.51-4.52-.31-1.1-2.12-1.98-2.11-2.55.01-.54,1.71-1.35,1.32-3.01-.22-.96-1.68-1.91-1.96-2.95-.39-1.43.77-2.81.37-4.25-.31-1.1-2.04-1.85-2.09-2.55-.06-.78,1.76-2.1,1.3-3.84-.35-1.31-3.08-2.27-2.29-4.54,1.46-.41,2.45,1.34,3.58,1.34,1.36,0,3.07-2.33,4.32-2.59,1.35-.28,2.33,1.37,3.54,1.14.87-.16,1.57-1.85,2.68-2.17,1.77-.52,3.39.67,5.08.35,1.5-.28,1.23-2.14,2.69-2.15,1.55-.01,3.47,1.08,4.65.77,1.04-.27,1.68-1.91,2.7-2.16,1.14-.28,2.53.72,3.8.67,1.96-.09,3-1.99,4.19-2.23,1.48-.29,2.89.99,4.43.55,1.06-.3,1.71-1.93,2.71-2.18,1.22-.3,2.76.89,4.45.58,1.42-.26,2.5-1.93,3.55-2.14,1.43-.28,2.89.99,4.43.55,1.05-.3,1.7-1.92,2.72-2.18,1.28-.32,2.99.92,4.59.72,1.71-.22,2.51-2.19,3.21-2.23.63-.04,1.67,1.24,3.09,1.22,1.67-.02,2.5-2.5,4.1-3.01,1.2,1.34-.67,3.58-.29,5.02.28,1.04,1.9,1.67,2.1,2.63.27,1.31-1.37,3.22-.38,4.9Z"/>
          <polygon class="cls-1" points="48.79 133.67 49.58 138.45 47.98 137.28 48.8 140.84 43.17 141.31 41.64 135.3 48.79 133.67"/>
          <path class="cls-1" d="M51.98,128.89v2.38c-1.47.19-2.34.05-3.18-1.2v-1.18s3.18,0,3.18,0Z"/>
          <polygon class="cls-1" points="40.82 136.06 41.62 142.44 39.25 136.45 40.82 136.06"/>
          <path d="M86.24,123.31l66.58,12.73-8.42,47.87-67.38-12.7,9.22-47.89-2.39,14.35c4.81-1.12,7.25,3.12,11.52,4.03.89-3.23,2.96-.28,6.02-1.17,1.88-.54,5.49-4.53,6.61-4.35,3.13,3.59,9.19,3.37,12.45,5.13,1.91,1.04,2.44,3.57,4.04,4.72,1.99,1.43,4.52,1.12,6.7,1.92.74.34.46,1.04.46,1.67-.66-.17-1.21-1.2-2.39-.79v1.18s2.38,1.2,2.38,1.2c.02-.53,0-1.06,0-1.59,2.83.71,5.87,1.74,8.41,2.35s6.16-1.23,7.53,2.42c-2.57,1.48-4.75,1.76-5.59-1.57l-1.59.41c-.14.31.14.82,0,1.17-.11-.1-.96.16-1.36-.21-1.39-1.31-1.99-5.07-5-1.79l1.59,3.59,1.58-1.58c-.11,1.29.98,1.69,1.6,2.38-1.35.31-3.64-.58-4.79.4,0,.73,3.79.38,4.79.4.27.26.4.96,1.14.82h6.82s-3.58,3.17-3.58,3.17l-.79-2.41-2.8.03.4,1.6-3.97-1.64-.8,1.64c-3.41-5.66-8.03,3.33-9.97-1.58l-1.58-.02-.79,3.18-.41-3.19-.8,2.41-.79-2.4-3.59,2.39-.4-2.4-3.18,4.78-2-2.39,3.98-2.39c-3.35-1.52-6.77,2.78-9.08,2.43-.49-.07-.36-1.41-1.04-1.61-3.28-.93-8.3-.38-11.77-1.64l4.36,2.4-7.96,2.39,3.98-3.17-4.78.78,3.18-2.38-10.35.78,4.77-.8-2.38-1.58c9.51.95,18.73,1.59,28.31,1.62,2.07,0,4.08-.89,6.34-.9,3.44-.03,7.1,1.56,10.75.86.34-.81-1.86-1.59-1.99-1.59h-13.94l.84-5.87-1.63-1.3,3.18-.8-3.98-.8c.16,2.09-.14,4.11-.69,6.12-.37,1.36.58,2.22-1.7,1.84,0-2.76,2.75-10.14,2.26-12.2-.08-.33-4.04-5.19-4.37-5.29l-5.07,3.13,5.57,4.79c-3.4-.5-5.96-.26-8.37-3.18-.5,4.79,5.69,3.63,9.16,4.79l-5.57.78-.78,6,3.89.3,1.67-5.49v6.37s-23.1,0-23.1,0l7.08-.89c.2-1.77,1.82-4.64.1-5.9l-5.55-1.25-.84-3.92h3.18s-1.59,1.18-1.59,1.18c1.52,3.56,5.57,2.91,8.77,2.01l-2.39,7.96h6.38s.39-3.99.39-3.99l1.19,3.99.71-7.08c-3.85.05-4.43-6.1-7.87-5.28l3.18,3.59c-2.15-.58-6.54.48-8.02-1.33s-2.05-7.71-6.74-5.86l-5.95,31.12c13.32,1.26,28.8,7.23,41.84,7.99,2.61.15,1.07-3.97-1.19-2.4l.78-3.99-3.97,3.99-.8-5.58,1.59,3.18c1.76-.71,1.01-3.18,3.97-2.39v2.39c2.31.66,1.14-1.27,2-1.61,1.97-.79.16,2.45,1.59,2.39l1.98-1.58v4.78c-2.22.47-1.55-.81-1.59-2.38-3.66-.75-1.14,1.52-3.18,3.98l22.3,4,9.39-45.88-65.94-13.92ZM91.6,141c-.17-.2-1.63-.63-2.17-.95-.18.23,1.12,5.52,3.18,4.78-.5-.67-.87-3.68-1-3.83ZM121.29,144.83c-.07-3.6-4.55-3.3-7.16-3.98.9,3.72,4.02,3.24,7.16,3.98ZM124.48,149.61c-.56-2.52-10.09-6.02-11.15-3.57-.72,1.67,1.65,1.19,2.56,1.37,2.93.59,5.66,1.6,8.59,2.2ZM119.69,149.62c-3.67-1-2.94,4.15-3.17,6.37l3.17-6.37ZM122.88,150.42h-2.38c.7,2.06.76,3.52,0,5.58,2.6,1.01,2.63-5.33,2.38-5.58ZM126.87,152.81c1.66.18,1.81.09,1.59-1.59l-3.98-.8,2.38,2.39c-1.8-.49-2.33,1.57-2.39,3.18h2.38s0-3.18,0-3.18ZM134.04,154.41l-5.51-.76-.86,2.34c1.75-.52,6.99,1.47,6.38-1.58Z"/>
          <path d="M140.41,154.4c.84.8.62,2.24,1.29,2.44,1.27.37,4.71-1.03,5.08.74-2.65-.02-5.32.06-7.96,0-.13-.12.13-.65,0-.8,1.61-.37,1.22-1.44,1.59-2.39Z"/>
          <polygon points="54.37 145.64 54.36 150.41 52.79 146.44 51.59 151.21 48.8 146.43 51.18 148.82 54.37 145.64"/>
          <path d="M43.22,150.42c.08-.94-.43-2.69.39-3.18,1.79,1.08,3.7,2.37,3.58,4.78l-1.6-2.39-.79,2.38c-1.04.13-.69-.8-1.59-1.59-.07.79.06,1.6,0,2.39l-1.6-2.39-.79,2.38c-.52.24-1.44-1.31-1.59-1.59-.12.73.09,1.62,0,2.39h-3.17s-.8-2.39-.8-2.39l-.02,3.19c-3.19-.3-5.06,2.55-4.77-3.19l2.39.39-1.6,1.99h2.38s.01-3.98.01-3.98c.78.61,2.73.6,3.03.97.58.68-.57,2.48.93,2.22l.02-4.78c1.49-.14.49,1.87.92,3.07.07.2.65.07.67.11.07-.42-.22-.99.13-1.44,1.8-2.3,2.91-.2,3.86.64Z"/>
          <path d="M73.49,137.67c-.61,1.61-4.44,2.92-5.57,1.18l5.57-1.18Z"/>
          <path class="cls-1" d="M57.57,130.48c.15.13,1.83.34,1.59-.58-.8-3.7,4.27-.83,3.97,1.38l-7.96.8,1.19-3.98,1.21,2.38Z"/>
          <path class="cls-1" d="M124.48,149.61c-2.93-.59-5.66-1.61-8.59-2.2-.9-.18-3.27.31-2.56-1.37,1.05-2.46,10.59,1.05,11.15,3.57Z"/>
          <path class="cls-1" d="M121.29,144.83c-3.15-.74-6.26-.26-7.16-3.98,2.61.67,7.1.38,7.16,3.98Z"/>
          <path class="cls-1" d="M134.04,154.41c.61,3.05-4.63,1.07-6.38,1.58l.86-2.34,5.51.76Z"/>
          <path class="cls-1" d="M122.88,150.42c.25.24.22,6.59-2.38,5.58.76-2.06.7-3.51,0-5.57h2.38Z"/>
          <path class="cls-1" d="M119.69,149.62l-3.17,6.37c.23-2.22-.49-7.37,3.17-6.37Z"/>
          <path class="cls-1" d="M91.6,141c.13.15.51,3.16,1,3.83-2.06.75-3.36-4.54-3.18-4.78.54.32,2,.75,2.17.95Z"/>
          <path class="cls-1" d="M126.87,152.81l-2.38-2.39,3.98.8c.22,1.67.06,1.77-1.59,1.59v3.19s-2.39,0-2.39,0c.05-1.61.59-3.67,2.39-3.18Z"/>
          <path d="M140.41,136.87l-.79,3.18c2.76.26,1.34-3.3,5.11-2.41l.81,1.51c5.56-2.23,3.23,4.49-.34.91.35,2.48-1.56,4.23-3.81,2.94-.39-.22.12-2.52-3-.66l-2.76-2.67c1.37-1.46,2.47-3.2,4.77-2.8ZM143.59,142.44c.33-1.77,1.56-3.22-.78-3.98-.33,1.77-1.56,3.22.78,3.98Z"/>
          <path d="M84.62,164.85l-.4,2.32,1.21.79.8-1.59.02,3.18,1.59-3.18c2.03-.33,2.39,1.61,2.39,3.19l2.37-1.59-.8,3.19c-2.04.36-2.97-.37-3.19-2.38l-1.2,1.64-7.55-1.65.8-4.78,3.96.88Z"/>
          <path d="M95,131.28c-.3.6-.63,1.18-1.19,1.58l-2-3.97-.8,2.38-.79-2.4-3.18,1.59.8-3.97,1.18,1.61h1.61s.4-1.61.4-1.61l.79,1.59,2.79-1.46,1.99,3.05,1.58-1.58-.8,4.77-.8-2.4c-.22-.31-1.05.78-1.59.81.19-.38-.09-1.54.78-1.99-2.79-3.31-4.85,2.16-.78,1.99Z"/>
          <polygon points="103.76 133.67 99.78 132.87 102.57 128.89 103.76 133.67"/>
          <path d="M107.74,132.08c.14-.11-.36-2.68.82-1.18l-.82,3.57-1.98-2.4-1.19,2.4,1.19-4.78c.42-.17,1.19,2.99,1.98,2.39Z"/>
          <path d="M100.16,168.33c1.8,1.58,1.31,2.17,1.2,4.4l-.8-2.39-2.37,2.39v-3.19c-.67.12-2.15-.18-2.39.01-1.85,1.41,2.07,1.41,1.59,2.38h-2.38c-1.28-3.63,1-4.67,3.97-2.38l1.19-1.22Z"/>
          <path d="M103.76,171.94l1.29-1.61,2.63.07c.21.76-.06,1.61.05,2.34,1.22-.91.82-.94.8-3.19,2.33,1.3,4.92,2.14,1.98,4.78l-.79-2.4-1.6,2.4c-.75.06-.32-1.09-.4-1.59-.47.35-1.06.56-1.59.81v-2.4s-2.39,2.39-2.39,2.39v-1.59s-1.59.8-1.59.8l.8-3.99h.78s0,3.18,0,3.18Z"/>
          <path d="M86.11,148.16c.21.35.77,4.07-.66,3.85l-2.4-4.77,3.06.92Z"/>
          <path d="M103.76,161.59c-.64,1.67-2.19,2.67-3.98,2.38.58-1.48,2.56-2.46,3.98-2.38Z"/>
          <path d="M121.03,166.9c-.61.48-2.08.55-2.92,1.06-.76-2.52,2.64-1.82,3.18-2.4,1.58-1.72-2-1.23-1.59-2.37l3.17,1.19c-.9.56-1.17,2-1.84,2.53Z"/>
          <path d="M106.15,162.38c-.57,1.3-1.75,2.64-3.19,2.38.57-1.3,1.75-2.64,3.19-2.38Z"/>
          <path class="cls-1" d="M143.59,142.44c-2.34-.77-1.1-2.21-.78-3.98,2.34.77,1.1,2.21.78,3.98Z"/>
        </g>
      </g>
    </g>
  </g>
</svg>