<?xml version="1.0" encoding="UTF-8"?>
<svg id="Layer_1" data-name="Layer 1" xmlns="http://www.w3.org/2000/svg" viewBox="0 0 1080 1080">
  <defs>
    <style>
      .cls-1 {
        fill: #fff;
      }
    </style>
  </defs>
  <path d="M598.9,251.09c-.34-2.5,2.88-3.87,3.24-5.29.29-1.15-.82-12.22-.71-15.26.09-2.41,1.07-14.81,1.85-15.57,5.2-3.28,10.83-.87,15.64-.95,7.64-.13,20.81-4.2,22.85,7.07,1.51,8.35-1.43,18.86-1.53,27.35-.01,1.08-.09,2.61.85,3.3,14.84-.38,37.62-3.43,48.58,8.91,16.72,18.82,9.12,72.62,8.78,97.13-.53,38.33.51,76.79.76,114.99.19,28.63,2.29,62.11-19.56,83.81,20.36,2.51,30.72,15.04,37.83,33.03,6.18,15.64,10.77,33.18,16.32,49.24,9.2,26.6,21.6,48.86,20.21,77.78-.53,11.04-5.76,31.31-3.57,40.71,2.29,9.83,5.09,13.91,5.89,25.67,1.65,24.12-2.48,48.61.03,72.77,1.12,10.76,10.18,23.39-5,29.23-10.62,4.08-29.18,3.15-40.92,3.58-48.41,1.79-97.21,1.65-145.72,3.12-62.56,1.89-125.15-2.4-187.84-.99-26.49.6-52.91,2.34-79.43,1.53-27.66-.84-55.63-4.34-83.33-5.02-7.85-.19-14.26,1.51-21.08,1.68-8.49.21-12.88-8.85-10.56-16.3.73-2.34,3.85-3.75,4.7-5.83,1.9-4.66-1.31-18.64-1.78-24.5-.76-9.41-.94-18.91-1.6-28.33-1.44-20.51-4.05-31.81.89-52.49.37-1.53,2.16-4.53,2.41-8.26,1.02-14.88-3.1-29.32-1.55-45.33,2.77-28.71,28.39-100.74,44.32-125.01,7.11-10.84,14.96-16.21,27.08-20.69-17.47-6.98-23.04-30.25-25.62-47.23-4.95-32.57-1.41-65.17-.91-97.71.32-20.79-.01-41.62.07-62.42.16-40.66-7.38-95.2,48.26-99.1,3.81-.27,12.61.84,15.29.06.74-.21.5-4.59,4.54-3.3.67-.63-2.23-15.57-2.4-18.22-.21-3.32-.57-14.26.18-16.83,1.24-4.22,11.85-5.11,15.64-5.41,4.29-.33,13.77-1.01,17.69-.75,12.89.85,9.33,12.81,10.23,21.41.77,7.35,1.16,16.99,6.79,22.02,17.5-2,35.12-1.72,52.72-2.07,48.31-.96,96.3.73,144.88-.72,18.19-.54,36.34-.79,54.58-.84ZM339.84,249.26c-.33-5.28-1.84-10.49-2.35-15.75-.45-4.58,1.32-14.58-2.43-17.79-2.61-2.23-17.48-1.58-21.48-1.29-2.48.18-12.66,1.38-13.95,2.63-3.44,3.33,1.13,28.82,1.39,34.64h4.05c-1.12-7.37-5.94-21.65-1.93-28.28,3.41-5.65,21.45-7.71,27.07-5.29,3.53,1.52,4.28,4.64,4.76,8.19.7,5.08,1.49,13.6,1.64,18.66.06,1.92-.75,3.3-.76,5.13l3.99-.85ZM637.84,247.98c.02-6.57,4.12-26.19-.66-30.41-4.14-3.65-11.91-1.16-16.63-1.12-3.37.02-13.76-1.85-15.46.73-.35,9.78-1.65,19.46-.41,29.19l3.96-.09c3.29-2.8-6.96-19.24,2.95-25.82,3.91-2.59,16.22-1.92,20.72-.42,6.25,2.09,3.71,22.6,2.34,27.98l3.2-.02ZM334.22,238.78c.02-12.09,1.67-23.03-14.54-20.25l8.32.98c5.14,1.57,4.84,6.24,4.62,10.76l1.6,8.5ZM611.99,227.34c-.04,4.72.02,9.46-.02,14.17l18.62,1.64.49-20.3c-4.1-1.8-15.13-2.67-18.55-.03-1.79,1.38-.53,3.51-.54,4.52ZM329.2,222.78c-1.3-1.5-18.95-1.57-20.54-.31-3.67,2.91-1.3,17.42-.26,21.85l23.4-.7-2.6-20.85ZM305.87,246.84c-.6-7.59-2.46-15.03-1.18-22.67-1.94,1.98-2.15,5.06-2.09,7.7l3.27,14.97ZM634.65,242.75c.61-5.46-.43-11.84.02-17.41l-1.67,12.51.04,8.54c.83.23,1.58-3.29,1.62-3.64ZM630.6,247.2c-1.84-3.83-7.94-2.36-11.73-2.45-2.83-.07-5.36-2.37-7.7,1.21-.1.24,1.9,1.21,2.02,1.21l17.41.02ZM332.6,246.88c-1.42-1.57-22.99-.56-23.93.73l-.36,2.47c5.01.73,10.28-.61,14.98-.79,2.84-.11,8.33,2.89,9.31-2.41ZM611.11,249.67c-.44-.73-10.35-2.49-9.66,1.54l9.72.82-.05-2.36ZM626.55,249.62h-11.74s-.82,1.61-.82,1.61c.57.8,11.15,2.3,12.2.87l.36-2.47ZM343.12,254.98c-1.47-5.24-9.82-1.84-13.76-1.61v2.41s13.76-.8,13.76-.8ZM326.93,252.54l-10.01.1-1.34,3.93,10.01-.1,1.34-3.93ZM297.77,256.56l15.39.02v-2.42c-4.39-.64-9.06-.31-13.41.77-1.37.34-2.35-.81-1.97,1.64ZM620.06,254.48c-23.95-.9-47.79-.85-71.69-.12-13.97.43-28.02,1.28-42.11,1.57-41.85.87-83.63-2.3-125.51-.95-22.38.72-44.87,4.02-67.18,4.48-16.07.33-37.15-3.47-52.22,2.32-21.48,8.26-27.3,32.63-28.45,53.37-1.96,35.46.42,73.54-.05,109.39-.45,34.6-5.1,70.27,3.96,104.37,3.58,13.48,11.5,32.96,28.24,31.68-21.73-12.77-28.56-39.6-30.69-63.21-1.24-13.76-.17-26.87.07-40.45.31-17.84.53-35.67.8-53.51,6.52-35.53-5.73-84,7.64-117.18,14.07-34.93,67.01-20.89,96.63-23.94,78.98-7.37,158.32,5.01,237.24-6.25,13.46-.7,27.04-.24,40.49-.77.99-.04,3.01.61,2.82-.8ZM637.88,255.3l20.65.02c9.77.01,24.24,8.57,28.87,17.3,8.42,15.89,5.72,49.52,6.23,68.2,1.09,39.35,1.29,78.94.68,118.16-.27,17.55-.45,35.98-2.55,53.37-1.87,15.53-5.5,32.34-17.76,43,3.58,1.63,8.09-4.95,10.05-7.76,16.25-23.17,11.99-54.72,11.86-81.26-.23-46.97-.09-94.07,1.01-140.93.41-17.55,2.9-36.12-3.6-53.04-8.32-21.64-28.31-18.55-47.74-18.68l-7.7,1.6ZM665.89,555.75c7.67,1.37,12.56-6.29,15.82-12.11,6.22-11.1,8.08-24.33,9.33-36.86,5.09-50.86.59-102.06,2.63-153.07-7.34-39.86,15.81-94.41-43.22-97.62-5.94-.32-11.58.82-17.01.86-15.95.1-31.9-.17-47.84-.12-66.66,9.6-133.18,2.95-199.95,4.71-32.58.86-65.49.74-98.05,2.26-27.24,1.27-41.02,6.51-47,34.77-5.21,24.63-1.34,48.57-2.04,73.34-1.11,39.24-5.62,81.41-3.39,120.61,1.19,21.02,8.8,54.8,28.81,65.89,6.07,3.36,14.81.33,21.68.13,10.32-.3,20.61.85,30.77.92,90.1.61,179.92-.57,269.66-3.02,26.02-.71,52.13-.37,78.05-1.64,10.72-27.7,10.57-59.09,9.98-88.56-.86-42.81-1.64-93.22-10.66-134.96-6.18-28.57-10.02-51.13-43.83-53.33-19.84-1.29-40.04-.9-59.88-3.34-59.37,2.7-118.93,3-178.15,5.54-23.19.99-49.96,1.11-72.68,4.98s-33.05,12.93-39.32,35.18c-8.53,30.29-8.91,60.19-10.86,91.25-2.39,38-10.88,110.31,12.83,141.71,1.11,1.47,2.82,2.65,4.02,4.07-1.47,1.05-3.65-1.93-4.46-2.83-7.98-8.96-11.86-23.85-13.87-35.5-5.79-33.64-2.15-67.17-.15-100.97,1.98-33.53,2.32-67.64,11.69-100.15,7.8-27.06,24.32-32.48,50.42-35.4,64.87-7.26,136.75-5.91,202.44-7.89,34.22-1.03,68.66-.08,102.88,2.52,24.22,1.84,30.82,18.1,36.54,38.77,10.42,37.68,11.65,77.52,13.09,116.36,1.12,30.09,3.32,64.3-1.08,93.83-1.51,10.16-4.47,19.83-7.19,29.68ZM749.12,712.13c3.13-6.84,2.94-12.29,1.24-19.42-3.64-15.29-12.85-35.07-18.17-50.62-6.14-17.94-16.65-59.97-29.03-72.15-13.22-13.01-32.21-11.61-48.98-11.73-23.43-.17-46.4,1.04-69.64,1.54-92.56,2.01-185.08,2.43-277.82,2.13-31.71-.1-59.03-4.28-77.46,26.87-14.13,23.88-34.62,81.46-39.42,108.84-1.68,9.59-4.19,23.25,2.96,30.94-1.78-7.77.3-15.88,2.05-23.49,6.56-28.64,18.26-65.38,31.95-91.19,16.38-30.88,23.52-40.14,59.81-44.63,39.12-4.84,76.78-1.39,115.66.05,26.33.98,53.08-1.63,79.43-2.34,51.99-1.42,104.3-1.15,156.29-2.26,16.08-.34,37.16-4.13,51.33,5.33,12.54,8.38,26.99,45.89,33,60.91,7.15,17.87,17.83,42.61,22.81,60.56,1.73,6.25,4,14.42,2.39,20.66h1.61ZM745.65,715.94c2-2.47.73-8.35,1.05-11.5-10.93-35.63-24.35-73.96-40.47-107.64-14.98-31.3-22.3-31.94-56.1-31.32-47.78.88-95.6,1.44-143.33,2.27-11.35.2-22.73-.22-34.08-.1-58.13,6.85-114.97-3-173.25,1.47-39.93,3.07-50.15,6.63-69.43,41.48-14.8,26.76-24.27,58.2-32.12,87.79-2.21,8.34-9.75,31.04,1.97,33.94,7.41,1.83,11.64.29,18.38.23,7.43-.06,14.87.14,22.29.05.96-11.27,4.35-22.21,8.13-32.79,5.07-14.23,21.75-57.02,30.44-66.77,18.15-20.34,61.07-17.37,86.71-18.49,68.19-2.96,136.51-2.64,204.87-3.83,23.55-.41,47.6-1.74,71.12,1.77,26.6,3.97,41.58,29.93,51.04,52.61,8.41,20.16,13.87,41.54,17.45,63.07,9.37.33,19.6-1.66,27.7-6.52,1.55-.93,6.69-4.59,7.62-5.73ZM708.63,729.1c-2.55-22.58-9.3-46.18-18.41-66.97-10.36-23.62-24.65-45.67-52.33-48.9-26.05-3.04-52.46-1.2-78.51-.87-40.44.52-81.06.82-121.47,1.49-39.57.66-84.87-.5-123.83,4.8-23.7,3.22-34.15,10.58-43.85,32.25-6.66,14.86-14.4,32.91-19.92,48.13-3.87,10.66-7.64,22.21-8.12,33.61,1.81.33,3.58-.84,5.26-.81,63.73,1.26,127.13,5.33,191.13,5.1,25.83-.09,51.77,1.45,77.74.9,27.33-.59,55.29-.38,82.59-1.54,16.99-.72,34-4.09,51-4.83,9.95-.43,20.05.55,29.99.06,9.57-.47,19.09-3.02,28.72-2.43ZM187.96,726.92c-2.26,11.93,8.54,12.96,17.61,14.37,23.89,3.7,48.66,1.41,72.62,1.08,55.49-.78,110.59,1.3,166.07,2.61,74.52,1.76,149.74,1.83,224.24-1.38,23.82-1.02,54.91.53,74.53-15.29,4.55-3.67,9.29-8.6,8.54-14.95l-6.91,6.86c-19.56,16.24-77.07,12.82-102.83,14.49-61.15,5.44-123.31,7.26-184.61,3.81-79.29,3.37-157.99-4.28-237.32-3.5-10.32.1-19.65,3.35-28.73-4.43-1.46-1.25-1.82-2.96-3.21-3.66ZM259.97,769.1l19.03.02c2.89,0,4.37,12.29,3.62,14.58l108.07-2.36c74.04.22,147.99.81,221.88.24,11.92-.09,23.72.21,35.6.93,2.79-6.33-1.84-11.26,7.36-11.44,4.83-.09,10.76,1.42,15.85,1.24,2.52,1.76-1.47,10.98,1.15,10.98l22.27.02v-12.96s20.26-2.41,20.26-2.41v9.72c10.89-.01,29.75-13.63,32.05-24.21l3.62-30.82c-13,14.35-31.89,19.15-50.63,20.99-39.83,3.92-83.69,2.56-123.92,3.08-104.04,1.34-207.76-4.79-311.71-2.72-18.62.37-37.08,1.35-55.78-.98-6.85-.86-13.44-2.58-19.93-4.77.91,5.13,1.14,10.57.82,15.82s-3.34,9.81-.05,14.55c5.58,8.02,16.93,13.78,26.71,13.39l.82-9.71c7.33.88,14.68-1.68,21.77.1l.89,10.45,21.05-1.61c-1.33-4.06-1.98-8-.8-12.14ZM648.6,824.17l.04-40.89-46.97-.05c7.96,5.42,7.55,23.53.37,29.15-3.16,2.48-9.82,3.99-13.77,4.04-5.01.06-12.46-3.36-16.17,2.44-4.87,14.63-6.14,30.47-10.79,45.12-1.67,5.26-2.97,9.58-7.52,13.13l68.46-.69c25.02.48,51.29-3.11,76.07-3.25,15.78-.09,38.39,6.25,52.97-1.18,8.21-4.18,3.41-8.76,2.63-16.21-2.48-23.64,1.16-47.43-.03-71.15-.5-9.83-2.01-18.04-5.64-27.14-2.5-.19-2.7,2.9-4.05,4.45-7.41,8.53-17.72,15.67-29.09,17.46.61,6.84.47,13.7.71,20.56.26,7.31,1.74,15.33.82,22.73-.39,3.13-2.4,3.3-5.32,3.59-6.23.62-15.31.64-21.83.82-13.1.36-27.01.32-39.95-1.04-.21-.58-.9-1.43-.97-1.87ZM410.94,820.27c-5.16.61-11.32-.46-16.6-.02,5.29,7.26,7.03,19.68,11.94,26.51,4.11,5.71,15.32-.75,21.64-1.36,21.61-2.09,52.35.28,74.48,1.7,11.28.72,24.57,3.75,35.67,3.3,2.1-.09,7.4-.64,8.34-2.17l7.45-32.66-14.98-.02c-.87,0-6.14-1.19-7.34-1.57-12.88-4.1-12.49-23.97-.1-28.57l7.06-2.23-124.33-.99c-25.47,1.79-51.4.43-76.86,2.42l-53.89-.1c-.1,14.46,2.29,29.22-.8,43.38-10.69.92-21.37.8-32.07,1.1-8.42.23-17.25,1.75-25.79.72-2.32-.28-5.79-.83-6.14-3.58l-1.59-42.5c-8.81-.04-18.77-4.05-25.11-10.13-1.82-1.75-2.43-3.33-3.79-5.07-.52-.66.02-1.48-1.84-1.03-4.52,11.25-1.6,22.87-.86,34.42.82,12.94,1.38,25.93,2.4,38.86.76,9.64,4.5,20.59.77,29.56,9.46,3.42,19.12,1.77,28.73,2.48,11.31.83,22.6,4.28,33.98,4.92,18.07,1.02,37.76-2.38,55.92-3.2,19.39-.88,38.17.33,57.45.9,6.07.18,12.19-.17,18.25-.02l-13.09-54.06c-2.96-3.51-21.87,3.44-28.82-7.24-7.15-10.99,1.09-23.7,13.32-25.29,6.54-.85,13.12.71,19.33.8,14.49.21,28.95-.34,43.41-.44,10.88.82,11.96,21.52,5.56,26.75-2.02,1.65-9.13,4.17-11.72,4.47ZM697.6,817.34l-25.91-.03c-1.44-1.24-1.83-2.62-2.04-4.44-.96-8.28.89-17.93.85-25.93-.02-3.56-2.02-8.31-.8-12.56-2.85,1.16-17.13-2-17.85.5l-.71,48.76,9.6.93c-.89-1.84-4.04-1.45-5.64-2.86-.99-.87-1.39-2-1.59-3.27-1.35-8.67.29-22.15.02-31.56-.1-3.44-1.53-7.18-.83-10.9,1-1.31,1.47.02,1.62,1.2.75,5.89-.16,14.04-.06,20.29.05,2.79.83,5.68.87,8.91.05,3.49-2.3,11.95.95,14.75,1.9,1.63,26.85,2.85,31.01,2.69,6.88-.26,16.21-1.39,22.24-4.46l.05-46.56h.81s-.05,46.56-.05,46.56c0,.26,1.1,1.16.8,2.02l-9.71,1.62,8.53.85,4.45-1.38-1.6-52.1-15.43,2.91c-1.1,10.58,1.24,21.04,1.67,31.46.1,2.3.58,12.02-1.26,12.58ZM275.36,771.54h-12.55c-.84.59-.87.7-.88,1.64-.09,6.71,3.31,15.8,3.72,23.02.35,6.08-.46,12.11-1.41,18.09l-.85.97c-5.34-.04-20.54,3.76-24.16.03-3.4-3.51-1.56-24.35-1.91-30.45-.08-1.49-.93-9.7-1.2-10.13-1.01-1.58-3.36-.01-4.9.03-3.37.1-6.75-.07-10.11,0,3.9,15.41,1.92,31.59,3.18,47.37l.76,1.67c13.72-.34,29.83,1.73,43.36.39,12.91-1.28,10.46-12.76,10.19-23.09-.19-7.22-.68-17.99-1.67-25.02-.23-1.61-1.46-2.86-1.57-4.5ZM280.97,825.8l.04-38.46c0-2.93-1.24-11.08-2.19-14.03-.44-1.36.36-2.14-1.83-1.76,2.01,5.56,1.3,10.92,1.61,16.59.46,8.64,2.02,21.51.72,29.92-.67,4.34-3.61,6.25-7.72,6.86l-48.12.83-1.67-42.42-2.31-8.6,1.55,51.83,59.93-.75ZM259.72,812.63c1.63-1.41.41-24.66-1-26.57l-17.35.87,2.35,27.5,16-1.8ZM261.57,789.75c.68,5.34-.52,11.92-.02,17.41,1.82-.47,1.54-2.18,1.66-3.6.35-4.19-.38-10.19-1.07-14.39-.19-1.15-.25-5.27-2.2-3.46-.09,1.36,1.51,3.09,1.63,4.04ZM581.4,813.17h13.36c7.82.02,11.03-26.44.08-27.56-12.98-1.33-28.15,1.07-41.38-.03-5.45,1.85-14.94-.32-19.81,2.04-2.69,1.3-4.14,9.21-4,12.01.22,4.35,3.07,13.49,8.43,13.5l16.6.02c1.33-5.4-5.41-3.49-9.12-4.25-7.8-1.58-8.83-11.16-1.41-13.2,11.08-3.05,31.68-6.23,42.58-1.99,9.31,3.62,5.61,15.19-3.57,14.73l-1.75,4.73ZM672.12,791l-.02,23.08h2.43c-2.44-9.34-.14-18.8-.79-28.34l-1.62,5.26ZM691.56,785.76l-16.2-.02c-.05,9.45-2.27,19.1.38,28.39.2.37,2,.76,2.43.76l16.6.02c-1.28-9.72-.57-19.55-3.21-29.16ZM601.66,808.33c1.43-.32,1.73-2.01,2.05-3.21,1.43-5.33,3.03-16.5-3.65-18.65,4.38,6.71,2.75,14.39,1.6,21.86ZM531.22,788.83c-1.31-1.24-5.05,4.43-5.46,5.46-2.76,6.92-.71,14.13,6.24,17.2-1.1-3.17-2.86-5.8-3.22-9.31-.46-4.33-.17-9.72,2.45-13.36ZM398.39,817.83h11.74c1.34.01,6.4-1.77,7.73-2.78,7.17-5.42,5.06-23.66-6.11-23.97-13.98-.39-28.72,1.04-42.92.84-5.69-.08-12.53-2.31-18.14.4-7.66,3.69-7.39,25.46,1.14,25.46l17.41.02c-2.64-5.05-9.13-.12-12.97-4.45-2.6-2.93-2.43-11.34.78-13.85,2.72-2.12,16.58-2.04,20.75-1.98l29.17,2.44c3.47,2.07,1.74,13.75-1.03,14.55-2.29.66-7.44-2.49-7.55,3.31ZM579.69,795.47c-9.09-.32-18.4-2.42-27.23.86l-.91,9.83c.7,2.07,5.18,1.32,6.19,2.32,1.05,1.03,1.12,7.4,1.01,9.16-.28,4.22-6.51,25.71-8.37,29.7-1.42,3.03-4.25,5.99-7.44,7.14-4.09,1.48-12.46,2.02-17.06,2.36-25.41,1.87-52.12.46-77.76.7-28.08.26-40.79,6.84-52.2-23.88-.91-2.44-4.75-13.65-4.84-15.41-.14-2.6,3.22-.43,4.76-1.36,2.25-1.36,2.28-12.4.77-15.06l-29.25-1.73-1.22,1.21-.98,11.14,5.76,1.84c2.33,12.39,6.62,24.41,9.26,36.7,3.92,18.21-2.08,25.16,20.3,28.28,19.48,2.71,39.46.8,58.96,1.02,23.92.27,50.99,2.65,74.52.04,18.92-2.1,21.95-5.91,26.61-23.59,2.83-10.74,4.57-28.27,8.53-37.66,2.66-6.29,9.71-5.35,11.14-9.91.62-1.98.78-12.86-.55-13.7ZM346.59,795.11c-1.58-.47-3.72,3.53-4.09,4.41-2.29,5.36-2.51,10.02,2.05,14.2-.22-6.34-1.69-12.91,2.04-18.61ZM696.38,814.1v-8.49s-1.58-10.13-1.58-10.13v10.11s1.58,8.51,1.58,8.51ZM242.11,813.61l-.89-11.64-1.51-6.17c-.07,5.5.15,11.16.78,16.61.14,1.21.64,2.48,1.62,1.2ZM583.03,805.89c8.61.59,8.85-10.72,0-9.72v9.72ZM549.03,797.75c-4.48-.57-9.28,2.12-6.55,6.96l6.54,1.96v-8.91ZM363.59,800.79c-8.44-2.78-8.79,12.01-2.07,12.17l2.07-12.17ZM405.49,801.84c-1.39-1.23-4.58-.41-6.28-.2l.81,9.7,5.25.05c.82-2.25,2.18-7.83.22-9.55ZM554.65,830.14c.76-5.72,3.62-11.1,3.26-16.99-1.16-.19-1.13,1.43-1.36,2.26-.87,3.12-1.99,8.12-2.48,11.3-.13.87-.95,3.56.59,3.43ZM544.11,852.01c-11.17,2.37-22.51-.89-33.61-1.66-24.58-1.7-55.08-4.24-79.38-2.56-7.88.55-15.21,3.86-23.05,4.47,7.49,4.33,16.99,5.42,25.55,5.33,6.27-.07,13.9-1.54,20.17-1.67,26.49-.55,58.54,2.66,84.16-1.58,1.61-.27,5.35-.76,6.16-2.33ZM757.05,870.04c-10.14,7.27-23.26,6.99-35.26,6.47-23.18-1.01-43.2-.74-66.4-.14-1.92.05-3.69.83-5.6.87-29.98,2.77-67.32-2.9-96.42.65-3.32.41-7.47,3.03-11.54,3.84-20.19,3.98-44.85,1.03-65.33.92-25.02-.14-60.63,3.46-84.05-1.88-3.37-.77-6.74-3.42-9.15-3.81-9.88-1.61-28.94-1.5-39.6-1.74-32.09-.7-65.99,5.35-97.24,3.2-8.19-.56-16.89-3.31-25.08-4.1-7.62-.73-16.41-.02-24.18-.95-6.4-.76-15.74-6.53-12.27,6.59,2.93,11.06,13.5,4.13,21.07,4.04,1.37-.02,2.7.78,4.06.81,43.82.92,85.45,5.53,129.56,4.2,58.15-1.75,114.39-1.12,172.5.14,31.31.68,60.21-.52,91.46-1.5,43.33-1.36,89.16,1.58,131.99-2.29,8.88-.8,25.46-2.47,21.48-15.35Z"/>
  <path class="cls-1" d="M665.89,555.75c2.72-9.85,5.67-19.52,7.19-29.68,4.4-29.54,2.2-63.74,1.08-93.83-1.45-38.83-2.67-78.68-13.09-116.36-5.72-20.67-12.32-36.92-36.54-38.77-34.21-2.6-68.66-3.55-102.88-2.52-65.69,1.98-137.57.63-202.44,7.89-26.1,2.92-42.62,8.34-50.42,35.4-9.37,32.52-9.71,66.63-11.69,100.15-2,33.81-5.64,67.34.15,100.97,2.01,11.66,5.88,26.54,13.87,35.5.81.91,2.99,3.88,4.46,2.83-1.2-1.42-2.92-2.61-4.02-4.07-23.71-31.4-15.22-103.72-12.83-141.71,1.96-31.06,2.34-60.96,10.86-91.25,6.26-22.25,16.29-31.25,39.32-35.18s49.49-3.99,72.68-4.98c59.23-2.54,118.78-2.85,178.15-5.54,19.84,2.44,40.04,2.05,59.88,3.34,33.81,2.2,37.66,24.76,43.83,53.33,9.02,41.74,9.8,92.15,10.66,134.96.59,29.47.74,60.85-9.98,88.56-25.91,1.27-52.02.93-78.05,1.64-89.74,2.45-179.56,3.63-269.66,3.02-10.16-.07-20.45-1.22-30.77-.92-6.86.2-15.61,3.23-21.68-.13-20.02-11.09-27.62-44.87-28.81-65.89-2.22-39.2,2.29-81.37,3.39-120.61.7-24.77-3.17-48.71,2.04-73.34,5.97-28.26,19.75-33.51,47-34.77,32.56-1.51,65.47-1.4,98.05-2.26,66.77-1.76,133.29,4.89,199.95-4.71,15.95-.05,31.9.22,47.84.12,5.43-.04,11.07-1.18,17.01-.86,59.03,3.21,35.87,57.76,43.22,97.62-2.04,51.01,2.46,102.21-2.63,153.07-1.25,12.52-3.11,25.76-9.33,36.86-3.26,5.82-8.15,13.48-15.82,12.11ZM664.58,268.29c-1.39-1.69-3.44,5.44-3.9,6.21-1.85,3.09-4.79,8.03-8.26,9.17l1.21,1.59c2.98-1.09,11.9-15.82,10.95-16.97ZM263.72,279.2l-1.61.4c.02,1.24,7.33,8.39,8.89,9.73s3.74,3.25,5.67,3.63l-11.78-11.33-1.18-2.44Z"/>
  <path class="cls-1" d="M708.63,729.1c-9.63-.59-19.15,1.95-28.72,2.43-9.94.49-20.03-.49-29.99-.06-16.99.74-34,4.11-51,4.83-27.31,1.15-55.26.95-82.59,1.54s-51.92-.99-77.74-.9c-64,.23-127.4-3.84-191.13-5.1-1.68-.03-3.45,1.14-5.26.81.48-11.4,4.25-22.95,8.12-33.61,5.52-15.22,13.26-33.27,19.92-48.13,9.71-21.67,20.16-29.03,43.85-32.25,38.96-5.29,84.26-4.14,123.83-4.8,40.41-.67,81.02-.97,121.47-1.49,26.05-.33,52.46-2.17,78.51.87,27.68,3.23,41.97,25.27,52.33,48.9,9.11,20.79,15.87,44.39,18.41,66.97Z"/>
  <path class="cls-1" d="M745.65,715.94c-.93,1.14-6.07,4.8-7.62,5.73-8.1,4.86-18.33,6.85-27.7,6.52-3.58-21.53-9.05-42.91-17.45-63.07-9.46-22.68-24.44-48.64-51.04-52.61-23.53-3.51-47.57-2.18-71.12-1.77-68.37,1.19-136.69.86-204.87,3.83-25.64,1.11-68.56-1.85-86.71,18.49-8.7,9.75-25.37,52.54-30.44,66.77-3.78,10.59-7.16,21.52-8.13,32.79-7.42.09-14.87-.11-22.29-.05-6.74.06-10.97,1.6-18.38-.23-11.72-2.9-4.18-25.6-1.97-33.94,7.84-29.59,17.31-61.03,32.12-87.79,19.28-34.85,29.5-38.41,69.43-41.48,58.28-4.47,115.12,5.38,173.25-1.47,11.35-.12,22.73.3,34.08.1,47.73-.83,95.55-1.4,143.33-2.27,33.8-.62,41.11.02,56.1,31.32,16.12,33.68,29.54,72.01,40.47,107.64-.32,3.14.95,9.03-1.05,11.5ZM681.26,574.41c-2.47-.39-1.33.6-1.58,2.03-1.47,8.21-1.35,17.26-2.63,25.76-1.06,7.05-2.65,13.97-4.74,20.77,2.24.4,1.37-.46,1.83-1.77,5.22-14.78,5-31.42,7.13-46.79ZM277.94,629.02l-13.7-52.64c.76,8.48,3.03,16.97,5.05,25.28,1.93,7.94,4.17,18.03,6.82,25.59.46,1.31-.43,2.17,1.82,1.77Z"/>
  <path class="cls-1" d="M410.94,820.27c2.58-.3,9.7-2.82,11.72-4.47,6.39-5.22,5.32-25.93-5.56-26.75-14.46.1-28.92.65-43.41.44-6.21-.09-12.79-1.65-19.33-.8-12.23,1.59-20.47,14.3-13.32,25.29,6.95,10.69,25.86,3.74,28.82,7.24l13.09,54.06c-6.06-.15-12.18.2-18.25.02-19.28-.57-38.07-1.77-57.45-.9-18.16.82-37.85,4.22-55.92,3.2-11.38-.64-22.68-4.09-33.98-4.92-9.62-.71-19.27.94-28.73-2.48,3.73-8.96,0-19.92-.77-29.56-1.03-12.92-1.58-25.92-2.4-38.86-.73-11.55-3.66-23.17.86-34.42,1.87-.46,1.33.36,1.84,1.03,1.36,1.74,1.97,3.33,3.79,5.07,6.35,6.08,16.3,10.09,25.11,10.13l1.59,42.5c.36,2.75,3.82,3.3,6.14,3.58,8.53,1.03,17.37-.49,25.79-.72,10.7-.29,21.38-.17,32.07-1.1,3.09-14.15.7-28.92.8-43.38l53.89.1c25.46-1.99,51.39-.63,76.86-2.42l124.33.99-7.06,2.23c-12.4,4.6-12.78,24.48.1,28.57,1.2.38,6.47,1.57,7.34,1.57l14.98.02-7.45,32.66c-.94,1.53-6.24,2.08-8.34,2.17-11.1.45-24.39-2.58-35.67-3.3-22.13-1.42-52.88-3.79-74.48-1.7-6.32.61-17.53,7.07-21.64,1.36-4.92-6.83-6.65-19.25-11.94-26.51,5.28-.44,11.44.62,16.6.02Z"/>
  <path class="cls-1" d="M259.97,769.1c-1.18,4.14-.53,8.08.8,12.14l-21.05,1.61-.89-10.45c-7.09-1.78-14.44.78-21.77-.1l-.82,9.71c-9.79.38-21.14-5.37-26.71-13.39-3.29-4.73-.28-9.29.05-14.55s.1-10.69-.82-15.82c6.5,2.19,13.09,3.92,19.93,4.77,18.7,2.34,37.16,1.35,55.78.98,103.95-2.07,207.68,4.07,311.71,2.72,40.23-.52,84.09.84,123.92-3.08,18.74-1.84,37.64-6.64,50.63-20.99l-3.62,30.82c-2.3,10.58-21.16,24.2-32.06,24.21v-9.72s-20.24,2.41-20.24,2.41v12.96s-22.28-.02-22.28-.02c-2.62,0,1.37-9.22-1.15-10.98-5.08.18-11.02-1.33-15.85-1.24-9.19.18-4.57,5.1-7.36,11.44-11.88-.72-23.68-1.02-35.6-.93-73.89.56-147.84-.02-221.88-.24l-108.07,2.36c.74-2.29-.73-14.58-3.62-14.58l-19.03-.02Z"/>
  <path class="cls-1" d="M648.6,824.17c.08.44.77,1.29.97,1.87,12.94,1.36,26.85,1.4,39.95,1.04,6.52-.18,15.6-.2,21.83-.82,2.91-.29,4.93-.46,5.32-3.59.92-7.4-.56-15.42-.82-22.73-.24-6.86-.1-13.72-.71-20.56,11.37-1.79,21.68-8.92,29.09-17.46,1.34-1.55,1.54-4.65,4.05-4.45,3.63,9.11,5.14,17.31,5.64,27.14,1.2,23.72-2.44,47.51.03,71.15.78,7.46,5.58,12.03-2.63,16.21-14.58,7.42-37.2,1.08-52.97,1.18-24.78.15-51.05,3.73-76.07,3.25l-68.46.69c4.55-3.55,5.84-7.87,7.52-13.13,4.65-14.65,5.92-30.49,10.79-45.12,3.71-5.8,11.16-2.38,16.17-2.44,3.95-.05,10.6-1.56,13.77-4.04,7.18-5.62,7.59-23.73-.37-29.15l46.97.05-.04,40.89Z"/>
  <path class="cls-1" d="M579.69,795.47c1.33.83,1.17,11.71.55,13.7-1.43,4.56-8.49,3.62-11.14,9.91-3.96,9.39-5.7,26.92-8.53,37.66-4.66,17.68-7.69,21.49-26.61,23.59-23.53,2.61-50.6.23-74.52-.04-19.5-.22-39.49,1.69-58.96-1.02-22.38-3.12-16.38-10.07-20.3-28.28-2.64-12.29-6.93-24.31-9.26-36.7l-5.76-1.84.98-11.14,1.22-1.21,29.25,1.73c1.5,2.66,1.48,13.7-.77,15.06-1.54.93-4.89-1.23-4.76,1.36.09,1.75,3.94,12.97,4.84,15.41,11.41,30.72,24.12,24.15,52.2,23.88,25.64-.24,52.35,1.17,77.76-.7,4.6-.34,12.97-.88,17.06-2.36,3.19-1.15,6.02-4.11,7.44-7.14,1.87-3.99,8.1-25.48,8.37-29.7.12-1.76.04-8.14-1.01-9.16-1.01-.99-5.49-.25-6.19-2.32l.91-9.83c8.83-3.28,18.14-1.18,27.23-.86Z"/>
  <path class="cls-1" d="M757.05,870.04c3.99,12.88-12.6,14.55-21.48,15.35-42.83,3.86-88.67.93-131.99,2.29-31.25.98-60.15,2.17-91.46,1.5-58.11-1.26-114.35-1.9-172.5-.14-44.11,1.33-85.74-3.28-129.56-4.2-1.36-.03-2.69-.83-4.06-.81-7.57.09-18.14,7.02-21.07-4.04-3.47-13.12,5.87-7.35,12.27-6.59,7.77.92,16.56.22,24.18.95,8.19.78,16.89,3.53,25.08,4.1,31.25,2.15,65.16-3.9,97.24-3.2,10.66.23,29.72.12,39.6,1.74,2.41.39,5.78,3.04,9.15,3.81,23.42,5.34,59.03,1.74,84.05,1.88,20.48.11,45.14,3.06,65.33-.92,4.07-.8,8.22-3.43,11.54-3.84,29.1-3.55,66.44,2.11,96.42-.65,1.92-.04,3.69-.82,5.6-.87,23.2-.6,43.22-.87,66.4.14,11.99.52,25.12.79,35.26-6.47Z"/>
  <path class="cls-1" d="M749.12,712.13h-1.61c1.6-6.24-.66-14.42-2.39-20.66-4.97-17.95-15.66-42.68-22.81-60.56-6-15.02-20.45-52.53-33-60.91-14.18-9.47-35.26-5.68-51.33-5.33-51.99,1.11-104.3.84-156.29,2.26-26.35.72-53.09,3.32-79.43,2.34-38.88-1.45-76.54-4.9-115.66-.05-36.29,4.49-43.42,13.76-59.81,44.63-13.7,25.82-25.39,62.55-31.95,91.19-1.74,7.61-3.83,15.73-2.05,23.49-7.16-7.7-4.64-21.35-2.96-30.94,4.8-27.38,25.29-84.97,39.42-108.84,18.44-31.15,45.75-26.97,77.46-26.87,92.75.3,185.26-.12,277.82-2.13,23.24-.51,46.21-1.72,69.64-1.54,16.76.12,35.76-1.28,48.98,11.73,12.38,12.18,22.89,54.21,29.03,72.15,5.32,15.55,14.53,35.33,18.17,50.62,1.7,7.13,1.89,12.58-1.24,19.42Z"/>
  <path class="cls-1" d="M187.96,726.92c1.39.7,1.75,2.41,3.21,3.66,9.07,7.78,18.4,4.54,28.73,4.43,79.34-.79,158.04,6.87,237.32,3.5,61.29,3.45,123.45,1.63,184.61-3.81,25.76-1.68,83.27,1.75,102.83-14.49l6.91-6.86c.75,6.35-3.99,11.29-8.54,14.95-19.63,15.81-50.71,14.26-74.53,15.29-74.5,3.21-149.72,3.14-224.24,1.38-55.48-1.31-110.57-3.39-166.07-2.61-23.96.34-48.73,2.62-72.62-1.08-9.06-1.4-19.87-2.44-17.61-14.37Z"/>
  <path class="cls-1" d="M620.06,254.48c.19,1.41-1.84.76-2.82.8-13.45.54-27.03.08-40.49.77-78.92,11.25-158.26-1.12-237.24,6.25-29.63,3.05-82.57-10.99-96.63,23.94-13.37,33.19-1.12,81.66-7.64,117.18-.27,17.84-.49,35.67-.8,53.51-.23,13.58-1.31,26.69-.07,40.45,2.13,23.6,8.96,50.44,30.69,63.21-16.75,1.29-24.66-18.19-28.24-31.68-9.06-34.1-4.42-69.77-3.96-104.37.47-35.84-1.91-73.93.05-109.39,1.15-20.74,6.97-45.11,28.45-53.37,15.07-5.79,36.15-2,52.22-2.32,22.32-.45,44.81-3.75,67.18-4.48,41.88-1.35,83.66,1.81,125.51.95,14.09-.29,28.13-1.15,42.11-1.57,23.9-.73,47.74-.78,71.69.12Z"/>
  <path class="cls-1" d="M697.6,817.34c1.84-.57,1.36-10.29,1.26-12.58-.43-10.42-2.76-20.87-1.67-31.46l15.43-2.91,1.6,52.1-4.45,1.38-8.53-.85,9.71-1.62c.3-.86-.8-1.76-.8-2.02l.05-46.56h-.81s-.05,46.56-.05,46.56c-6.03,3.07-15.36,4.2-22.24,4.46-4.15.16-29.11-1.06-31.01-2.69-3.26-2.8-.91-11.26-.95-14.75-.04-3.24-.83-6.12-.87-8.91-.1-6.25.8-14.4.06-20.29-.15-1.18-.61-2.51-1.62-1.2-.7,3.71.73,7.45.83,10.9.28,9.41-1.37,22.89-.02,31.56.2,1.27.6,2.4,1.59,3.27,1.6,1.41,4.75,1.01,5.64,2.86l-9.6-.93.71-48.76c.72-2.5,14.99.66,17.85-.5-1.22,4.25.79,9,.8,12.56.03,7.99-1.81,17.64-.85,25.93.21,1.82.6,3.2,2.04,4.44l25.91.03Z"/>
  <path class="cls-1" d="M275.36,771.54c.11,1.64,1.34,2.89,1.57,4.5.99,7.03,1.48,17.8,1.67,25.02.27,10.33,2.72,21.81-10.19,23.09-13.54,1.34-29.65-.73-43.36-.39l-.76-1.67c-1.27-15.78.71-31.96-3.18-47.37,3.36-.07,6.74.1,10.11,0,1.55-.04,3.89-1.61,4.9-.03.28.43,1.12,8.63,1.2,10.13.35,6.1-1.49,26.94,1.91,30.45,3.62,3.73,18.82-.06,24.16-.03l.85-.97c.95-5.98,1.76-12.01,1.41-18.09-.41-7.22-3.81-16.31-3.72-23.02.01-.93.04-1.05.88-1.65h12.55Z"/>
  <path class="cls-1" d="M637.88,255.3l7.7-1.6c19.43.13,39.42-2.97,47.74,18.68,6.5,16.92,4.01,35.5,3.6,53.04-1.1,46.86-1.24,93.96-1.01,140.93.13,26.54,4.38,58.09-11.86,81.26-1.97,2.81-6.47,9.39-10.05,7.76,12.26-10.67,15.88-27.47,17.76-43,2.1-17.4,2.28-35.83,2.55-53.37.61-39.22.41-78.81-.68-118.16-.52-18.68,2.19-52.31-6.23-68.2-4.63-8.73-19.09-17.29-28.87-17.3l-20.65-.02Z"/>
  <path class="cls-1" d="M581.4,813.17l1.75-4.73c9.18.46,12.88-11.12,3.57-14.73-10.9-4.24-31.5-1.06-42.58,1.99-7.42,2.04-6.39,11.62,1.41,13.2,3.71.75,10.45-1.16,9.12,4.25l-16.6-.02c-5.36,0-8.21-9.15-8.43-13.5-.14-2.8,1.31-10.71,4-12.01,4.87-2.36,14.35-.19,19.81-2.04,13.23,1.1,28.4-1.3,41.38.03,10.95,1.12,7.74,27.59-.08,27.58h-13.36Z"/>
  <path class="cls-1" d="M398.39,817.83c.11-5.8,5.26-2.65,7.55-3.31,2.77-.8,4.5-12.48,1.03-14.55l-29.17-2.44c-4.17-.07-18.03-.14-20.75,1.98-3.22,2.51-3.39,10.91-.78,13.85,3.84,4.32,10.33-.6,12.97,4.45l-17.41-.02c-8.53,0-8.81-21.77-1.14-25.46,5.61-2.7,12.45-.48,18.14-.4,14.21.21,28.94-1.22,42.92-.84,11.17.31,13.28,18.55,6.11,23.97-1.33,1.01-6.39,2.79-7.73,2.79h-11.74Z"/>
  <path class="cls-1" d="M544.11,852.01c-.81,1.57-4.55,2.06-6.16,2.33-25.62,4.24-57.67,1.03-84.16,1.58-6.27.13-13.9,1.6-20.17,1.67-8.57.09-18.06-1-25.55-5.33,7.85-.6,15.18-3.92,23.05-4.47,24.3-1.69,54.8.86,79.38,2.56,11.1.77,22.44,4.03,33.61,1.66Z"/>
  <path class="cls-1" d="M329.2,222.78l2.6,20.85-23.4.7c-1.04-4.43-3.41-18.94.26-21.85,1.59-1.26,19.24-1.2,20.54.31Z"/>
  <path class="cls-1" d="M611.99,227.34c0-1.01-1.25-3.14.54-4.52,3.42-2.64,14.44-1.76,18.55.03l-.49,20.3-18.62-1.64c.03-4.71-.02-9.45.02-14.17Z"/>
  <path class="cls-1" d="M691.56,785.76c2.64,9.61,1.93,19.44,3.21,29.16l-16.6-.02c-.43,0-2.23-.4-2.43-.76-2.65-9.29-.43-18.95-.38-28.39l16.2.02ZM684.03,793.21c-2.04.47-4.98,3.25-5.31,5.26-.56,3.48,2.78,3.76,3.74,5.67.75,1.49.55,5.52,1.74,6.35,1.44,1,6.13,1.01,6.44-1.6.08-.69-.57-1.75-.37-2.93.55-3.21,2.44-5.54,1.76-8.9-.86-4.31-4.11-4.75-8.01-3.85Z"/>
  <path class="cls-1" d="M339.84,249.26l-3.99.85c.02-1.83.82-3.21.76-5.13-.15-5.07-.94-13.58-1.64-18.66-.49-3.55-1.23-6.67-4.76-8.19-5.62-2.42-23.66-.36-27.07,5.29-4,6.64.81,20.91,1.93,28.28h-4.05c-.27-5.82-4.83-31.31-1.39-34.64,1.29-1.26,11.47-2.45,13.95-2.63,4-.29,18.86-.95,21.48,1.29,3.75,3.21,1.98,13.21,2.43,17.79.52,5.26,2.02,10.47,2.35,15.75Z"/>
  <path class="cls-1" d="M259.72,812.63l-16,1.8-2.35-27.5,17.35-.87c1.41,1.9,2.64,25.16,1,26.57ZM252.63,811.19c-.74-5.29,4.71-10.42,3.11-15.62-1.3-4.25-13.14-4.81-11.82,4.49.17,1.18,2.3,9.92,2.62,10.34,1.11,1.47,4.4.64,6.08.79Z"/>
  <path class="cls-1" d="M637.84,247.98l-3.2.02c1.37-5.37,3.91-25.88-2.34-27.98-4.5-1.5-16.81-2.17-20.72.42-9.91,6.58.34,23.02-2.95,25.82l-3.96.09c-1.24-9.72.06-19.4.41-29.19,1.7-2.57,12.09-.7,15.46-.73,4.73-.03,12.49-2.53,16.63,1.12,4.78,4.22.68,23.84.66,30.41Z"/>
  <path class="cls-1" d="M280.97,825.8l-59.93.75-1.55-51.83,2.31,8.6,1.67,42.42,48.12-.83c4.11-.61,7.05-2.51,7.72-6.86,1.3-8.41-.25-21.28-.72-29.92-.3-5.67.41-11.03-1.61-16.59,2.2-.38,1.4.4,1.83,1.76.95,2.94,2.2,11.09,2.19,14.03l-.04,38.46Z"/>
  <path class="cls-1" d="M332.6,246.88c-.99,5.3-6.47,2.3-9.31,2.41-4.69.18-9.97,1.52-14.98.79l.36-2.47c.94-1.29,22.51-2.3,23.93-.73Z"/>
  <path class="cls-1" d="M531.22,788.83c-2.62,3.64-2.9,9.02-2.45,13.36.37,3.5,2.13,6.14,3.22,9.31-6.95-3.07-9-10.29-6.24-17.2.41-1.03,4.16-6.71,5.46-5.46Z"/>
  <path class="cls-1" d="M363.59,800.79l-2.07,12.17c-6.72-.16-6.37-14.95,2.07-12.17Z"/>
  <path class="cls-1" d="M405.49,801.84c1.96,1.72.6,7.3-.22,9.55l-5.25-.05-.81-9.7c1.7-.21,4.89-1.03,6.28.2Z"/>
  <path class="cls-1" d="M549.03,797.75v8.91s-6.55-1.96-6.55-1.96c-2.73-4.84,2.07-7.53,6.55-6.96Z"/>
  <path class="cls-1" d="M583.03,805.89v-9.72c8.85-.99,8.61,10.31,0,9.72Z"/>
  <path class="cls-1" d="M630.6,247.2l-17.41-.02c-.12,0-2.12-.97-2.02-1.21,2.34-3.59,4.87-1.28,7.7-1.21,3.79.09,9.89-1.38,11.73,2.45Z"/>
  <polygon class="cls-1" points="326.93 252.54 325.6 256.47 315.59 256.57 316.92 252.64 326.93 252.54"/>
  <path class="cls-1" d="M346.59,795.11c-3.73,5.7-2.26,12.27-2.04,18.61-4.57-4.18-4.34-8.84-2.05-14.2.37-.88,2.51-4.87,4.09-4.41Z"/>
  <path class="cls-1" d="M672.12,791l1.62-5.26c.65,9.54-1.66,18.99.79,28.33h-2.43s.02-23.07.02-23.07Z"/>
  <path class="cls-1" d="M601.66,808.33c1.14-7.47,2.78-15.15-1.6-21.86,6.69,2.15,5.09,13.33,3.65,18.65-.32,1.2-.63,2.88-2.05,3.21Z"/>
  <path class="cls-1" d="M343.12,254.98l-13.77.8v-2.41c3.95-.23,12.29-3.63,13.77,1.61Z"/>
  <path class="cls-1" d="M297.77,256.56c-.38-2.45.6-1.3,1.97-1.64,4.36-1.08,9.03-1.41,13.42-.77v2.42s-15.39-.02-15.39-.02Z"/>
  <path class="cls-1" d="M626.55,249.62l-.36,2.47c-1.05,1.43-11.63-.07-12.2-.87l.82-1.62h11.74Z"/>
  <path class="cls-1" d="M334.22,238.78l-1.6-8.5c.22-4.52.52-9.19-4.62-10.76l-8.32-.98c16.21-2.78,14.56,8.16,14.54,20.25Z"/>
  <path class="cls-1" d="M261.57,789.75c-.12-.95-1.72-2.67-1.63-4.04,1.95-1.82,2.01,2.31,2.2,3.46.69,4.2,1.43,10.21,1.07,14.39-.12,1.42.16,3.12-1.66,3.6-.5-5.49.7-12.07.02-17.41Z"/>
  <path class="cls-1" d="M305.87,246.84l-3.27-14.97c-.06-2.63.14-5.72,2.09-7.7-1.28,7.63.58,15.07,1.18,22.67Z"/>
  <path class="cls-1" d="M611.11,249.67l.05,2.36-9.72-.82c-.69-4.03,9.22-2.27,9.66-1.54Z"/>
  <path class="cls-1" d="M634.65,242.75c-.04.35-.79,3.87-1.62,3.64l-.04-8.54,1.67-12.51c-.45,5.57.59,11.95-.02,17.41Z"/>
  <path class="cls-1" d="M242.11,813.61c-.97,1.29-1.48.01-1.62-1.2-.63-5.46-.85-11.11-.78-16.61l1.51,6.17.89,11.64Z"/>
  <path class="cls-1" d="M554.65,830.14c-1.54.13-.73-2.56-.59-3.43.49-3.18,1.61-8.18,2.48-11.3.23-.83.2-2.45,1.36-2.26.37,5.89-2.49,11.27-3.26,16.99Z"/>
  <polygon class="cls-1" points="696.38 814.1 694.79 805.59 694.8 795.48 696.39 805.61 696.38 814.1"/>
  <path d="M664.58,268.29c.95,1.16-7.96,15.89-10.95,16.97l-1.21-1.59c3.47-1.15,6.4-6.08,8.26-9.17.46-.77,2.52-7.9,3.9-6.21Z"/>
  <path d="M263.72,279.2l1.18,2.44,11.78,11.33c-1.93-.38-4.19-2.36-5.67-3.63-1.56-1.34-8.87-8.49-8.89-9.73l1.61-.4Z"/>
  <path d="M277.94,629.02c-2.25.4-1.37-.46-1.82-1.77-2.65-7.56-4.89-17.64-6.82-25.59-2.02-8.31-4.29-16.8-5.05-25.28l13.7,52.64Z"/>
  <path d="M681.26,574.41c-2.13,15.37-1.91,32.01-7.13,46.79-.46,1.31.42,2.16-1.83,1.77,2.09-6.8,3.68-13.72,4.74-20.77,1.28-8.49,1.16-17.54,2.63-25.76.26-1.44-.89-2.42,1.58-2.03Z"/>
  <path d="M684.03,793.21c3.9-.89,7.15-.46,8.01,3.85.67,3.35-1.21,5.69-1.76,8.9-.2,1.19.45,2.25.37,2.93-.31,2.61-5.01,2.6-6.44,1.6-1.19-.83-.99-4.85-1.74-6.35-.96-1.91-4.29-2.19-3.74-5.67.32-2.02,3.27-4.79,5.31-5.26ZM687.48,808.43c-.56-4.3,3.4-8.53.88-12.61-3.06-1.14-6.16.23-7.2,3.3.55,1.44,2.84,1.8,3.47,2.85.4.67,1.07,8.78,2.85,6.45Z"/>
  <path d="M252.63,811.19c-1.68-.16-4.98.67-6.08-.79-.32-.43-2.46-9.16-2.62-10.34-1.32-9.3,10.52-8.74,11.82-4.49,1.59,5.2-3.85,10.34-3.11,15.62ZM250.2,808.77c-.34-3.71,4.98-9.55,2.53-12.62-1.76-2.21-6.38-.9-6.61,1.7-.04.5,2.06,8.46,2.44,9.74.35,1.18-.45,1.41,1.64,1.18Z"/>
  <path class="cls-1" d="M687.48,808.43c-1.78,2.33-2.45-5.79-2.85-6.45-.63-1.05-2.92-1.41-3.47-2.85,1.05-3.08,4.14-4.44,7.2-3.3,2.51,4.07-1.45,8.31-.88,12.61Z"/>
  <path class="cls-1" d="M250.2,808.77c-2.09.22-1.29,0-1.64-1.18-.38-1.28-2.48-9.24-2.44-9.74.23-2.59,4.84-3.9,6.61-1.7,2.45,3.07-2.86,8.91-2.53,12.62Z"/>
</svg>