<?xml version="1.0" encoding="UTF-8"?>
<svg id="Layer_2" data-name="Layer 2" xmlns="http://www.w3.org/2000/svg" viewBox="0 0 698.58 822.98">
  <defs>
    <style>
      .cls-1 {
        fill: #fff;
      }
    </style>
  </defs>
  <g id="Layer_1-2" data-name="Layer 1">
    <g>
      <path d="M503.88,48.15c-.41-3.03,3.48-4.68,3.91-6.39.35-1.39-.99-14.77-.85-18.44.11-2.91,1.29-17.89,2.24-18.81,6.28-3.97,13.08-1.05,18.9-1.14,9.24-.15,25.14-5.08,27.6,8.54,1.82,10.09-1.73,22.79-1.85,33.04-.01,1.31-.1,3.16,1.03,3.99,17.93-.46,45.44-4.14,58.69,10.77,20.21,22.73,11.01,87.74,10.61,117.34-.63,46.31.61,92.76.92,138.92.23,34.59,2.77,75.03-23.63,101.25,24.59,3.04,37.11,18.16,45.71,39.91,7.47,18.9,13.01,40.08,19.71,59.49,11.11,32.14,26.09,59.03,24.41,93.96-.64,13.34-6.96,37.83-4.32,49.18,2.77,11.88,6.14,16.8,7.11,31.01,1.99,29.13-2.99,58.73.03,87.92,1.35,12.99,12.3,28.26-6.04,35.31-12.83,4.93-35.25,3.8-49.43,4.33-58.49,2.16-117.44,2-176.04,3.77-75.57,2.29-151.19-2.9-226.93-1.19-32,.72-63.92,2.82-95.95,1.85-33.42-1.01-67.21-5.24-100.67-6.06-9.48-.23-17.23,1.82-25.46,2.02-10.26.25-15.56-10.69-12.76-19.69.88-2.83,4.66-4.53,5.68-7.04,2.3-5.63-1.59-22.51-2.16-29.6-.92-11.37-1.14-22.85-1.94-34.22-1.75-24.78-4.89-38.43,1.08-63.41.44-1.85,2.6-5.47,2.91-9.97,1.23-17.98-3.74-35.42-1.88-54.76,3.34-34.68,34.3-121.7,53.54-151.02,8.59-13.09,18.07-19.59,32.72-24.99-21.11-8.43-27.84-36.55-30.95-57.05-5.98-39.34-1.7-78.73-1.09-118.05.39-25.11-.02-50.28.08-75.41.19-49.12-8.92-115.01,58.31-119.72,4.6-.32,15.23,1.01,18.47.08.89-.26.6-5.55,5.48-3.99.81-.76-2.69-18.82-2.9-22.01-.26-4.01-.69-17.23.21-20.33,1.5-5.1,14.32-6.18,18.89-6.53,5.18-.4,16.64-1.22,21.37-.9,15.57,1.03,11.27,15.47,12.36,25.86.93,8.88,1.4,20.52,8.21,26.6,21.14-2.41,42.43-2.08,63.7-2.5,58.36-1.16,116.34.88,175.03-.87,21.97-.66,43.9-.95,65.94-1.01ZM190.92,45.94c-.4-6.38-2.22-12.68-2.84-19.03-.54-5.54,1.59-17.62-2.94-21.49-3.16-2.7-21.12-1.9-25.95-1.55-3,.22-15.29,1.66-16.86,3.18-4.15,4.02,1.36,34.81,1.68,41.85h4.89c-1.36-8.9-7.17-26.15-2.33-34.17,4.12-6.83,25.91-9.32,32.7-6.39,4.26,1.84,5.17,5.61,5.76,9.89.84,6.14,1.8,16.43,1.98,22.55.07,2.32-.9,3.99-.92,6.2l4.83-1.03ZM550.93,44.39c.03-7.94,4.98-31.64-.8-36.74-5.01-4.41-14.38-1.4-20.09-1.35-4.07.03-16.62-2.23-18.68.88-.42,11.82-1.99,23.52-.49,35.26l4.78-.11c3.97-3.39-8.41-23.25,3.56-31.19,4.72-3.13,19.6-2.32,25.03-.51,7.55,2.53,4.48,27.3,2.83,33.8l3.86-.03ZM184.13,33.27c.02-14.6,2.02-27.82-17.57-24.46l10.06,1.19c6.21,1.9,5.84,7.54,5.58,13l1.93,10.27ZM519.7,19.45c-.05,5.7.02,11.43-.02,17.12l22.49,1.98.59-24.52c-4.96-2.17-18.28-3.23-22.41-.04-2.16,1.67-.64,4.24-.65,5.46ZM178.06,13.95c-1.57-1.82-22.89-1.89-24.81-.37-4.43,3.52-1.57,21.04-.31,26.4l28.27-.84-3.14-25.19ZM149.88,43.02c-.72-9.18-2.97-18.16-1.42-27.38-2.35,2.39-2.6,6.12-2.52,9.3l3.95,18.09ZM547.07,38.07c.74-6.59-.52-14.31.02-21.03l-2.02,15.11.05,10.31c1,.28,1.9-3.98,1.95-4.4ZM542.18,43.44c-2.22-4.63-9.59-2.85-14.17-2.95-3.42-.08-6.48-2.87-9.3,1.47-.12.29,2.3,1.46,2.44,1.47l21.03.02ZM182.17,43.06c-1.71-1.89-27.77-.68-28.91.89l-.43,2.98c6.05.88,12.42-.74,18.09-.96,3.43-.13,10.06,3.49,11.25-2.91ZM518.63,46.43c-.54-.88-12.5-3.01-11.67,1.86l11.74.99-.07-2.85ZM537.28,46.37l-14.18-.02-.99,1.96c.69.97,13.47,2.78,14.74,1.05l.44-2.99ZM194.88,52.85c-1.78-6.33-11.86-2.23-16.62-1.95v2.91s16.62-.96,16.62-.96ZM175.32,49.9l-12.09.12-1.61,4.75,12.09-.12,1.61-4.75ZM140.1,54.75l18.59.02v-2.93c-5.3-.77-10.94-.37-16.2.93-1.66.41-2.84-.98-2.38,1.98ZM529.44,52.24c-28.94-1.09-57.73-1.03-86.61-.14-16.88.52-33.85,1.55-50.87,1.9-50.56,1.05-101.04-2.78-151.63-1.14-27.03.87-54.2,4.86-81.16,5.41-19.42.39-44.88-4.19-63.08,2.81-25.95,9.97-32.98,39.42-34.37,64.47-2.37,42.83.51,88.85-.06,132.15-.55,41.8-6.16,84.89,4.79,126.09,4.33,16.29,13.89,39.82,34.12,38.27-26.26-15.43-34.51-47.84-37.08-76.36-1.5-16.62-.2-32.46.08-48.86.37-21.56.64-43.09.97-64.65,7.88-42.92-6.92-101.48,9.23-141.57,17-42.2,80.95-25.24,116.74-28.92,95.41-8.9,191.26,6.05,286.61-7.55,16.26-.84,32.66-.29,48.91-.94,1.19-.05,3.64.74,3.41-.96ZM550.97,53.24l24.95.03c11.81.01,29.29,10.35,34.87,20.9,10.17,19.2,6.91,59.83,7.53,82.39,1.31,47.54,1.55,95.37.82,142.75-.33,21.2-.55,43.46-3.08,64.48-2.26,18.76-6.64,39.07-21.45,51.95,4.33,1.97,9.77-5.98,12.15-9.37,19.63-27.99,14.49-66.1,14.33-98.17-.28-56.74-.1-113.64,1.22-170.25.5-21.2,3.5-43.64-4.36-64.08-10.05-26.15-34.2-22.41-57.67-22.56l-9.31,1.94ZM584.82,416.21c9.27,1.66,15.17-7.6,19.11-14.63,7.51-13.41,9.76-29.4,11.27-44.53,6.15-61.44.72-123.29,3.18-184.92-8.87-48.15,19.11-114.06-52.21-117.94-7.18-.39-13.99.99-20.55,1.04-19.26.12-38.53-.2-57.8-.14-80.53,11.6-160.89,3.57-241.56,5.69-39.36,1.04-79.12.9-118.45,2.73-32.91,1.53-49.56,7.87-56.78,42.01-6.29,29.76-1.62,58.68-2.47,88.6-1.34,47.4-6.79,98.35-4.1,145.71,1.44,25.39,10.63,66.2,34.81,79.6,7.33,4.06,17.9.4,26.19.16,12.47-.37,24.9,1.03,37.17,1.11,108.85.73,217.36-.69,325.77-3.65,31.44-.86,62.98-.44,94.29-1.98,12.95-33.47,12.77-71.38,12.05-106.98-1.04-51.72-1.99-112.62-12.88-163.04-7.46-34.52-12.1-61.76-52.95-64.43-23.97-1.56-48.37-1.09-72.34-4.04-71.73,3.26-143.67,3.63-215.23,6.7-28.01,1.2-60.36,1.35-87.81,6.02-27.82,4.74-39.93,15.62-47.5,42.5-10.3,36.59-10.76,72.71-13.12,110.24-2.89,45.9-13.14,133.26,15.5,171.2,1.34,1.77,3.41,3.2,4.86,4.92-1.77,1.27-4.41-2.33-5.38-3.42-9.65-10.83-14.33-28.81-16.75-42.89-7-40.64-2.6-81.14-.19-121.99s2.8-81.71,14.12-120.99c9.42-32.7,29.38-39.24,60.91-42.77,78.37-8.77,165.21-7.14,244.56-9.53,41.34-1.25,82.95-.1,124.28,3.04,29.26,2.22,37.24,21.87,44.14,46.83,12.59,45.52,14.07,93.65,15.82,140.57,1.35,36.35,4.01,77.67-1.3,113.36-1.83,12.28-5.4,23.96-8.68,35.85ZM685.36,605.12c3.79-8.26,3.55-14.85,1.5-23.47-4.4-18.47-15.53-42.36-21.96-61.15-7.42-21.67-20.12-72.44-35.07-87.16-15.97-15.72-38.91-14.02-59.17-14.17-28.3-.21-56.06,1.26-84.13,1.87-111.82,2.43-223.59,2.94-335.64,2.58-38.31-.12-71.31-5.18-93.58,32.46-17.07,28.84-41.83,98.41-47.62,131.49-2.03,11.58-5.07,28.08,3.58,37.38-2.15-9.38.37-19.19,2.47-28.38,7.93-34.6,22.05-78.98,38.6-110.17,19.79-37.31,28.41-48.5,72.25-53.92,47.26-5.85,92.76-1.68,139.73.07,31.81,1.18,64.12-1.96,95.95-2.83,62.81-1.71,126-1.39,188.81-2.73,19.42-.42,44.89-4.99,62.01,6.44,15.15,10.12,32.61,55.44,39.86,73.58,8.63,21.59,21.54,51.47,27.55,73.16,2.09,7.55,4.83,17.42,2.89,24.96h1.94ZM681.17,609.73c2.41-2.98.88-10.09,1.27-13.89-13.21-43.04-29.42-89.35-48.9-130.04-18.1-37.81-26.94-38.58-67.77-37.83-57.73,1.06-115.49,1.74-173.16,2.75-13.71.24-27.45-.27-41.17-.13-70.23,8.28-138.9-3.62-209.3,1.78-48.24,3.7-60.58,8.01-83.87,50.11-17.88,32.33-29.32,70.31-38.8,106.06-2.67,10.07-11.78,37.5,2.38,41,8.95,2.21,14.06.35,22.2.28,8.97-.07,17.97.17,26.93.06,1.16-13.62,5.26-26.83,9.82-39.62,6.13-17.19,26.27-68.89,36.78-80.66,21.92-24.57,73.78-20.99,104.75-22.34,82.38-3.58,164.91-3.19,247.51-4.62,28.46-.5,57.5-2.11,85.92,2.13,32.13,4.79,50.23,36.16,61.66,63.56,10.16,24.35,16.76,50.18,21.08,76.19,11.32.4,23.68-2,33.46-7.88,1.88-1.13,8.08-5.54,9.2-6.92ZM636.45,625.62c-3.08-27.28-11.23-55.79-22.25-80.91-12.51-28.54-29.78-55.17-63.21-59.07-31.47-3.67-63.37-1.45-94.84-1.05-48.86.62-97.92.99-146.74,1.8-47.8.79-102.53-.6-149.6,5.79-28.63,3.89-41.25,12.79-52.98,38.96-8.04,17.95-17.39,39.76-24.06,58.15-4.67,12.88-9.22,26.83-9.8,40.61,2.19.4,4.33-1.01,6.35-.97,76.99,1.52,153.58,6.43,230.91,6.16,31.2-.11,62.54,1.76,93.92,1.09,33.02-.71,66.79-.46,99.78-1.86,20.53-.87,41.08-4.94,61.61-5.83,12.02-.52,24.22.66,36.23.07,11.57-.57,23.06-3.65,34.7-2.93ZM7.43,622.98c-2.73,14.41,10.32,15.66,21.27,17.36,28.86,4.47,58.78,1.71,87.73,1.3,67.04-.94,133.6,1.56,200.62,3.15,90.03,2.13,180.9,2.21,270.9-1.66,28.77-1.24,66.33.63,90.04-18.47,5.5-4.43,11.22-10.39,10.32-18.06l-8.35,8.28c-23.63,19.62-93.11,15.48-124.23,17.51-73.88,6.57-148.97,8.77-223.02,4.6-95.78,4.07-190.86-5.17-286.71-4.22-12.47.12-23.74,4.04-34.7-5.36-1.77-1.51-2.2-3.57-3.88-4.42ZM94.43,673.94l22.99.02c3.49,0,5.28,14.85,4.38,17.62l130.56-2.85c89.45.27,178.78.98,268.05.3,14.4-.11,28.65.26,43,1.12,3.37-7.65-2.22-13.6,8.89-13.82,5.83-.11,13,1.72,19.15,1.5,3.04,2.13-1.77,13.27,1.39,13.27l26.9.03.02-15.65,24.46-2.91-.02,11.75c13.17-.01,35.95-16.47,38.73-29.25l4.37-37.23c-15.7,17.34-38.52,23.13-61.17,25.36-48.12,4.73-101.1,3.09-149.71,3.72-125.69,1.62-251-5.79-376.58-3.29-22.49.45-44.79,1.63-67.38-1.19-8.27-1.03-16.23-3.12-24.08-5.77,1.11,6.2,1.38,12.77.99,19.11s-4.03,11.86-.06,17.57c6.74,9.69,20.45,16.64,32.27,16.18l1-11.74c8.85,1.07,17.73-2.02,26.3.12l1.08,12.62,25.43-1.94c-1.6-4.9-2.39-9.66-.96-14.67ZM563.93,740.48l.05-49.4-56.74-.06c9.61,6.55,9.12,28.43.45,35.21-3.82,2.99-11.86,4.82-16.63,4.88-6.06.08-15.05-4.06-19.53,2.95-5.88,17.67-7.42,36.81-13.04,54.51-2.02,6.35-3.59,11.58-9.08,15.86l82.7-.84c30.23.58,61.97-3.75,91.91-3.93,19.06-.11,46.38,7.55,64-1.42,9.92-5.05,4.12-10.58,3.18-19.59-2.99-28.56,1.41-57.3-.04-85.95-.6-11.87-2.43-21.79-6.81-32.79-3.02-.23-3.26,3.51-4.89,5.38-8.95,10.31-21.41,18.93-35.14,21.09.74,8.26.57,16.55.86,24.84.31,8.83,2.1,18.52.99,27.46-.47,3.78-2.9,3.98-6.42,4.34-7.53.75-18.5.78-26.37.99-15.83.43-32.63.39-48.26-1.26-.25-.7-1.09-1.72-1.18-2.26ZM276.81,735.77c-6.24.73-13.67-.56-20.05-.02,6.4,8.77,8.49,23.77,14.43,32.02,4.97,6.9,18.51-.91,26.15-1.64,26.1-2.52,63.24.34,89.98,2.06,13.62.87,29.68,4.53,43.09,3.98,2.54-.1,8.94-.77,10.08-2.62l9-39.46-18.1-.02c-1.05,0-7.41-1.44-8.87-1.9-15.56-4.95-15.09-28.96-.12-34.52l8.53-2.7-150.2-1.2c-30.77,2.16-62.1.51-92.85,2.92l-65.1-.12c-.12,17.47,2.77,35.3-.97,52.4-12.92,1.12-25.81.97-38.75,1.32-10.17.28-20.84,2.12-31.15.87-2.8-.34-6.99-1-7.42-4.32l-1.92-51.34c-10.65-.05-22.67-4.89-30.34-12.24-2.2-2.11-2.94-4.02-4.58-6.13-.62-.8.03-1.79-2.23-1.24-5.46,13.59-1.93,27.63-1.04,41.58.99,15.63,1.66,31.33,2.9,46.94.92,11.65,5.44,24.88.93,35.71,11.43,4.13,23.09,2.14,34.71,2.99,13.66,1.01,27.3,5.17,41.05,5.94,21.83,1.23,45.62-2.88,67.56-3.87,23.42-1.06,46.11.4,69.41,1.08,7.33.22,14.73-.21,22.05-.03l-15.81-65.31c-3.58-4.24-26.42,4.16-34.82-8.75-8.64-13.28,1.32-28.63,16.1-30.56,7.9-1.03,15.85.86,23.35.97,17.5.25,34.98-.41,52.44-.54,13.14.99,14.44,26,6.72,32.31-2.43,1.99-11.04,5.03-14.15,5.4ZM623.12,732.23l-31.3-.03c-1.74-1.5-2.2-3.16-2.46-5.36-1.16-10.01,1.07-21.66,1.03-31.32-.02-4.3-2.44-10.04-.97-15.17-3.45,1.4-20.69-2.42-21.56.6l-.86,58.91,11.6,1.12c-1.07-2.23-4.88-1.75-6.81-3.45-1.19-1.05-1.68-2.42-1.92-3.95-1.63-10.48.36-26.76.02-38.13-.12-4.16-1.85-8.68-1-13.16,1.21-1.58,1.77.02,1.95,1.45.9,7.12-.2,16.97-.07,24.51.06,3.37,1,6.86,1.05,10.77.06,4.22-2.78,14.43,1.15,17.82,2.29,1.97,32.44,3.44,37.46,3.25,8.32-.32,19.59-1.68,26.87-5.39l.06-56.25h.98s-.06,56.25-.06,56.25c0,.32,1.33,1.41.97,2.44l-11.73,1.96,10.31,1.02,5.38-1.67-1.93-62.94-18.64,3.52c-1.33,12.79,1.49,25.42,2.01,38,.12,2.78.7,14.52-1.52,15.2ZM113.01,676.9l-15.16-.02c-1.01.73-1.05.87-1.06,1.99-.11,8.1,4,19.08,4.5,27.81.42,7.35-.55,14.63-1.71,21.85l-1.03,1.17c-6.45-.04-24.81,4.54-29.18.03-4.11-4.24-1.89-29.42-2.3-36.79-.1-1.81-1.12-11.72-1.45-12.24-1.22-1.91-4.06-.02-5.92.04-4.07.12-8.16-.09-12.21,0,4.71,18.62,2.31,38.17,3.85,57.23l.92,2.02c16.57-.41,36.03,2.09,52.39.47,15.59-1.55,12.63-15.42,12.31-27.9-.23-8.72-.83-21.74-2.02-30.23-.27-1.95-1.76-3.46-1.9-5.44ZM119.79,742.45l.05-46.47c0-3.54-1.5-13.39-2.65-16.95-.53-1.64.44-2.58-2.22-2.13,2.43,6.72,1.57,13.19,1.94,20.04.56,10.44,2.43,25.98.87,36.14-.81,5.25-4.36,7.55-9.33,8.28l-58.13,1.01-2.02-51.25-2.79-10.39,1.87,62.61,72.4-.9ZM94.13,726.53c1.97-1.7.49-29.79-1.21-32.09l-20.96,1.05,2.84,33.22,19.33-2.18ZM96.36,698.89c.83,6.45-.63,14.4-.02,21.03,2.2-.57,1.87-2.63,2.01-4.35.43-5.06-.46-12.31-1.29-17.39-.23-1.39-.31-6.37-2.66-4.18-.11,1.65,1.82,3.74,1.97,4.88ZM482.74,727.19l16.14.02c9.44.01,13.33-31.96.09-33.32-15.68-1.6-34,1.29-49.99-.04-6.59,2.23-18.05-.39-23.93,2.46-3.25,1.57-5.01,11.13-4.83,14.51.27,5.25,3.7,16.3,10.18,16.31l20.05.02c1.61-6.53-6.54-4.22-11.02-5.13-9.43-1.91-10.67-13.48-1.71-15.95,13.39-3.68,38.27-7.53,51.44-2.41,11.25,4.37,6.78,18.35-4.31,17.8l-2.12,5.72ZM592.34,700.4l-.03,27.88h2.93c-2.95-11.29-.17-22.71-.95-34.23l-1.95,6.35ZM615.82,694.07l-19.57-.02c-.07,11.41-2.74,23.07.46,34.3.24.44,2.41.92,2.93.92l20.05.02c-1.54-11.74-.69-23.61-3.88-35.22ZM507.22,721.35c1.72-.39,2.09-2.43,2.48-3.87,1.73-6.43,3.66-19.93-4.42-22.53,5.3,8.11,3.32,17.38,1.94,26.41ZM422.12,697.78c-1.58-1.5-6.1,5.35-6.6,6.6-3.34,8.35-.86,17.07,7.54,20.78-1.33-3.82-3.45-7.01-3.9-11.25-.55-5.24-.2-11.74,2.96-16.14ZM261.65,732.82l14.18.02c1.62,0,7.74-2.16,9.34-3.37,8.66-6.55,6.12-28.59-7.38-28.96-16.89-.47-34.69,1.26-51.86,1.01-6.87-.1-15.14-2.79-21.92.48-9.26,4.46-8.93,30.75,1.38,30.76l21.03.02c-3.19-6.1-11.03-.15-15.67-5.38-3.15-3.54-2.94-13.7.94-16.73,3.29-2.56,20.03-2.47,25.07-2.39l35.24,2.95c4.2,2.51,2.1,16.61-1.24,17.58-2.77.8-8.99-3.01-9.12,4ZM480.67,705.8c-10.98-.39-22.23-2.92-32.89,1.04l-1.09,11.87c.85,2.5,6.26,1.6,7.48,2.8,1.26,1.24,1.36,8.94,1.22,11.07-.34,5.1-7.86,31.06-10.12,35.88-1.72,3.66-5.14,7.23-8.99,8.62-4.94,1.79-15.06,2.44-20.61,2.85-30.7,2.26-62.97.56-93.95.85-33.92.32-49.27,8.26-63.06-28.85-1.09-2.94-5.74-16.49-5.85-18.61-.16-3.14,3.89-.52,5.75-1.65,2.72-1.64,2.75-14.98.93-18.19l-35.34-2.09-1.47,1.46-1.19,13.45,6.95,2.23c2.82,14.96,7.99,29.49,11.19,44.33,4.73,21.99-2.52,30.4,24.52,34.16,23.53,3.28,47.67.97,71.23,1.23,28.9.33,61.6,3.2,90.03.04,22.86-2.54,26.52-7.14,32.15-28.5,3.42-12.97,5.52-34.15,10.31-45.49,3.21-7.6,11.73-6.46,13.46-11.97.75-2.39.94-15.54-.66-16.55ZM199.07,705.37c-1.91-.56-4.49,4.26-4.94,5.32-2.77,6.48-3.04,12.11,2.48,17.16-.26-7.66-2.05-15.6,2.46-22.48ZM621.65,728.31v-10.26s-1.91-12.24-1.91-12.24v12.21s1.91,10.28,1.91,10.28ZM72.84,727.72l-1.08-14.06-1.82-7.45c-.08,6.64.18,13.48.94,20.07.17,1.46.78,3,1.95,1.45ZM484.71,718.39c10.4.71,10.69-12.95,0-11.75v11.75ZM443.63,708.56c-5.42-.69-11.21,2.56-7.92,8.4l7.9,2.36.02-10.77ZM219.61,712.23c-10.2-3.36-10.62,14.51-2.5,14.7l2.5-14.7ZM270.23,713.5c-1.68-1.48-5.53-.5-7.59-.24l.98,11.72,6.34.06c.99-2.72,2.63-9.46.26-11.54ZM450.43,747.69c.92-6.92,4.38-13.41,3.94-20.53-1.41-.23-1.37,1.72-1.65,2.73-1.06,3.76-2.4,9.81-3,13.65-.16,1.05-1.15,4.3.71,4.15ZM437.69,774.11c-13.49,2.87-27.19-1.08-40.6-2-29.7-2.05-66.54-5.13-95.9-3.09-9.51.66-18.37,4.66-27.85,5.39,9.05,5.23,20.52,6.55,30.87,6.43,7.58-.08,16.79-1.86,24.37-2.01,32-.66,70.72,3.21,101.68-1.91,1.95-.32,6.46-.91,7.44-2.81ZM694.94,795.9c-12.25,8.78-28.1,8.45-42.59,7.82-28.01-1.22-52.19-.89-80.22-.17-2.32.06-4.45,1-6.77,1.05-36.22,3.34-81.33-3.51-116.48.79-4.01.49-9.03,3.66-13.94,4.63-24.39,4.81-54.18,1.25-78.93,1.11-30.22-.17-73.25,4.18-101.53-2.27-4.07-.93-8.14-4.13-11.05-4.6-11.94-1.95-34.96-1.81-47.84-2.1-38.76-.85-79.72,6.46-117.48,3.87-9.89-.68-20.4-4-30.3-4.95-9.21-.88-19.83-.03-29.21-1.15-7.73-.92-19.02-7.89-14.83,7.96,3.54,13.37,16.3,4.99,25.45,4.89,1.65-.02,3.27.95,4.9.98,52.94,1.11,103.23,6.68,156.51,5.07,70.25-2.12,138.2-1.35,208.4.17,37.83.82,72.74-.62,110.5-1.81,52.34-1.64,107.72,1.9,159.46-2.76,10.73-.97,30.76-2.99,25.94-18.55Z"/>
      <path class="cls-1" d="M584.82,416.21c3.28-11.9,6.85-23.58,8.68-35.85,5.32-35.68,2.66-77.01,1.3-113.36-1.75-46.92-3.23-95.05-15.82-140.57-6.91-24.97-14.88-44.61-44.14-46.83-41.33-3.14-82.94-4.29-124.28-3.04-79.35,2.39-166.19.76-244.56,9.53-31.53,3.53-51.49,10.07-60.91,42.77-11.32,39.29-11.73,80.49-14.12,120.99s-6.81,81.35.19,121.99c2.42,14.08,7.11,32.06,16.75,42.89.97,1.09,3.61,4.69,5.38,3.42-1.45-1.72-3.52-3.15-4.86-4.92-28.64-37.94-18.39-125.3-15.5-171.2,2.36-37.53,2.82-73.65,13.12-110.24,7.57-26.87,19.68-37.76,47.5-42.5,27.45-4.67,59.79-4.82,87.81-6.02,71.55-3.07,143.5-3.44,215.23-6.7,23.97,2.95,48.37,2.48,72.34,4.04,40.85,2.66,45.49,29.91,52.95,64.43,10.9,50.43,11.84,111.32,12.88,163.04.72,35.6.9,73.52-12.05,106.98-31.31,1.53-62.85,1.12-94.29,1.98-108.41,2.96-216.92,4.38-325.77,3.65-12.28-.08-24.7-1.48-37.17-1.11-8.29.24-18.86,3.91-26.19-.16-24.18-13.4-33.37-54.21-34.81-79.6-2.69-47.35,2.76-98.31,4.1-145.71.85-29.93-3.82-58.85,2.47-88.6,7.22-34.14,23.86-40.48,56.78-42.01,39.33-1.83,79.1-1.69,118.45-2.73,80.66-2.12,161.02,5.91,241.56-5.69,19.26-.06,38.54.27,57.8.14,6.56-.04,13.37-1.43,20.55-1.04,71.32,3.88,43.34,69.78,52.21,117.94-2.47,61.63,2.97,123.48-3.18,184.92-1.51,15.13-3.76,31.12-11.27,44.53-3.94,7.03-9.84,16.29-19.11,14.63ZM583.23,68.93c-1.68-2.04-4.16,6.57-4.72,7.5-2.24,3.73-5.79,9.69-9.97,11.08l1.47,1.92c3.6-1.31,14.38-19.11,13.22-20.51ZM98.96,82.1l-1.95.49c.03,1.5,8.86,10.14,10.74,11.75s4.52,3.93,6.85,4.39l-14.23-13.69-1.42-2.95Z"/>
      <path class="cls-1" d="M636.45,625.62c-11.63-.72-23.13,2.36-34.7,2.93-12.01.59-24.2-.59-36.23-.07-20.53.89-41.08,4.97-61.61,5.83-32.99,1.39-66.76,1.15-99.78,1.86-31.37.67-62.72-1.2-93.92-1.09-77.32.27-153.91-4.64-230.91-6.16-2.03-.04-4.17,1.38-6.35.97.58-13.78,5.13-27.72,9.8-40.61,6.67-18.39,16.02-40.2,24.06-58.15,11.72-26.18,24.35-35.07,52.98-38.96,47.06-6.4,101.8-5,149.6-5.79,48.82-.81,97.88-1.17,146.74-1.8,31.47-.4,63.37-2.62,94.84,1.05,33.43,3.9,50.7,30.53,63.21,59.07,11.01,25.12,19.17,53.62,22.25,80.91Z"/>
      <path class="cls-1" d="M681.17,609.73c-1.12,1.38-7.33,5.8-9.2,6.92-9.78,5.87-22.14,8.28-33.46,7.88-4.32-26.01-10.93-51.84-21.08-76.19-11.43-27.4-29.53-58.76-61.66-63.56-28.42-4.24-57.46-2.63-85.92-2.13-82.59,1.44-165.13,1.04-247.51,4.62-30.97,1.35-82.83-2.24-104.75,22.34-10.51,11.78-30.65,63.47-36.78,80.66-4.56,12.79-8.65,26-9.82,39.62-8.96.11-17.96-.13-26.93-.06-8.14.07-13.25,1.93-22.2-.28-14.16-3.5-5.05-30.93-2.38-41,9.47-35.75,20.91-73.73,38.8-106.06,23.29-42.1,35.64-46.41,83.87-50.11,70.4-5.41,139.07,6.5,209.3-1.78,13.71-.15,27.46.36,41.17.13,57.67-1.01,115.43-1.69,173.16-2.75,40.83-.75,49.67.02,67.77,37.83,19.48,40.69,35.69,87,48.9,130.04-.39,3.8,1.14,10.91-1.27,13.89ZM603.38,438.74c-2.99-.47-1.6.72-1.91,2.46-1.78,9.92-1.63,20.86-3.17,31.12-1.28,8.52-3.21,16.88-5.73,25.1,2.71.48,1.65-.56,2.21-2.14,6.3-17.86,6.04-37.96,8.61-56.53ZM116.13,504.72l-16.55-63.59c.92,10.25,3.66,20.5,6.1,30.54,2.34,9.6,5.04,21.78,8.24,30.91.55,1.58-.52,2.62,2.2,2.14Z"/>
      <path class="cls-1" d="M276.81,735.77c3.12-.37,11.72-3.41,14.15-5.4,7.72-6.31,6.42-31.32-6.72-32.31-17.46.12-34.94.79-52.44.54-7.5-.11-15.45-2-23.35-.97-14.78,1.92-24.73,17.27-16.1,30.56,8.4,12.91,31.24,4.51,34.82,8.75l15.81,65.31c-7.33-.18-14.72.24-22.05.03-23.29-.68-45.99-2.14-69.41-1.08-21.93.99-45.72,5.1-67.56,3.87-13.75-.78-27.39-4.94-41.05-5.94-11.62-.85-23.28,1.14-34.71-2.99,4.5-10.83-.01-24.06-.93-35.71-1.24-15.61-1.91-31.31-2.9-46.94-.89-13.95-4.42-28,1.04-41.58,2.26-.55,1.6.44,2.23,1.24,1.64,2.1,2.38,4.02,4.58,6.13,7.67,7.35,19.69,12.19,30.34,12.24l1.92,51.34c.43,3.32,4.62,3.98,7.42,4.32,10.31,1.25,20.98-.59,31.15-.87,12.93-.35,25.83-.21,38.75-1.32,3.73-17.1.85-34.94.97-52.4l65.1.12c30.75-2.41,62.08-.76,92.85-2.92l150.2,1.2-8.53,2.7c-14.98,5.56-15.44,29.57.12,34.52,1.45.46,7.82,1.9,8.87,1.9l18.1.02-9,39.46c-1.14,1.85-7.54,2.52-10.08,2.62-13.42.55-29.47-3.11-43.09-3.98-26.74-1.71-63.88-4.58-89.98-2.06-7.64.74-21.17,8.54-26.15,1.64-5.94-8.25-8.03-23.25-14.43-32.02,6.38-.53,13.82.75,20.05.02Z"/>
      <path class="cls-1" d="M94.43,673.94c-1.43,5-.64,9.76.96,14.67l-25.43,1.94-1.08-12.62c-8.56-2.15-17.45.94-26.3-.12l-1,11.74c-11.82.46-25.53-6.49-32.27-16.18-3.97-5.72-.33-11.23.06-17.57s.12-12.91-.99-19.11c7.85,2.65,15.81,4.73,24.08,5.77,22.59,2.82,44.89,1.63,67.38,1.19,125.58-2.5,250.89,4.91,376.58,3.29,48.61-.63,101.59,1.01,149.71-3.72,22.64-2.23,45.47-8.02,61.17-25.36l-4.37,37.23c-2.78,12.78-25.56,29.23-38.73,29.25l.02-11.75-24.46,2.91-.02,15.65-26.9-.03c-3.16,0,1.65-11.14-1.39-13.27-6.14.22-13.32-1.61-19.15-1.5-11.11.22-5.52,6.16-8.89,13.82-14.35-.87-28.6-1.23-43-1.12-89.27.68-178.6-.03-268.05-.3l-130.56,2.85c.9-2.77-.89-17.61-4.38-17.62l-22.99-.02Z"/>
      <path class="cls-1" d="M563.93,740.48c.09.54.93,1.56,1.18,2.26,15.63,1.64,32.44,1.69,48.26,1.26,7.87-.21,18.84-.24,26.37-.99,3.52-.35,5.95-.55,6.42-4.34,1.11-8.94-.68-18.63-.99-27.46-.29-8.29-.12-16.58-.86-24.84,13.73-2.16,26.19-10.78,35.14-21.09,1.62-1.87,1.86-5.61,4.89-5.38,4.38,11,6.21,20.92,6.81,32.79,1.45,28.65-2.95,57.4.04,85.95.94,9.01,6.74,14.54-3.18,19.59-17.62,8.97-44.94,1.31-64,1.42-29.94.18-61.67,4.51-91.91,3.93l-82.7.84c5.49-4.29,7.06-9.51,9.08-15.86,5.62-17.7,7.15-36.83,13.04-54.51,4.49-7.01,13.48-2.87,19.53-2.95,4.77-.06,12.81-1.88,16.63-4.88,8.67-6.78,9.17-28.67-.45-35.21l56.74.06-.05,49.4Z"/>
      <path class="cls-1" d="M480.67,705.8c1.6,1.01,1.41,14.15.66,16.55-1.73,5.51-10.25,4.37-13.46,11.97-4.78,11.34-6.89,32.52-10.31,45.49-5.63,21.36-9.29,25.96-32.15,28.5-28.43,3.16-61.13.28-90.03-.04-23.56-.27-47.71,2.04-71.23-1.23-27.04-3.76-19.79-12.17-24.52-34.16-3.19-14.85-8.37-29.37-11.19-44.33l-6.95-2.23,1.19-13.45,1.47-1.46,35.34,2.09c1.82,3.21,1.78,16.55-.93,18.19-1.86,1.12-5.91-1.49-5.75,1.65.11,2.12,4.76,15.67,5.85,18.61,13.79,37.11,29.14,29.17,63.06,28.85,30.98-.29,63.24,1.41,93.95-.85,5.55-.41,15.67-1.06,20.61-2.85,3.85-1.39,7.27-4.96,8.99-8.62,2.26-4.82,9.78-30.78,10.12-35.88.14-2.13.05-9.83-1.22-11.07-1.22-1.2-6.63-.3-7.48-2.8l1.09-11.87c10.67-3.96,21.92-1.43,32.89-1.04Z"/>
      <path class="cls-1" d="M694.94,795.9c4.82,15.56-15.22,17.58-25.94,18.55-51.74,4.67-107.12,1.12-159.46,2.76-37.76,1.18-72.66,2.63-110.5,1.81-70.2-1.52-138.15-2.29-208.4-.17-53.29,1.61-103.58-3.96-156.51-5.07-1.64-.03-3.25-1-4.9-.98-9.15.11-21.92,8.48-25.45-4.89-4.19-15.85,7.1-8.88,14.83-7.96,9.38,1.12,20,.27,29.21,1.15,9.89.94,20.41,4.27,30.3,4.95,37.75,2.6,78.71-4.72,117.48-3.87,12.88.28,35.9.15,47.84,2.1,2.92.48,6.98,3.68,11.05,4.6,28.29,6.45,71.31,2.1,101.53,2.27,24.74.14,54.54,3.7,78.93-1.11,4.92-.97,9.93-4.14,13.94-4.63,35.15-4.29,80.26,2.55,116.48-.79,2.31-.05,4.45-.99,6.77-1.05,28.03-.72,52.21-1.05,80.22.17,14.49.63,30.35.96,42.59-7.82Z"/>
      <path class="cls-1" d="M685.36,605.12h-1.94c1.94-7.54-.8-17.42-2.89-24.96-6.01-21.68-18.92-51.56-27.55-73.16-7.25-18.14-24.71-63.46-39.86-73.58-17.13-11.44-42.59-6.86-62.01-6.44-62.81,1.35-126,1.02-188.81,2.73-31.83.87-64.14,4.01-95.95,2.83-46.97-1.75-92.46-5.91-139.73-.07-43.84,5.42-52.46,16.62-72.25,53.92-16.55,31.19-30.68,75.57-38.6,110.17-2.11,9.19-4.63,19-2.47,28.38-8.64-9.3-5.61-25.8-3.58-37.38,5.79-33.08,30.55-102.65,47.62-131.49,22.27-37.63,55.27-32.58,93.58-32.46,112.04.36,223.82-.15,335.64-2.58,28.08-.61,55.83-2.07,84.13-1.87,20.25.15,43.2-1.54,59.17,14.17,14.95,14.72,27.65,65.49,35.07,87.16,6.43,18.79,17.56,42.68,21.96,61.15,2.05,8.61,2.28,15.2-1.5,23.47Z"/>
      <path class="cls-1" d="M7.43,622.98c1.68.85,2.11,2.91,3.88,4.42,10.96,9.4,22.23,5.48,34.7,5.36,95.85-.95,190.92,8.3,286.71,4.22,74.05,4.17,149.14,1.97,223.02-4.6,31.12-2.02,100.6,2.11,124.23-17.51l8.35-8.28c.91,7.67-4.82,13.63-10.32,18.06-23.71,19.11-61.27,17.23-90.04,18.47-90,3.87-180.87,3.8-270.9,1.66-67.02-1.59-133.58-4.09-200.62-3.15-28.95.41-58.87,3.17-87.73-1.3-10.95-1.7-24-2.94-21.27-17.36Z"/>
      <path class="cls-1" d="M529.44,52.24c.23,1.71-2.22.92-3.41.96-16.25.65-32.65.09-48.91.94-95.35,13.6-191.2-1.36-286.61,7.55-35.79,3.69-99.75-13.28-116.74,28.92-16.15,40.09-1.35,98.65-9.23,141.57-.33,21.56-.6,43.09-.97,64.65-.28,16.41-1.58,32.24-.08,48.86,2.57,28.52,10.82,60.93,37.08,76.36-20.23,1.56-29.79-21.98-34.12-38.27-10.95-41.2-5.34-84.29-4.79-126.09.57-43.3-2.31-89.31.06-132.15,1.38-25.06,8.42-54.5,34.37-64.47,18.2-7,43.67-2.42,63.08-2.81,26.96-.55,54.13-4.53,81.16-5.41,50.59-1.64,101.07,2.19,151.63,1.14,17.02-.35,33.99-1.38,50.87-1.9,28.88-.89,57.67-.94,86.61.14Z"/>
      <path class="cls-1" d="M623.12,732.23c2.22-.68,1.64-12.43,1.52-15.2-.52-12.58-3.34-25.22-2.01-38l18.64-3.52,1.93,62.94-5.38,1.67-10.31-1.02,11.73-1.96c.36-1.03-.97-2.12-.97-2.44l.06-56.25h-.98s-.06,56.25-.06,56.25c-7.28,3.71-18.55,5.08-26.87,5.39-5.02.19-35.17-1.28-37.46-3.25-3.94-3.39-1.09-13.6-1.15-17.82-.05-3.91-1-7.4-1.05-10.77-.13-7.55.97-17.4.07-24.51-.18-1.43-.74-3.03-1.95-1.45-.85,4.48.88,9,1,13.16.34,11.37-1.65,27.65-.02,38.13.24,1.53.73,2.89,1.92,3.95,1.93,1.7,5.74,1.23,6.81,3.45l-11.6-1.12.86-58.91c.87-3.02,18.11.8,21.56-.6-1.48,5.13.95,10.87.97,15.17.04,9.66-2.19,21.31-1.03,31.32.25,2.2.72,3.87,2.46,5.36l31.3.03Z"/>
      <path class="cls-1" d="M113.01,676.9c.13,1.98,1.62,3.49,1.9,5.44,1.19,8.49,1.79,21.51,2.02,30.23.32,12.48,3.28,26.35-12.31,27.9-16.36,1.62-35.82-.88-52.39-.47l-.92-2.02c-1.53-19.06.86-38.61-3.85-57.23,4.06-.08,8.15.12,12.21,0,1.87-.05,4.7-1.95,5.92-.04.33.52,1.35,10.43,1.45,12.24.42,7.37-1.8,32.55,2.3,36.79,4.37,4.51,22.73-.08,29.18-.03l1.03-1.17c1.15-7.22,2.12-14.51,1.71-21.85-.5-8.72-4.6-19.7-4.5-27.81.02-1.13.05-1.27,1.06-1.99l15.16.02Z"/>
      <path class="cls-1" d="M550.97,53.24l9.31-1.94c23.47.15,47.62-3.58,57.67,22.56,7.86,20.44,4.85,42.88,4.36,64.08-1.32,56.61-1.5,113.51-1.22,170.25.16,32.06,5.29,70.18-14.33,98.17-2.38,3.39-7.82,11.35-12.15,9.37,14.81-12.88,19.19-33.19,21.45-51.95,2.53-21.02,2.75-43.28,3.08-64.48.73-47.38.49-95.21-.82-142.75-.62-22.56,2.64-63.2-7.53-82.39-5.59-10.55-23.07-20.89-34.87-20.9l-24.95-.03Z"/>
      <path class="cls-1" d="M482.74,727.19l2.12-5.72c11.1.55,15.56-13.43,4.31-17.8-13.17-5.12-38.05-1.28-51.44,2.41-8.96,2.47-7.72,14.03,1.71,15.95,4.48.91,12.63-1.4,11.02,5.13l-20.05-.02c-6.48,0-9.91-11.05-10.18-16.31-.17-3.38,1.58-12.94,4.83-14.51,5.88-2.85,17.34-.23,23.93-2.46,15.99,1.33,34.31-1.57,49.99.04,13.23,1.35,9.35,33.33-.09,33.32l-16.14-.02Z"/>
      <path class="cls-1" d="M261.65,732.82c.13-7.01,6.36-3.2,9.12-4,3.35-.97,5.44-15.08,1.24-17.58l-35.24-2.95c-5.04-.08-21.78-.17-25.07,2.39-3.88,3.03-4.09,13.18-.94,16.73,4.64,5.22,12.48-.73,15.67,5.38l-21.03-.02c-10.31-.01-10.64-26.31-1.38-30.76,6.78-3.26,15.04-.58,21.92-.48,17.16.25,34.97-1.48,51.86-1.01,13.5.37,16.04,22.4,7.38,28.96-1.6,1.21-7.72,3.37-9.34,3.37l-14.18-.02Z"/>
      <path class="cls-1" d="M437.69,774.11c-.98,1.9-5.49,2.49-7.44,2.81-30.95,5.12-69.67,1.25-101.68,1.91-7.57.16-16.79,1.93-24.37,2.01-10.35.11-21.82-1.21-30.87-6.43,9.48-.73,18.34-4.73,27.85-5.39,29.36-2.04,66.2,1.04,95.9,3.09,13.41.93,27.11,4.87,40.6,2Z"/>
      <path class="cls-1" d="M178.06,13.95l3.14,25.19-28.27.84c-1.25-5.36-4.12-22.88.31-26.4,1.92-1.52,23.24-1.45,24.81.37Z"/>
      <path class="cls-1" d="M519.7,19.45c.01-1.22-1.5-3.79.65-5.46,4.13-3.19,17.45-2.13,22.41.04l-.59,24.52-22.49-1.98c.04-5.69-.03-11.41.02-17.12Z"/>
      <path class="cls-1" d="M615.82,694.07c3.19,11.61,2.33,23.48,3.88,35.22l-20.05-.02c-.52,0-2.69-.48-2.93-.92-3.2-11.23-.52-22.89-.46-34.3l19.57.02ZM606.72,703.08c-2.46.56-6.02,3.92-6.41,6.36-.67,4.2,3.36,4.54,4.51,6.85.9,1.81.67,6.67,2.1,7.67,1.74,1.21,7.41,1.22,7.79-1.93.1-.83-.69-2.11-.44-3.54.66-3.87,2.94-6.7,2.13-10.75-1.04-5.21-4.97-5.73-9.68-4.65Z"/>
      <path class="cls-1" d="M190.92,45.94l-4.83,1.03c.02-2.21.99-3.88.92-6.2-.18-6.12-1.14-16.41-1.98-22.55-.59-4.28-1.49-8.06-5.76-9.89-6.79-2.93-28.59-.44-32.7,6.39-4.84,8.02.98,25.27,2.33,34.17h-4.89c-.32-7.03-5.83-37.82-1.68-41.84,1.56-1.52,13.86-2.96,16.86-3.18,4.83-.35,22.79-1.14,25.95,1.55,4.54,3.88,2.4,15.96,2.94,21.49.62,6.35,2.45,12.65,2.84,19.03Z"/>
      <path class="cls-1" d="M94.13,726.53l-19.33,2.18-2.84-33.22,20.96-1.05c1.7,2.3,3.18,30.39,1.21,32.09ZM85.56,724.8c-.9-6.39,5.68-12.59,3.76-18.87-1.57-5.14-15.87-5.81-14.28,5.42.2,1.43,2.78,11.98,3.17,12.49,1.34,1.77,5.32.77,7.35.96Z"/>
      <path class="cls-1" d="M550.93,44.39l-3.86.03c1.65-6.49,4.73-31.27-2.83-33.8-5.43-1.82-20.3-2.63-25.03.51-11.98,7.95.41,27.81-3.56,31.19l-4.78.11c-1.5-11.74.08-23.44.49-35.26,2.06-3.11,14.6-.85,18.68-.88,5.71-.04,15.09-3.06,20.09,1.35,5.78,5.09.82,28.8.8,36.74Z"/>
      <path class="cls-1" d="M119.79,742.45l-72.4.9-1.87-62.61,2.79,10.39,2.02,51.25,58.13-1.01c4.97-.74,8.52-3.04,9.33-8.28,1.57-10.16-.3-25.71-.87-36.14-.37-6.85.49-13.32-1.94-20.04,2.65-.45,1.69.49,2.22,2.13,1.15,3.56,2.65,13.4,2.65,16.95l-.05,46.47Z"/>
      <path class="cls-1" d="M182.17,43.06c-1.19,6.41-7.82,2.78-11.25,2.91-5.67.22-12.04,1.84-18.09.96l.43-2.98c1.14-1.56,27.2-2.78,28.91-.89Z"/>
      <path class="cls-1" d="M422.12,697.78c-3.16,4.39-3.51,10.9-2.96,16.14.45,4.23,2.57,7.42,3.9,11.25-8.4-3.71-10.88-12.43-7.54-20.78.5-1.25,5.02-8.1,6.6-6.6Z"/>
      <path class="cls-1" d="M219.61,712.23l-2.5,14.7c-8.12-.19-7.7-18.06,2.5-14.7Z"/>
      <path class="cls-1" d="M270.23,713.5c2.37,2.08.73,8.82-.26,11.54l-6.34-.06-.98-11.72c2.06-.26,5.9-1.24,7.59.24Z"/>
      <path class="cls-1" d="M443.63,708.56l-.02,10.77-7.9-2.36c-3.3-5.85,2.5-9.09,7.92-8.4Z"/>
      <path class="cls-1" d="M484.71,718.39v-11.75c10.69-1.2,10.4,12.45,0,11.75Z"/>
      <path class="cls-1" d="M542.18,43.44l-21.03-.02c-.14,0-2.56-1.18-2.44-1.47,2.82-4.34,5.88-1.55,9.3-1.47,4.58.11,11.95-1.67,14.17,2.95Z"/>
      <polygon class="cls-1" points="175.32 49.9 173.71 54.65 161.62 54.77 163.23 50.02 175.32 49.9"/>
      <path class="cls-1" d="M199.07,705.37c-4.51,6.88-2.73,14.82-2.46,22.48-5.51-5.05-5.25-10.68-2.48-17.16.45-1.06,3.03-5.89,4.94-5.32Z"/>
      <path class="cls-1" d="M592.34,700.4l1.95-6.35c.78,11.52-2,22.94.95,34.23h-2.93s.03-27.87.03-27.87Z"/>
      <path class="cls-1" d="M507.22,721.35c1.38-9.03,3.36-18.3-1.94-26.41,8.08,2.6,6.15,16.1,4.42,22.53-.39,1.45-.76,3.48-2.48,3.87Z"/>
      <path class="cls-1" d="M194.88,52.85l-16.63.96v-2.91c4.77-.28,14.85-4.39,16.63,1.95Z"/>
      <path class="cls-1" d="M140.1,54.75c-.46-2.96.73-1.57,2.38-1.98,5.26-1.3,10.91-1.7,16.21-.93v2.93s-18.6-.02-18.6-.02Z"/>
      <path class="cls-1" d="M537.28,46.37l-.44,2.99c-1.27,1.73-14.05-.08-14.74-1.05l.99-1.96,14.18.02Z"/>
      <path class="cls-1" d="M184.13,33.27l-1.93-10.27c.26-5.46.63-11.1-5.58-13l-10.06-1.19c19.58-3.36,17.59,9.86,17.57,24.46Z"/>
      <path class="cls-1" d="M96.36,698.89c-.15-1.14-2.07-3.23-1.97-4.88,2.35-2.2,2.43,2.79,2.66,4.18.84,5.08,1.72,12.33,1.29,17.39-.15,1.72.19,3.77-2.01,4.35-.6-6.64.85-14.58.02-21.03Z"/>
      <path class="cls-1" d="M149.88,43.02l-3.95-18.09c-.07-3.18.17-6.91,2.52-9.3-1.55,9.22.7,18.21,1.42,27.38Z"/>
      <path class="cls-1" d="M518.63,46.43l.07,2.85-11.74-.99c-.83-4.87,11.13-2.74,11.67-1.86Z"/>
      <path class="cls-1" d="M547.07,38.07c-.05.42-.95,4.68-1.95,4.4l-.05-10.31,2.02-15.11c-.54,6.73.71,14.44-.02,21.03Z"/>
      <path class="cls-1" d="M72.84,727.72c-1.18,1.55-1.78.01-1.95-1.45-.77-6.59-1.02-13.43-.94-20.07l1.82,7.45,1.08,14.06Z"/>
      <path class="cls-1" d="M450.43,747.69c-1.86.15-.88-3.09-.71-4.15.6-3.85,1.95-9.89,3-13.65.28-1.01.24-2.96,1.65-2.73.44,7.12-3.01,13.61-3.94,20.53Z"/>
      <polygon class="cls-1" points="621.65 728.31 619.72 718.03 619.73 705.82 621.66 718.05 621.65 728.31"/>
      <path d="M583.23,68.93c1.15,1.4-9.62,19.19-13.22,20.51l-1.47-1.92c4.19-1.38,7.73-7.35,9.97-11.08.56-.93,3.04-9.54,4.72-7.5Z"/>
      <path d="M98.96,82.1l1.42,2.95,14.23,13.69c-2.33-.46-5.06-2.85-6.85-4.39-1.89-1.62-10.72-10.26-10.74-11.75l1.95-.49Z"/>
      <path d="M116.13,504.72c-2.72.48-1.65-.56-2.2-2.14-3.21-9.13-5.91-21.32-8.24-30.91-2.44-10.04-5.19-20.29-6.1-30.54l16.55,63.59Z"/>
      <path d="M603.38,438.74c-2.57,18.57-2.31,38.67-8.61,56.53-.56,1.58.5,2.61-2.21,2.14,2.53-8.21,4.45-16.57,5.73-25.1,1.54-10.26,1.4-21.19,3.17-31.12.31-1.74-1.07-2.93,1.91-2.46Z"/>
      <path d="M606.72,703.08c4.71-1.08,8.63-.55,9.68,4.65.81,4.05-1.47,6.87-2.13,10.75-.25,1.43.54,2.71.44,3.54-.38,3.15-6.05,3.14-7.79,1.93-1.44-1-1.2-5.86-2.1-7.67-1.16-2.31-5.19-2.65-4.51-6.85.39-2.44,3.95-5.79,6.41-6.36ZM610.9,721.46c-.68-5.19,4.1-10.31,1.07-15.23-3.7-1.38-7.44.27-8.7,3.99.66,1.74,3.43,2.17,4.19,3.44.48.81,1.29,10.61,3.44,7.8Z"/>
      <path d="M85.56,724.8c-2.03-.19-6.01.82-7.35-.96-.39-.51-2.97-11.06-3.17-12.49-1.59-11.23,12.7-10.56,14.28-5.42,1.93,6.28-4.65,12.49-3.76,18.87ZM82.63,721.87c-.4-4.48,6.02-11.54,3.06-15.24-2.13-2.67-7.7-1.08-7.98,2.05-.05.6,2.49,10.22,2.95,11.77.42,1.43-.54,1.7,1.98,1.43Z"/>
      <path class="cls-1" d="M610.9,721.46c-2.15,2.81-2.96-6.99-3.44-7.8-.76-1.27-3.53-1.7-4.19-3.44,1.26-3.72,5-5.37,8.7-3.99,3.04,4.92-1.75,10.04-1.07,15.23Z"/>
      <path class="cls-1" d="M82.63,721.87c-2.52.27-1.56,0-1.98-1.43-.45-1.54-3-11.16-2.95-11.77.28-3.13,5.85-4.71,7.98-2.05,2.96,3.7-3.46,10.77-3.06,15.24Z"/>
    </g>
  </g>
</svg>