<?xml version="1.0" encoding="UTF-8"?>
<svg id="Layer_2" data-name="Layer 2" xmlns="http://www.w3.org/2000/svg" viewBox="0 0 803.82 466.34">
  <defs>
    <style>
      .cls-1 {
        fill: #fff;
      }
    </style>
  </defs>
  <g id="Layer_1-2" data-name="Layer 1">
    <g>
      <path d="M690.51,4.98c20.88,2,39.72,19.41,49.12,37.31,3.36,6.4,1.78,8.1,3.28,13.71,3.55,13.25,9.14,28.16,13.52,41.43,7.28,22.08,16.65,54.45,26.21,74.7,1,2.12,3.94,2.15,6,4.99,14.37,19.8,16.27,75.96,9.24,98.6-1.85,5.97-5.63,7.15-6.96,10.05-1.49,3.25,2.07,12.09,2.48,16.48,1,10.58-.11,22.27,2.05,32.91l-2.11,31.86c3.31,1.99,6.1,2.65,7.41,6.81,1.75,5.56,2.44,18.98,2.7,25.28.78,18.88,2.47,51.28-20,58.01-10.98,3.29-52.23,6.94-63.36,5.39-3.39-.47-6.57-3.25-8.05-3.45-12.51-1.64-40.61-.41-54.93-.5-41.15-.26-81.84,2.61-122.9,4.05-77.99,2.72-156.09-3.66-233.8-2.07-43.6.89-87.15,4.34-130.88,3.1-23.77-.67-47.65-4.12-71.36-3.53-10.62,8.3-34.56,6.17-48.52,5.53-24.72-1.15-41.08-4.08-43.39-32.53-.76-9.32-1.01-50.24,3.49-56.42,1.38-1.89,3.27-2.41,5.32-3.17l-4.92-61.29,3.91-17.86c-8.56-5.74-10.19-13.58-11.67-23.25-3.61-23.6-3.68-47.88,4.11-70.54,3.14-9.13,6.59-21.34,17.77-22.4,8.22-27.45,16.85-54.95,26.91-81.78,5.26-14.04,12.18-25.18,14.05-39.81.59-4.61,5.67-11.68,8.53-15.54,9.14-12.3,23.09-23.16,38.38-26.07M671.53,2.98c7.38-.07,7.3,2.49,12.5-2.98M139.28,8.76c10.6.46,20.97-2.98,31.19,1.29,138.44.64,276.61.02,414.69-4.03,15.54-.46,43.78.78,56.43-4.5,6.09-2.54,25.3,1.97,27.81.34M738.46,50.94c-5.67-17.05-22.35-35.57-39.93-40.48-6.03-1.69-52.97-7.39-54.96-5.47,2.62,12.99,15.76,22.48,26.66,28.77,20.14,11.63,44.94,18.04,68.23,17.17ZM640.42,8.12c-11.43-.06-22.93-.37-34.37-.18-14.1.24-28.77,1.7-42.87,2.08-130.62,3.49-261.68,3.31-392.69,2.9l-2.95,1.05-3.48,8.99c14.31-1.59,28.97-1.56,43.44-2,53.84-1.64,104.97,3.47,158.86,1.02,79.47-3.62,159.19-2.61,238.7-5.05,12.83-.39,25.7,0,38.5-.97l-3.13-7.85ZM164.05,11.99c-24.61.4-55.67,2.72-75.39,19.01-3.66,3.03-23.24,24.17-19.51,27.94,22.57-.3,46.55-5.98,66.24-17.17,11.13-6.32,25.27-17,28.66-29.77ZM731.82,192.17c5.67-5.62,13.15-10.36,19.95-14.51l18.62-6.31c-15.88-38.28-28.77-77.7-46.68-115.14l-1.9-2.09c-28.99-3.15-58.43-14.77-77.87-36.9-90,4.39-180.49,2.19-270.59,5.77-50.67,2.01-97.85-1.64-147.82-.97-20.98.28-41.9.15-62.82,2.12-18.39,22.7-47.4,32-75.07,37.82-10.51,18.1-21.08,36.5-28.97,55.95-7.99,19.69-12.06,40.29-18.46,60.52-.12.9.27,1.38.95,1.91,1.42,1.11,10.79,4.18,14.02,5.97,20.19,11.25,37.56,36.01,38.95,59.46,51.02.18,102,2.41,152.83,4.99.31-.23-.51-1.19-.99-1.5-1.83-1.19-16.52-5.96-19.92-7.05-2.31-.74-4.82.1-7.04-.99-1.76-.86-4.24-5.18-2.84-7.28,11.49-6.32,21.75-14.65,32.88-21.55,11.92-7.4,29.31-14.7,39.37-23.57,2.31-2.04,4.53-7.49,8.05-8.01,4.32-.64,3.46,2.04,5.73,3.34,27.08,15.47,71.47,17.43,100.89,30.88,3.87,1.77,6.75,3.64,3.29,7.85-2.55,3.1-13.76,11.42-17.64,14.32-5.9,4.41-12.86,7.77-18.63,12.29-.81.64-1.84-.03-1.26,2.28,28.73-3.19,57.47,4.29,86.45,2.04,41.1-5.23,82.65-1.28,123.87-3,20.46-.85,41.63-4.96,61.9-6.03,22.42-1.18,45.07,1.05,67.43-2-1.52-17.67,11.12-38.5,23.32-50.61ZM778.41,172.83l-39.11-116.23c-2.05-3.43-10.32-.92-13.82-1.65,16.65,37.64,31.12,76.13,45.71,114.63,1.17,2.7,4.69,2.64,7.23,3.25ZM85.13,61.94l-16.09,1.61c-6.78,13.92-12.53,28.29-17.9,42.82-6.68,18.12-18.89,48.54-22.51,66.41-.41,2.03-.65,3.98-.46,6.05l9.97,1c5.5-17.01,8.96-34.73,14.84-51.63,8.11-23.34,20.54-44.6,32.14-66.26ZM775.09,176.21c-23.45-.35-43.9,18.69-54.78,37.91-15.31,27.05-7.15,38.4,16.26,55.01,12.18,8.64,38,22.53,52.17,13.43,6.12-3.93,8.14-20.17,8.65-27.32,1.62-22.74.34-53.77-10.77-74.12-2.59-4.73-6.41-4.84-11.52-4.91ZM9.22,282.73c2.03,9.24,12.6,9.63,20.35,8.87,19.81-1.94,62.77-28.17,60.31-51.07-2.23-20.72-24.33-46.92-43.45-54.48-6.37-2.52-24.54-6.32-29.09-.6-6.28,7.89-12.51,33.57-13.17,43.78s-.14,35.49,2.51,44.53c2.76,9.4,13.06,16.27,22.9,13.85l22.58-7.39c-13.01,7.83-30.4,14.95-42.94,2.5ZM241.97,235.78c1.57-.58,8.84-3.17,7.99.49l-8.98,3.51c-.24-1.56.28-2.69.99-3.99-2.27.84-4.3,1.66-5.97,3.5-.02,1.01,11.75,5.83,13.32,5.57.77-.13,1.26-2.55,2.65-3.55,1.08-.77,9.49-5.04,9.97-4.52.5,5.02-6.25,6.65-9.98,8-.57.76,11.92,8.97,13.98,4.48l-3-1c-.2-3.11,7.3-5.64,10-5.48.61,3.35-1.16,5.03-3.5,6.99l1.01,2h81.92c7.58-6.33,15.13-13.01,23-18.96,3.19-2.4,15.49-12,17.97-13,.46-.19,1.64-.26,1.48.48-11.39,10.27-25.46,18.79-36.68,29.19-.6.55-2.94.64-.77,2.29l43.44-31.97c-7.78-2.08-15.25-5.24-22.98-7.5-11.06-3.24-34.71-10.89-44.93-12.09-2.78-.33-4.37.15-7,.59l1.98-1.98-19.9-4.51c-9.62,5.45-19.5,10.34-28.96,16.07-5.36,3.25-35.41,22.4-37.05,25.39ZM287.92,201.82c-20.73,9.14-38.82,23.45-57.94,35.45l3.96,1,53.98-36.45ZM256.95,214.81c-7.32,3.2-15.01,7.69-20.98,12.97,7.22-3.34,14.94-7.89,20.98-12.97ZM717.48,258.75l-7.49-11.97-2.97-1.11c-20.47,3.39-41.39,1.03-61.95,2.11-25.22,1.32-50.54,6.29-75.89,7.02-49.71-3.82-99.28,3.71-148.93,2-25.3-.87-48.26-2.31-73.92-2.08-78.99.71-157.58-3.53-236.76-4.91-5.27-.09-11-2.8-16.42.48l-6.02,10.46,73.46-.95c176.01-.24,352.24,10.15,528.46,1,9.42-.49,18.99-1.67,28.42-2.04ZM771.42,288.74c-20.37-3.4-37.33-15.74-52.46-28.99-112.23,6.93-225.13,6.98-337.6,4.96-85.2-1.53-169.53-5.61-254.82-3-13.17.4-26.57,1.83-39.9,1.06-2.86.55-8.2,7.62-11.04,9.94-14.96,12.23-33.76,22.5-53.41,23.5,9.24,10.6,22.65,17.9,36.96,17.49l.93-12.56,13.05-.45c-14.6-21.4,4.34-26.61,22.49-27.95,15.68-1.16,55.8-3.49,41.44,22.96,13-2.72,11.24,11.09,11.98,20l51.41-1.05c90.61-1.84,181.01-2.84,271.8-2,54.76.51,110.13-1.38,164.84,0,3.07.08,6.22,1.36,8.95,1.15,3.8-.29,2.02-8.84,2.52-11.56,1.29-7.12,19.51-1.88,24.94-2.53l-8.7-3.77c-7.23-4.31-7.62-18.37-.21-22.62,8.61-4.94,38.88-4.88,49.25-3.45,5.34.74,15.01,2.42,16.4,8.58.72,3.21.72,10.62-1.29,13.28-1.22,1.62-3.32,1.37-3.49,2.99l11.99-.99c.51,2.6-1.37,13.16,1.57,13.87,5.79,1.39,26.35-11.45,30.87-15.89.97-.95,1.9-1.29,1.52-2.97ZM710.49,314.71v-16.49c6.04-6.67,17.88-3.84,16.76-15.76-.71-7.49-14.04-9.19-20.27-9.7-7.89-.65-35.79.15-41.83,4.09-4.43,2.88-3.07,12.95,1.01,15.76,3.18,2.2,11.11,2.23,12.86,6.13,1.59,3.57-1.4,15.97,1.02,15.97h30.47ZM120.36,298.97c4.02-4.28,15.47-.44,15.81-11.74.18-5.87-1.29-6.96-6.3-8.77-10.83-3.92-41.5-3.04-52.01,1.48-5.65,2.43-6.52,5.09-5.63,11.22,1.45,10.05,12.81,6.2,14.92,10.3l1.95,14.58c.77,3.65,25.76.48,30.08.22,3.32-2.34-2.44-13.42,1.2-17.29ZM647.55,314.71h-63.93c8.41,5.82,8.01,18.07,7,27.48-1.32,12.26-12.36,16.93-23.44,17.51-11.88.63-21.57-6.54-25.87,9.11-4.99,18.18-6.9,37.53-12.35,55.59-2.15,7.12-4.12,13-10.27,17.71,14.76.69,29.7.76,44.5.54,34.81-.52,70.05-1.88,104.85-3.03,15.8-.53,31.59-.56,47.35-2.1,8.32-36.4,40.12-59.3,74.58-68.78,1.37-16.02,2.25-32.43,1.48-48.56-.3-6.27-1.06-16.86-2.12-22.86-.58-3.3-2.37-6.28-2.94-9.57-3.94,1.42-9.24.63-12.89,2.57-2.13,1.14-6.01,5.39-8.75,7.23-8.74,5.87-16.1,10.37-26.86,12.14.97,20.21,2.99,40.32,1.57,60.49l-1.64,2.36-88.27.64c-4.16-2.02-.48-15.77-2.89-20.09l.9-38.36ZM518.69,358.67h-22.48c-1.4,0-7.72-1.84-9.47-2.51-13.34-5.13-15.38-24.48-5.65-34.09,4.24-4.19,7.72-4.02,12.84-5.65,1.05-.33,3.02-.26,2.78-1.69-57.44-.08-114.84-1.83-172.36-1.05-51.93.7-104.86,1.77-156.76,4.08-5.81.26-11.72-.27-17.53-.05v57.96c-14.1,1.37-28.29,1.52-42.44,2-1.91.07-3.84.97-5.96,1.03-5.17.14-38.72.99-39.55-2.69l-2.94-60.3c-8.48.38-18.78-3.02-25.89-7.58-5.32-3.4-8.54-8.42-13.07-11.91-1-.77-1.27-1.93-3-1.49-7.21,25.88,1.61,53.27,1.12,79.79,34.29,8.66,57.72,25.47,72.65,57.72,4.7,10.15.99,10.54,14.58,11.4,31.55,1.99,66.08-4.91,97.91-5.08l82.46,2.03c-6.02-8.95-4.99-20.92-7.25-31.21-3.15-14.31-7.83-28.46-11.22-42.73-9.48-2.42-19.47.52-29.29-2.68-21.01-6.85-15.1-37.67,6.54-41.03,22.06-3.42,50.93,4.59,73.69-.23,7.93.16,16.22-1.7,21.99,4.96,5.07,5.85,5.65,19.11,3.2,26.24-4.16,12.11-28.96,12.58-39.45,10.95l-2.25,1.33c5.18,9.1,7.78,19.41,12.13,28.81.72,1.55,3.67,8.05,4.34,8.65,4.47,3.97,23.29-3.43,30-4,43.49-3.64,87.71,3.56,130.86,5.97,9.21.51,18.61-.24,27.83-.12l11.62-46.83ZM715.48,360.66h-37.96l-1.1-56.3-2.4-1.65c-3.95,1.29-20.04-2.94-22.04-.06-1.58,21.46-1.63,42.94-1.41,64.48,1.1,5.85,10.21,2.84,14.45,3.53l-8.46-3.53c-4.21-4.55-1.95-9.3-1.98-13.92-.08-16.28-.9-32.27-1.04-48.49l1.98,9.5c1.27,14.55-1.66,31.76-.01,45.97.97,8.32,8.82,7.75,15.52,8.46,13.41,1.43,30.36,1.67,43.67-.26,2.69-.39,13.9-2.22,14.62-4.36l.36-62.04,1.78-1.26v63.44c0,.32,1.38,1.42.99,2.49l-12.98,3h15.48c1.43-.88,1.38-1.99,1.55-3.45,1.37-11.64-.67-24.41-1.09-35.98-.4-10.86-.28-21.7-.95-32.52l-19.99,2c.49,7.66-1.21,14.84-1.03,22.53.25,10.41,2.77,22.38,3.08,32.98.06,1.97-.68,3.59-1.04,5.44ZM82.63,303.72h-17.48c5.32,22.18,1.82,45.39,4.99,67.94,6.15-.19,12.37.22,18.53.04,12.72-.37,32.21.45,43.82-1.13,6.29-.86,9.85-4.03,10.58-10.4,1.6-14.16-.23-40.39-1.97-54.97-.29-2.44-.73-4.96-3.52-5.47-2.56-.47-13.33-.39-14.35,2.63-1.66,4.9,1.64,19.92,1.9,25.8.44,10.16-.13,20.35-1.14,30.41-.9,1.1-25.16,2.44-28.42,2.15-2.74-.25-6.13-.71-7.22-3.77-2.83-7.96,1.01-51.2-5.72-53.23ZM128.59,372.65c-19.16,1.81-40.99-1.35-60.44,0,.66-10.85-1.46-21.65-2.04-32.43-.66-12.22,1.31-24.59-2.46-36.52-3.37,23.29,1.88,47.35,1.49,70.95l81.93-2c-.56-15.42.74-31.04-.02-46.45-.3-6.04-.93-16.05-2.24-21.74-.4-1.75-.85-4.69-3.23-4.76,2.34,12.19,2.07,24.98,2.5,37.47.26,7.45,3.44,27.28-3.62,32.36-1.8,1.29-9.51,2.89-11.87,3.12ZM555.65,355.67h17.48c4.08,0,8.24-4.81,9.24-8.74,2.12-8.28,3.4-27.89-8.22-29.25-13.49-1.57-36.82-.53-51.02-.03-8.39.3-22.04.64-29.9,2.07-9.94,1.8-9.32,27.89-1.5,33.43,1.14.81,7.37,2.52,8.47,2.52h19.48c1.45-7.28-8.48-5.19-13.25-6.23-6.28-1.36-9.24-6.59-7.27-12.8,1.78-5.62,10.74-5.19,15.55-6.42,1.54-.39,2.92-1.91,4.71-2.29,8.58-1.83,35.34-1.46,43.48,1.01,12.49,3.79,8.53,21.13-4.27,20.21l-2.98,6.52ZM705.49,317.7h-21.98c.77,12.89-3.09,25.76.88,38.39.17.24,5.32,1.57,5.62,1.57h20.48c-2.01-13.33-.05-26.98-4.99-39.96ZM115.93,318.87l-22.92,1.41c-2.9,4.09,3.03,30.75,3.22,37.27,4.44-.57,20.4.15,22.38-3.87s-.37-11.28-.56-15.46c-.29-6.53,1.39-13.46-2.12-19.35ZM122.09,349.67v-22.48c0-.38-1.29-7.18-1.48-7.51-.59-.97-1.43-1.16-2.51-.98-.69,1.75,1.99,3.7,1.99,4.49v21.98c0,.74,1.62,2.93,1.01,4.49h.99ZM583.63,349.67c5.95-6.07,6.81-27.15-2-30.97-.14,2.32,1.84,3.87,2.48,6,2.6,8.64.36,16.25-.48,24.97ZM682.51,318.71c-1.28-1.69-1.81.12-1.98,1.49-1.2,9.51-1.81,22.52-1.06,32.03.14,1.76-.2,3.27,1.57,4.43,2.57.41,1.34-1.77,1.19-3.19-1.23-12.06-.29-22.78.28-34.76ZM486.71,322.7c-1.57-1.65-5.99,5.75-6.48,6.99-4.01,10.04-1.22,19.06,8.48,23.97-.99-3.12-2.66-5.64-3.51-8.96-1.76-6.9-.95-15.42,1.52-22.01ZM247.46,362.66c6.16.63,13.21-.46,19.48,0-1.09-6.04-9.19-3.38-13.43-4.05-9.7-1.55-7.47-21.09-1.86-22.73,1.71-.5,10.18-1.08,12.75-1.23,5.98-.34,12.07.36,18.06,0l35.18,2.78c5.17,2.34,3.3,14.86,1.08,18.59-1.91,3.2-6.37,1.34-9.27.77l-2.52,4.41c-.03,3.22,21.76-.26,24.49-1.47,11.3-5.03,10.79-33.42-7.21-33.96-18.87-.56-38.7,1.18-57.83.98-7.41-.08-21.59-3.63-27.28,2.6-5.39,5.91-6.39,19.91-3.39,27.08,1.93,4.61,7.27,5.79,11.73,6.25ZM260.94,355.67c2.73-.05,7.48-.46,8.78,2.72,2.65,18.05,9.38,35.19,12.95,52.99,3.01,15.02-1.69,28.17,17.02,32.94,28.5,7.27,67.55,1.8,97.66,2.24,29.87.43,59.93,3.61,89.86,1.03,10.75-.93,25.21-2.73,32.45-11.51,9.86-11.95,13.42-52.56,18.51-69.4,3.54-11.72,11.42-9.04,14.96-14.01,3.65-5.14,1.61-14.49,1.38-20.33l-1.5-1.49c-14.24,2.29-42.9-8.98-38.36,15.17.43,1.78,7.09,2.25,8.55,3.65,6.68,6.46-2.41,27.6-4.78,35.22-4.68,15.08-2.78,25.19-21.49,28.46-34.06,5.96-80.1,1.39-115.64,2.23-11.97.29-23.87,2.79-35.97,2.09-34.64-2-36.98-19.44-45.92-47.99-.77-2.45-3.14-4.5-2.44-7.44.65-2.39,5.4,1.33,7.69-4.34,2.47-6.13-.18-11.95.27-18.22l-41.91-.94-2.05,16.93ZM91.13,337.19c.32,5.48,0,11.43,0,16.98,0,.37,1.27,1.54,1.02,2.49,1.88.1,2.04.47,2.02-1.51-.07-7.24-2.81-16.01-3.04-23.46-2.75.46-.04,4.69.01,5.49ZM234.97,358.67c-2.44-5.74-2.47-12.28-1.98-18.47.24-3,2.09-5.74,1.49-8.5-7.37,7.96-9.12,20.04.49,26.97ZM565.32,334c-1.79-1.94-5.1-2.65-7.67-2.31l1,13.99c6.83.93,11.47-6.47,6.67-11.68ZM712.48,356.66v-12.47s-1.98-11.49-1.98-11.49v9.48s1.98,14.49,1.98,14.49ZM511.7,334.68c-13.59-1.44-12.87,12.72,0,12v-12ZM257.95,355.67c-1.23-4.3,4.69-16.04-.52-17-9.22-1.71-10.77,17.93.52,17ZM308.9,353.67l7.52-.98c1.2-4.06,2.87-8.95-.51-12.52l-8.01-.49,1,13.99ZM518.67,380.64c1.9-8.27,5.85-16.2,5-24.97l-5.73,20.74.73,4.23ZM796.4,374.64c.27-1.31-.41-2.5-1.67-2.88-3.36-1.01-25.56,8.45-29.98,10.7-28.65,14.62-47.43,42.63-49.14,74.98,3.69,1.3,7.38,2.27,11.37,2.21,10.42-.15,25.31-1.87,35.94-3.08,7.8-.89,21.01-1.75,26.99-6.97,14.98-13.09,8.79-55.71,7.47-73.95-32.58,7.19-59.02,33.65-73.68,62.7-1.09,2.15-1.27,2.38-1.21-.2,13.04-30.11,41.27-56.8,73.89-63.5ZM69.8,407.36c-10.92-11.54-37.1-27.24-52.35-29.48-4.52-.67-5.1.18-6,4.75-2.31,11.8-2.69,53.9.7,64.77,2.21,7.09,6.63,12.63,13.48,15.2,11.13,4.18,47.45,4.26,60.04,3.12,12.21-1.11,8.78-5.78,6.17-15.98-3.84-15.02-11.57-31.3-22.04-42.37ZM504.7,408.63c-17.15,2.76-34.33-1.81-51.46-3-29.97-2.08-82.49-6.74-110.64-1.77-7.42,1.31-14.99,6.2-22.71,3.77.34,1.1,1.59,2.31,2.49,2.99,10.93,8.31,41.46,4.07,54.91,3.95,36.8-.34,76.57,2.11,112.91-1.97,4.32-.48,11.56-.85,14.5-3.98ZM714.48,439.6c-1.86-1.34-30.53,1.81-35.42,2.03-53.37,2.38-107.35,1.37-160.9,1.93-37.1,12.44-80.88,7.91-119.89,7.06-31.48-.69-71.81,4.36-101.56-3.33-3.92-1.01-7.86-4.2-10.33-4.66-11.05-2.05-32.72-.66-44.95-1-45.8-1.29-91.47,4.9-135.78,2.91-1.38-.06-10.56-.26-10.55.56l3.67,11.52c4.26.17,8.61-.34,12.87-.08,62.64,3.77,118.49,2.72,180.76,1.12,76.42-1.97,153.51,4.31,229.73,1.88,51.53-1.64,100.23-3.45,151.84-2.91,12.36.13,24.6-.07,36.9-.98l3.61-16.04Z"/>
      <path class="cls-1" d="M731.82,192.17c-12.2,12.11-24.84,32.94-23.32,50.61-22.36,3.06-45.01.82-67.43,2-20.28,1.07-41.44,5.17-61.9,6.03-41.23,1.72-82.77-2.23-123.87,3-28.98,2.25-57.72-5.23-86.45-2.04-.58-2.31.45-1.65,1.26-2.28,5.77-4.52,12.73-7.87,18.63-12.29,3.88-2.9,15.09-11.22,17.64-14.32,3.46-4.2.58-6.08-3.29-7.85-29.42-13.45-73.81-15.42-100.89-30.88-2.27-1.3-1.4-3.98-5.73-3.34-3.52.52-5.73,5.97-8.05,8.01-10.05,8.87-27.44,16.17-39.37,23.57-11.13,6.91-21.39,15.23-32.88,21.55-1.4,2.1,1.08,6.41,2.84,7.28,2.22,1.09,4.74.25,7.04.99,3.4,1.1,18.1,5.86,19.92,7.05.48.31,1.3,1.27.99,1.5-50.84-2.59-101.81-4.81-152.83-4.99-1.39-23.44-18.76-48.2-38.95-59.46-3.23-1.8-12.6-4.86-14.02-5.97-.67-.53-1.07-1.01-.95-1.91,6.4-20.23,10.47-40.83,18.46-60.52,7.89-19.45,18.46-37.85,28.97-55.95,27.67-5.82,56.67-15.12,75.07-37.82,20.92-1.96,41.83-1.84,62.82-2.12,49.97-.67,97.14,2.98,147.82.97,90.11-3.58,180.59-1.38,270.59-5.77,19.44,22.13,48.88,33.74,77.87,36.9l1.9,2.09c17.92,37.44,30.8,76.87,46.68,115.14l-18.62,6.31c-6.8,4.15-14.29,8.89-19.95,14.51ZM304.12,48.17c.66-.97,6.23-1.24,4.31-4.24-1.2-1.88-6.73-2.11-9.08-2.91-19.72-6.75-46.45-6.03-67.86-8.06-5.67-.54-24.04-4.59-27.75-3.83-2.01.41-4.96,3.2-7.33,3.8.94,5.96.41,2.84-2.28,4.6-.81.52-2.88,2.18-2.87,2.92l1.76,2.99-5.97,4.12,1.54,3.4-6.15,4.99,1.49,2.5c0,1.01-10.43,5.25-.92,6.5-3.49,2.04-6.95,8.88-1.48,9.96,31.2,6.17,66.13,11.13,97.88,9.21,1.7-.1,3.24,1.08,5.74.63,1.46-.26,8.47-4.05,8.74-5.34l-3-4.48c7.74.45,3.77-3.22,4.29-6.34.36-2.14,3.93-4.08-.27-7.16l5.55-3.47-1.57-4.01c5.65.52,4.01-4.03,5.21-5.79ZM452.75,81.93c-.27,1.75-2.02,1.72-3.23,2.26-2.01.89-12.3,2.92-8.73,6.19l65.66,34.24c6.86,2.73,10.9,2.34,17.55-.92,12.65-6.19,32.66-20.5,45.15-28.78,3.22-2.13,11.57-6,6.39-9.43-4.4-2.92-14.6-5.18-20.25-7.72-7.86-3.53-14.99-8.43-22.6-12.37-3.69-1.91-16.62-9.04-19.66-9.18-6.51-.32-23.03,11.04-29.82,13.69-.29-11.44-12.84-5.64-19.98-5-29,2.59-59.81,4.91-88.86,6.05-4.5.18-21.65-1.14-23.8.14-.91.54-2.02.9-1.69,2.28,1.27,1.24,2.36,2.23,3.05,3.96,5.97,14.99,7.14,30.28,11.5,45.59,23.67-1.01,47.27-3.23,70.86-5.04,8.39-.64,16.58-1.22,24.97-2,5.72-.53,13.4-.04,18.97-1.01,1.71-.3,2.8-1.1,2.49-2.98l-112.84,6.94c-2.69-14.91-5.15-29.49-10.03-43.91l118.88-8-.14,5.86c-6.85,4.11-5.38-1.08-10.32-1.32-23.26,1.53-46.63,3.35-69.92,4.49-6.35.31-25.12-1.28-29.52,1.45-1.45.9-.84,1.36-.55,2.54.65,2.64,2.43,5.59,3.11,8.91,1.25,6.17,2,19.23,4.63,24.34.57,1.12.88,1.69,2.3,1.7l89.42-6.01v-2.99s-4.09-.47-4.09-.47c.07-5.9-8.97-2.51-13.19-3.74-1.69-.49-2.83-2.98-5.41-3.58-7.67-1.76-17.13,1.65-23.81.87-2.06-.24-1.2-2.45-3.89-2.59-10.37-.55-20.29,6.88-29.8,10.74-1.55.63-3.06.89-4.72.78-.38.33,2.7,5.99-.51,3-1.77-4.86-3.15-9.85-4.01-14.97-.27-1.6-1.72-6.78-.48-7.55l3.86-.33,1.63,3.84,6.5-2.96c-1.03,2.93-6.3,2.31-5.99,5.98,6.52,1,10.87,1.83,15.5-3.98l2.93,2.09c3.08.47,6.01-3.73,8.2-3.91,1.73-.14,2.94,1.75,4.67,1.6,1.01-.09,2.19-1.37,3.39-1.57,7.29-1.22,10.72-2.5,16.77-7.21l.48,2.98c7.37,1.46,11.96-5.76,18.98-2.98ZM125.78,106.68c-10.04,11.56-19.5,24.62-26.83,38.51-2,3.79-7.65,12.85-5.34,16.68,1.83,3.02,28.3,8,33.49,9.46,16.15,4.53,32.35,10.82,48.93,14.01,5.62,1.08,14.47,3.59,19.05-.95,10.64-16.7,18.76-34.65,27.7-52.22,2.08-4.08,8.2-7.94-.56-11.01-15.34-5.38-39.69-5.38-56.4-8.53-12.59-2.38-24.81-7.16-37.44-9.5-3.37,0-2.41,3.34-2.6,3.56ZM551.23,178.25c6.62,8.91,12.33,18.6,18.99,27.46,2.08,2.77,11.84,15.68,13.9,16.09,3.29,1.25,5.73-1.58,8.04-1.97,3.47-.58,5.77.28,9.73-1.26,3.03-1.17,4.67-4.02,6.42-4.57,8.04-2.52,18.82-2.03,28.24-5.73,3.32-1.3,6.19-4.82,7.72-5.27,7.55-2.25,17.67,3.17,25.24-1.73,9.81-6.34,9.58-34.01,12.05-44.92-.83-4.39-9.35-2.47-12.45-4.57-2.03-1.38-1.67-4.22-3.09-5.9-4.44-5.21-10.21,1.62-15.08,1.94-3.01.2-7.05-1.1-10.92-1.01-4.88.11-10.07,1.82-14.89,2.08-5.28.29-10.92-2.46-14.49,1.46l1.96,3.49c-8.82.68-19.62.02-28.2,1.27-2.78.4-14.35,3.28-16.76,4.22-2.58,1-3.97,3.82-5.67,4.32-4.82,1.4-9.56-.98-14.26,4.71-3.59,4.34,1.46,7.08,3.55,9.9Z"/>
      <path class="cls-1" d="M518.69,358.67l-11.62,46.83c-9.23-.12-18.62.63-27.83.12-43.15-2.41-87.37-9.61-130.86-5.97-6.71.56-25.53,7.97-30,4-.67-.59-3.62-7.1-4.34-8.65-4.35-9.4-6.96-19.71-12.13-28.81l2.25-1.33c10.48,1.63,35.28,1.16,39.45-10.95,2.45-7.13,1.87-20.39-3.2-26.24-5.77-6.66-14.06-4.79-21.99-4.96-22.77,4.82-51.63-3.19-73.69.23-21.64,3.36-27.55,34.17-6.54,41.03,9.82,3.2,19.81.25,29.29,2.68,3.38,14.27,8.07,28.42,11.22,42.73,2.26,10.28,1.22,22.26,7.25,31.21l-82.46-2.03c-31.83.18-66.36,7.07-97.91,5.08-13.59-.86-9.88-1.25-14.58-11.4-14.94-32.25-38.36-49.06-72.65-57.72.49-26.53-8.33-53.91-1.12-79.79,1.73-.45,2,.72,3,1.49,4.53,3.49,7.75,8.5,13.07,11.91,7.11,4.55,17.41,7.96,25.89,7.58l2.94,60.3c.83,3.68,34.39,2.83,39.55,2.69,2.13-.06,4.05-.96,5.96-1.03,14.15-.49,28.34-.63,42.45-2v-57.96c5.8-.22,11.71.3,17.52.05,51.89-2.31,104.83-3.37,156.76-4.08,57.52-.78,114.92.97,172.36,1.05.24,1.43-1.73,1.36-2.78,1.69-5.12,1.63-8.6,1.46-12.84,5.65-9.73,9.62-7.68,28.97,5.65,34.09,1.76.68,8.08,2.51,9.47,2.51h22.48Z"/>
      <path class="cls-1" d="M771.42,288.74c.38,1.68-.55,2.02-1.52,2.97-4.52,4.44-25.08,17.27-30.87,15.89-2.94-.71-1.06-11.27-1.57-13.87l-11.99.99c.17-1.62,2.27-1.37,3.49-2.99,2.01-2.66,2.01-10.07,1.29-13.28-1.38-6.16-11.06-7.84-16.4-8.58-10.37-1.43-40.64-1.49-49.25,3.45-7.41,4.25-7.02,18.3.21,22.62l8.7,3.77c-5.43.65-23.66-4.59-24.94,2.53-.49,2.73,1.29,11.27-2.52,11.56-2.73.21-5.88-1.07-8.95-1.15-54.71-1.38-110.08.51-164.84,0-90.79-.84-181.19.16-271.8,2l-51.41,1.05c-.74-8.91,1.02-22.72-11.98-20,14.36-26.45-25.77-24.11-41.44-22.96-18.15,1.34-37.09,6.55-22.49,27.95l-13.05.45-.93,12.56c-14.31.41-27.73-6.89-36.96-17.49,19.65-1,38.45-11.28,53.41-23.5,2.84-2.32,8.18-9.39,11.04-9.94,13.33.77,26.73-.66,39.9-1.06,85.29-2.61,169.62,1.46,254.82,3,112.47,2.02,225.37,1.97,337.6-4.96,15.13,13.25,32.08,25.59,52.46,28.99Z"/>
      <path class="cls-1" d="M647.55,314.71l-.9,38.36c2.42,4.33-1.26,18.07,2.89,20.09l88.27-.64,1.64-2.36c1.41-20.17-.6-40.27-1.57-60.49,10.76-1.77,18.12-6.26,26.86-12.14,2.74-1.84,6.62-6.1,8.75-7.23,3.65-1.95,8.95-1.15,12.89-2.57.57,3.3,2.36,6.28,2.94,9.57,1.06,6,1.82,16.59,2.12,22.86.77,16.13-.11,32.53-1.48,48.56-34.46,9.48-66.26,32.38-74.58,68.78-15.76,1.54-31.54,1.58-47.35,2.1-34.8,1.16-70.04,2.52-104.85,3.03-14.8.22-29.74.15-44.5-.54,6.15-4.7,8.12-10.58,10.27-17.71,5.45-18.05,7.36-37.4,12.35-55.59,4.3-15.65,13.99-8.48,25.87-9.11,11.08-.58,22.11-5.26,23.44-17.51,1.02-9.41,1.41-21.66-7-27.48h63.93Z"/>
      <path class="cls-1" d="M260.94,355.67l2.05-16.93,41.91.94c-.45,6.27,2.2,12.09-.27,18.22-2.28,5.67-7.04,1.94-7.69,4.34-.69,2.94,1.68,4.99,2.44,7.44,8.94,28.55,11.28,45.98,45.92,47.99,12.1.7,24-1.8,35.97-2.09,35.54-.85,81.59,3.72,115.64-2.23,18.71-3.27,16.81-13.38,21.49-28.46,2.37-7.62,11.46-28.76,4.78-35.22-1.46-1.41-8.12-1.87-8.55-3.65-4.55-24.14,24.12-12.88,38.36-15.17l1.5,1.49c.23,5.83,2.27,15.19-1.38,20.33-3.54,4.97-11.42,2.3-14.96,14.01-5.1,16.85-8.66,57.46-18.51,69.4-7.24,8.78-21.69,10.58-32.45,11.51-29.93,2.58-59.99-.6-89.86-1.03-30.11-.44-69.16,5.03-97.66-2.24-18.7-4.77-14-17.92-17.02-32.94-3.57-17.8-10.3-34.94-12.95-52.99-1.3-3.17-6.05-2.77-8.78-2.72ZM292.91,355.68c-3.81-.08-7.65.09-11.47-.01-2.46-.07-6.06-2.69-7.5.99,4.31-.69,8.36,1.05,12.48,1.09,1.29.01,6.08-.38,6.5-2.07Z"/>
      <path class="cls-1" d="M714.48,439.6l-3.61,16.04c-12.3.91-24.54,1.11-36.9.98-51.61-.54-100.3,1.27-151.84,2.91-76.22,2.42-153.31-3.85-229.73-1.88-62.27,1.6-118.12,2.66-180.76-1.12-4.25-.26-8.61.26-12.87.08l-3.67-11.52c-.01-.81,9.16-.62,10.55-.56,44.31,1.98,89.98-4.21,135.78-2.91,12.23.34,33.9-1.05,44.95,1,2.47.46,6.41,3.64,10.33,4.66,29.75,7.69,70.07,2.64,101.56,3.33,39.02.85,82.79,5.38,119.89-7.06,53.55-.56,107.53.44,160.9-1.93,4.9-.22,33.56-3.37,35.42-2.03Z"/>
      <path class="cls-1" d="M775.09,176.21c5.11.08,8.94.18,11.52,4.91,11.12,20.36,12.4,51.38,10.77,74.12-.51,7.15-2.53,23.39-8.65,27.32-14.17,9.1-39.99-4.79-52.17-13.43-23.41-16.61-31.57-27.96-16.26-55.01,10.88-19.22,31.33-38.27,54.78-37.91ZM772.16,182c-9.54,2-1.89,14.42,6.85,8.91,4.21-5.09-1.14-10.11-6.85-8.91ZM725.18,224.97c-5.9,1.76-2.27,14.11,6.26,10.28,6.43-2.89,1.78-12.67-6.26-10.28Z"/>
      <path class="cls-1" d="M9.22,282.73c12.54,12.45,29.93,5.33,42.94-2.5l-22.58,7.39c-9.84,2.42-20.14-4.45-22.9-13.85-2.65-9.04-3.14-34.64-2.51-44.53s6.89-35.89,13.17-43.78c4.55-5.72,22.72-1.92,29.09.6,19.12,7.56,41.22,33.75,43.45,54.48,2.46,22.89-40.5,49.13-60.31,51.07-7.75.76-18.32.37-20.35-8.87ZM22.34,196.67c6.47,2.63,14.18,1.88,11.35-6.87-5.7-4.68-13.39-.65-11.35,6.87ZM78.88,231.03c-4.01-3.52-14.56,1.76-9.81,8.32,5.5,7.61,15.33-3.49,9.81-8.32Z"/>
      <path class="cls-1" d="M717.48,258.75c-9.44.38-19,1.56-28.42,2.04-176.22,9.15-352.44-1.24-528.46-1l-73.46.95,6.02-10.46c5.42-3.28,11.14-.57,16.42-.48,79.18,1.38,157.77,5.62,236.76,4.91,25.66-.23,48.62,1.21,73.92,2.08,49.65,1.71,99.22-5.81,148.93-2,25.35-.73,50.67-5.7,75.89-7.02,20.55-1.08,41.47,1.28,61.95-2.11l2.97,1.11,7.49,11.97Z"/>
      <path class="cls-1" d="M241.97,235.78c1.64-2.99,31.69-22.15,37.05-25.39,9.47-5.73,19.34-10.62,28.96-16.07l19.9,4.51-1.98,1.98c2.64-.44,4.22-.92,7-.59,10.23,1.21,33.87,8.85,44.93,12.09,7.72,2.26,15.2,5.42,22.98,7.5l-43.44,31.97c-2.17-1.65.17-1.74.77-2.29,11.21-10.4,25.29-18.92,36.68-29.19.16-.74-1.02-.67-1.48-.48-2.48,1.01-14.78,10.6-17.97,13-7.88,5.94-15.42,12.63-23,18.96h-81.92l-1.01-2c2.34-1.96,4.11-3.64,3.5-6.99-2.69-.16-10.19,2.37-10,5.48l3,1c-2.06,4.49-14.55-3.72-13.98-4.48,3.74-1.35,10.49-2.98,9.98-8-.49-.52-8.9,3.74-9.97,4.52-1.39,1-1.89,3.42-2.65,3.55-1.57.26-13.34-4.57-13.32-5.57,1.67-1.84,3.71-2.66,5.97-3.5-.71,1.3-1.24,2.44-.99,3.99l8.98-3.51c.85-3.65-6.42-1.07-7.99-.49ZM352.85,212.8c-2.02.55-11.51,2.59-10.98,5.48.41,2.25,2.47.72,3.45.49,2.47-.57,4.82-1.88,7.42-2.09l.11-3.88ZM357.86,220.79c2,1.01,7.93-3.41,7.97-4.49.09-3.03-9.84.13-7.97,4.49ZM367.52,218.94c-1.12.1-6.64,3.49-6.65,4.35-.04,3.26,9.58-.3,8.97-2.98-.78-.85-1-1.48-2.31-1.37ZM384.82,219.8c-2.09-.61-7.45,2.27-6.98,4.48.76,3.62,8.59-1.1,6.98-4.48ZM324.89,236.78h14.49c5.54-6.38-9.52-2.42-9.47-5.5,1.51-1.16,4.71-4.3,1.99-6.02-1.45-.91-2.95.71-4.39.58-.72-.06-.18-2.07-2.07-2.18-3.71-.2-9,3-12.04,5.12-.6.18-.31-1.88-1.1-2.06-4.6-1.05-12.47,7.48-17.85,7.06l7.46-6.51c-1.73-3.97-8.62,1.91-8.96,1.5l.99-3.99c-2.66-3.34-14.46,8.51-16.98,10.49,2.59,2.88,10.59-4.98,10.97-4.5l-1.01,5.51,9.42-.6c1.79,8.73,9.53-1.2,15.57.09-.24,1.54-5.01,3.11-4.97,4.49.11,4.32,12.78-.38,13.97.51-8.77,12.51,6.75,4.83,10.54,5.02,2.13.11,2.99,2.98,4.93,3,5.19.05.85-6.35-4.21-6.82-2.12-.19-4.12,1.1-6.26.77l1.08-4.39-2.08-1.59ZM290.91,248.76l5.05.48c1.3-.9,2.29-2.31,1.95-3.95-.61-2.92-5.29,1.23-6.99.5v2.97Z"/>
      <path class="cls-1" d="M796.4,374.64c-32.62,6.7-60.85,33.39-73.89,63.5-.07,2.59.12,2.36,1.21.2,14.65-29.05,41.1-55.51,73.68-62.7,1.32,18.24,7.51,60.86-7.47,73.95-5.98,5.23-19.19,6.08-26.99,6.97-10.63,1.21-25.52,2.92-35.94,3.08-3.99.06-7.68-.91-11.37-2.21,1.71-32.35,20.49-60.35,49.14-74.98,4.41-2.25,26.62-11.71,29.98-10.7,1.26.38,1.94,1.57,1.67,2.88ZM785.41,384.65c-10.04-1.83-9.99,15.25,1.31,11.78,4.27-1.31,5.66-10.69-.31-10.78,7.32,11.98-11.07,11.22-5.51,1.97,1.03-1.71,4.33-1.03,4.5-2.97ZM733.19,435.75c-8.37,1.32-6.2,12.77.6,12.58,9.18-.26,7.25-13.81-.6-12.58Z"/>
      <path class="cls-1" d="M69.8,405.97c10.48,10.55,18.2,26.08,22.04,40.4,2.61,9.72,6.03,14.18-6.17,15.24-12.58,1.09-48.91,1.02-60.04-2.97-6.85-2.46-11.27-7.74-13.48-14.5-3.39-10.36-3.01-50.51-.7-61.75.89-4.36,1.48-5.16,6-4.53,15.24,2.14,41.43,17.11,52.35,28.11ZM88.12,449.58c-6.57-22.09-21.65-41.95-41.03-54.37-8-5.13-18.58-11.16-27.89-12.56l14,6.46c17.57,9.32,30.55,19.59,41.74,36.18l13.17,24.28ZM20.46,401.37c8.47,8.97,17.35-10.53,3.74-10.73,13.52,10.14-6.08,15.93-2,2-4.14-.55-3.6,6.76-1.74,8.73ZM74.88,439.75c-7.34,1.31-6.1,12.96,1.61,12.53,9.13-.51,6.64-14-1.61-12.53Z"/>
      <path class="cls-1" d="M640.42,8.12l3.13,7.85c-12.81.97-25.67.57-38.5.97-79.51,2.44-159.23,1.43-238.7,5.05-53.89,2.45-105.02-2.66-158.86-1.02-14.47.44-29.13.42-43.44,2l3.48-8.99,2.95-1.05c131.01.41,262.07.59,392.69-2.9,14.1-.38,28.77-1.84,42.87-2.08,11.44-.2,22.94.11,34.37.18Z"/>
      <path class="cls-1" d="M715.48,360.66c.36-1.85,1.1-3.48,1.04-5.44-.31-10.6-2.83-22.57-3.08-32.98-.18-7.68,1.52-14.87,1.03-22.53l19.99-2c.67,10.82.56,21.66.95,32.52.42,11.57,2.46,24.33,1.09,35.98-.17,1.45-.12,2.57-1.55,3.45h-15.48l12.98-3c.39-1.07-.99-2.18-.99-2.49v-63.44l-1.78,1.26-.36,62.04c-.72,2.14-11.93,3.97-14.62,4.36-13.31,1.94-30.26,1.69-43.67.26-6.7-.71-14.55-.14-15.52-8.46-1.65-14.21,1.28-31.42.01-45.97l-1.98-9.5c.13,16.22.96,32.21,1.04,48.49.02,4.62-2.24,9.38,1.98,13.92l8.46,3.53c-4.24-.69-13.36,2.32-14.45-3.53-.22-21.54-.17-43.01,1.41-64.48,2-2.87,18.09,1.36,22.04.06l2.4,1.65,1.1,56.3h37.96Z"/>
      <path class="cls-1" d="M82.63,303.72c6.72,2.03,2.89,45.27,5.72,53.23,1.09,3.06,4.48,3.52,7.22,3.77,3.25.3,27.51-1.04,28.42-2.15,1.01-10.06,1.58-20.26,1.14-30.41-.26-5.88-3.56-20.9-1.9-25.8,1.02-3.02,11.79-3.1,14.35-2.63,2.79.51,3.22,3.03,3.52,5.47,1.75,14.58,3.58,40.82,1.97,54.97-.72,6.37-4.29,9.55-10.58,10.4-11.61,1.58-31.1.77-43.82,1.13-6.16.18-12.38-.23-18.53-.04-3.17-22.56.33-45.76-4.99-67.94h17.48Z"/>
      <path class="cls-1" d="M738.46,50.94c-23.29.86-48.09-5.55-68.23-17.17-10.91-6.3-24.04-15.78-26.66-28.77,1.99-1.92,48.93,3.78,54.96,5.47,17.58,4.91,34.26,23.43,39.93,40.48ZM657.29,9.17c-6.33,1.28-3.69,7.92,1.82,8.75,11.53,1.75,6.99-10.53-1.82-8.75ZM714.19,35.17c-1.33.4-2.74,1.85-2.73,3.29.83,5,11.13,7.48,13.54,3.52,2.36-6.15-6.14-8.22-10.82-6.8Z"/>
      <path class="cls-1" d="M164.05,11.99c-3.39,12.77-17.53,23.45-28.66,29.77-19.69,11.19-43.67,16.88-66.24,17.17-3.72-3.77,15.85-24.91,19.51-27.94,19.71-16.29,50.78-18.61,75.39-19.01ZM152.81,17.23c-3.31-3.18-14.17.21-11.25,5.75,3.47,4.13,9.25,1.68,12.05-2.04l-.79-3.71ZM94.9,48.74c5.41-9.51-19.29-8.29-11.13,2.05,2.33.77,9.91.08,11.13-2.05Z"/>
      <path class="cls-1" d="M555.65,355.67l2.98-6.52c12.8.91,16.76-16.42,4.27-20.21-8.14-2.47-34.9-2.84-43.48-1.01-1.79.38-3.17,1.9-4.71,2.29-4.81,1.23-13.78.8-15.55,6.42-1.96,6.21,1,11.44,7.27,12.8,4.77,1.04,14.7-1.05,13.25,6.23h-19.48c-1.1,0-7.33-1.71-8.47-2.52-7.82-5.55-8.44-31.63,1.5-33.43,7.86-1.43,21.52-1.77,29.9-2.07,14.2-.5,37.53-1.54,51.02.03,11.62,1.35,10.34,20.97,8.22,29.25-1,3.93-5.16,8.74-9.24,8.74h-17.48Z"/>
      <path class="cls-1" d="M247.46,362.66c-4.47-.46-9.8-1.63-11.73-6.25-3-7.17-2.01-21.17,3.39-27.08,5.69-6.23,19.87-2.67,27.28-2.6,19.13.2,38.97-1.54,57.83-.98,18,.54,18.51,28.93,7.21,33.96-2.73,1.21-24.52,4.69-24.49,1.47l2.52-4.41c2.89.57,7.36,2.43,9.27-.77,2.22-3.73,4.09-16.25-1.08-18.59l-35.18-2.78c-5.99.36-12.09-.34-18.06,0-2.57.15-11.05.73-12.75,1.23-5.61,1.64-7.84,21.18,1.86,22.73,4.24.68,12.34-1.98,13.43,4.05-6.27-.46-13.32.63-19.48,0Z"/>
      <path class="cls-1" d="M710.49,314.71h-30.47c-2.42,0,.58-12.4-1.02-15.97-1.74-3.9-9.68-3.93-12.86-6.13-4.07-2.82-5.43-12.88-1.01-15.76,6.04-3.94,33.94-4.73,41.83-4.09,6.23.51,19.56,2.21,20.27,9.7,1.13,11.92-10.72,9.09-16.76,15.76v16.49ZM716.48,277.75c-14.16-2.66-28.79-1.56-42.96.49,11.24,1.6,22.21-.98,33.52-.54,2.12.08,3.98.87,5.97,1.03,1.1.09,3.73.73,3.47-.98ZM713.74,287.48c3.57,3.52,11.24.25,8.25-5.75-3.17-6.37-12.74,1.33-8.25,5.75ZM668.78,281.98c-4.03,3.98,2.38,11.14,7.26,6.76,4.61-4.14-2.99-10.98-7.26-6.76Z"/>
      <path class="cls-1" d="M120.36,298.97c-3.64,3.88,2.13,14.96-1.2,17.29-4.32.25-29.31,3.43-30.08-.22l-1.95-14.58c-2.11-4.1-13.47-.24-14.92-10.3-.88-6.13-.02-8.79,5.63-11.22,10.52-4.53,41.18-5.4,52.01-1.48,5.02,1.81,6.48,2.9,6.3,8.77-.34,11.3-11.79,7.46-15.81,11.74ZM85.13,282.73h38.96c-8.69,13.81,12.88,10.88,6.07,1.42-3.96-5.49-27.75-2.7-34.58-3.46l-10.45,2.04ZM79.84,284.93c-4.86,1.47-3.34,10.65,3.57,8.61,5.87-1.73,4.28-10.98-3.57-8.61Z"/>
      <path class="cls-1" d="M504.7,408.63c-2.93,3.13-10.17,3.49-14.5,3.98-36.35,4.08-76.12,1.62-112.91,1.97-13.45.13-43.98,4.36-54.91-3.95-.9-.69-2.15-1.89-2.49-2.99,7.73,2.43,15.3-2.46,22.71-3.77,28.15-4.97,80.67-.31,110.64,1.77,17.13,1.19,34.3,5.76,51.46,3Z"/>
      <path class="cls-1" d="M85.13,61.94c-11.6,21.66-24.03,42.92-32.14,66.26-5.87,16.9-9.34,34.62-14.84,51.63l-9.97-1c-.19-2.06.05-4.02.46-6.05,3.62-17.86,15.82-48.29,22.51-66.41,5.36-14.53,11.12-28.91,17.9-42.82l16.09-1.61Z"/>
      <path class="cls-1" d="M778.41,172.83c-2.54-.62-6.06-.55-7.23-3.25-14.58-38.5-29.05-76.99-45.71-114.63,3.5.73,11.77-1.78,13.82,1.65l39.11,116.23Z"/>
      <path class="cls-1" d="M705.49,317.7c4.94,12.98,2.99,26.64,4.99,39.96h-20.48c-.29,0-5.45-1.34-5.62-1.57-3.96-12.63-.11-25.5-.88-38.39h21.98ZM704.5,351.68c-1.76-7,3.67-13.58,1.55-20.05-2.77-8.46-19.85-2.33-17.37,6.33.75,2.61,4.56,3.38,5.32,4.73,1.12,1.99.51,6.44,1.61,8.87l8.89.11Z"/>
      <path class="cls-1" d="M115.93,318.87c3.51,5.9,1.83,12.82,2.12,19.35.19,4.18,2.47,11.58.56,15.46s-17.94,3.29-22.38,3.87c-.19-6.52-6.12-33.18-3.22-37.27l22.92-1.41ZM108.11,353.68c-1.79-6.28,8.98-19.62,2.39-23.88-3.52-2.27-11.91-2.22-13.88,1.89-2.66,5.55,3.14,14.01,2.99,20.01l8.5,1.98Z"/>
      <path class="cls-1" d="M128.59,372.65c2.36-.22,10.07-1.82,11.87-3.12,7.07-5.08,3.88-24.91,3.62-32.36-.43-12.48-.16-25.27-2.5-37.47,2.39.07,2.83,3.01,3.23,4.76,1.31,5.69,1.95,15.69,2.24,21.74.76,15.41-.54,31.03.02,46.45l-81.93,2c.38-23.6-4.86-47.66-1.49-70.95,3.77,11.93,1.79,24.3,2.46,36.52.58,10.78,2.7,21.58,2.04,32.43,19.44-1.35,41.28,1.81,60.44,0Z"/>
      <path class="cls-1" d="M287.92,201.82l-53.98,36.45-3.96-1c19.11-12,37.2-26.31,57.94-35.45Z"/>
      <path class="cls-1" d="M486.71,322.7c-2.47,6.58-3.28,15.11-1.52,22.01.85,3.32,2.52,5.84,3.51,8.96-9.7-4.92-12.48-13.93-8.48-23.97.5-1.24,4.92-8.64,6.48-6.99Z"/>
      <path class="cls-1" d="M257.95,355.67c-11.29.93-9.74-18.71-.52-17,5.21.97-.71,12.71.52,17Z"/>
      <path class="cls-1" d="M308.9,353.67l-1-13.99,8.01.49c3.38,3.57,1.71,8.46.51,12.52l-7.52.98Z"/>
      <path class="cls-1" d="M565.32,334c4.8,5.21.17,12.61-6.67,11.68l-1-13.99c2.57-.34,5.88.37,7.67,2.31Z"/>
      <path class="cls-1" d="M511.7,334.68v12c-12.87.72-13.59-13.44,0-12Z"/>
      <path class="cls-1" d="M234.97,358.67c-9.61-6.93-7.86-19.01-.49-26.97.6,2.76-1.25,5.5-1.49,8.5-.49,6.19-.47,12.73,1.98,18.47Z"/>
      <path class="cls-1" d="M682.51,318.71c-.57,11.97-1.52,22.7-.28,34.76.15,1.43,1.38,3.6-1.19,3.19-1.76-1.16-1.43-2.68-1.57-4.43-.75-9.51-.14-22.52,1.06-32.03.17-1.36.7-3.17,1.98-1.49Z"/>
      <path class="cls-1" d="M583.63,349.67c.84-8.72,3.08-16.33.48-24.97-.64-2.13-2.63-3.68-2.48-6,8.81,3.82,7.95,24.9,2,30.97Z"/>
      <path class="cls-1" d="M122.09,349.67h-.99c.62-1.57-1.01-3.75-1.01-4.5v-21.98c0-.79-2.68-2.74-1.99-4.49,1.08-.18,1.91,0,2.51.98.2.33,1.48,7.12,1.48,7.51v22.48Z"/>
      <path class="cls-1" d="M518.67,380.64l-.73-4.23,5.73-20.74c.86,8.76-3.1,16.7-5,24.97Z"/>
      <path class="cls-1" d="M91.13,337.19c-.05-.8-2.76-5.03-.01-5.49.23,7.44,2.97,16.21,3.04,23.46.02,1.98-.14,1.62-2.02,1.51.25-.96-1.02-2.12-1.02-2.49,0-5.55.32-11.5,0-16.98Z"/>
      <path class="cls-1" d="M256.95,214.81c-6.04,5.08-13.76,9.63-20.98,12.97,5.97-5.28,13.66-9.77,20.98-12.97Z"/>
      <polygon class="cls-1" points="712.48 356.66 710.5 342.17 710.5 332.69 712.48 344.19 712.48 356.66"/>
      <path d="M452.75,81.93c-7.02-2.78-11.6,4.44-18.98,2.98l-.48-2.98c-6.06,4.71-9.49,5.98-16.77,7.21-1.2.2-2.38,1.48-3.39,1.57-1.74.15-2.95-1.74-4.67-1.6-2.19.18-5.12,4.37-8.2,3.91l-2.93-2.09c-4.63,5.81-8.98,4.98-15.5,3.98-.31-3.67,4.96-3.05,5.99-5.98l-6.5,2.96-1.63-3.84-3.86.33c-1.23.78.21,5.95.48,7.55.86,5.11,2.24,10.1,4.01,14.97,3.21,2.99.13-2.67.51-3,1.66.11,3.17-.15,4.72-.78,9.51-3.85,19.43-11.28,29.8-10.74,2.69.14,1.84,2.35,3.89,2.59,6.69.78,16.14-2.63,23.81-.87,2.58.59,3.72,3.09,5.41,3.58,4.22,1.23,13.26-2.16,13.19,3.74l4.09.47v2.99s-89.43,6.01-89.43,6.01c-1.42,0-1.72-.58-2.3-1.7-2.63-5.11-3.38-18.17-4.63-24.34-.67-3.32-2.46-6.27-3.11-8.91-.29-1.18-.9-1.64.55-2.54,4.4-2.72,23.17-1.14,29.52-1.45,23.3-1.14,46.66-2.96,69.92-4.49,4.94.24,3.47,5.43,10.32,1.32l.14-5.86-118.88,8c4.87,14.42,7.34,29,10.03,43.91l112.84-6.94c.31,1.89-.78,2.69-2.49,2.98-5.57.96-13.25.47-18.97,1.01-8.39.78-16.59,1.36-24.97,2-23.58,1.81-47.19,4.03-70.86,5.04-4.36-15.31-5.53-30.6-11.5-45.59-.69-1.73-1.78-2.71-3.05-3.96-.33-1.38.78-1.74,1.69-2.28,2.16-1.29,19.31.03,23.8-.14,29.05-1.14,59.86-3.46,88.86-6.05,7.14-.64,19.69-6.44,19.98,5,6.79-2.65,23.31-14.01,29.82-13.69,3.04.15,15.97,7.28,19.66,9.18,7.61,3.94,14.74,8.84,22.6,12.37,5.65,2.54,15.85,4.8,20.25,7.72,5.18,3.44-3.17,7.3-6.39,9.43-12.49,8.28-32.51,22.59-45.15,28.78-6.65,3.25-10.68,3.64-17.55.92l-65.66-34.24c-3.57-3.28,6.72-5.3,8.73-6.19,1.21-.53,2.95-.51,3.23-2.26ZM569.63,89.89c2.03-2.88-12.76-6.92-14.66-7.79-14.85-6.8-28.18-16.72-43.7-22.15-17.61,8.03-35.49,15.62-52.87,24.12-1.24.6-10.38,4.74-9.64,5.83,14.99,7.68,29.76,16.18,44.92,23.52,3.42,1.66,18.31,9.05,20.66,9.17,3,.16,9.63-4.22,12.63-5.9,14.64-8.17,27.96-18.71,42.65-26.79ZM464.74,77.91c.26-3.26-2.96-3.18-5.4-3.05l-3.58,6.05,8.99-3ZM441.76,75.93l-19.97,1.98,4.05.73.43,2.27c2.87-2.74,6.95-1.74,10.55-2.43,1.05-.2,4.85-1.15,4.93-2.54Z"/>
      <path d="M551.23,178.25c-2.09-2.82-7.15-5.56-3.55-9.9,4.71-5.69,9.45-3.31,14.26-4.71,1.7-.49,3.1-3.32,5.67-4.32,2.42-.94,13.98-3.81,16.76-4.22,8.58-1.24,19.39-.59,28.2-1.27l-1.96-3.49c3.57-3.93,9.21-1.18,14.49-1.46,4.82-.26,10.01-1.97,14.89-2.08,3.87-.08,7.9,1.21,10.92,1.01,4.87-.32,10.64-7.14,15.08-1.94,1.42,1.67,1.06,4.52,3.09,5.9,3.1,2.1,11.62.18,12.45,4.57-2.48,10.91-2.24,38.58-12.05,44.92-7.58,4.9-17.69-.52-25.24,1.73-1.52.45-4.4,3.97-7.72,5.27-9.42,3.69-20.2,3.2-28.24,5.73-1.75.55-3.38,3.4-6.42,4.57-3.96,1.53-6.26.67-9.73,1.26-2.3.39-4.75,3.22-8.04,1.97-2.06-.41-11.82-13.32-13.9-16.09-6.66-8.86-12.37-18.55-18.99-27.46ZM668.53,167.34c.78,2.24,0,16.16,0,19.98,0,.65-2.29,4.27-2,4.49h2.97s6.02-33.95,6.02-33.95c-5.97-.6-13-.79-14.05-7.98-12.33,3.93-25.7.66-38.35,3.04-4.84.91-6.18,5.2-15.06,5.92-12.72,1.04-24.04-.13-36.71,4.24-1.87.65-3.63,3.48-6.33,4.66-3.34,1.47-6.64,1.3-9.9,2.11-1.17.29-1.79-.75-1.51,1.49,5.95,5.83,27.64,43.2,33.43,44.04.82.12,8.66-.54,9.83-.8,3.15-.68,5.8-4.46,8.46-5.52,6.58-2.61,21.46-1.49,29.23-5.74l6.96-5.51-50.25,8.8-21.23-25.8,1.51-7.54c20.09-1.83,39.51-9.22,58.94-12.99,3.73-.72,11.23-2.36,14.59-2.47,2.49-.09,17.87,3.16,19.78,4.2,2.55,1.39.24,2.74.77,3.62.29.48,2.59.9,2.87,1.7ZM662.54,187.83l-.47-21.02c-.6-.91-16.08-4.5-18.3-4.73-5.94-.63-17.67,2.75-23.2,5.27l1.99,1.98-13.98,12.49c10.12-4.49,17.55-17.83,29.46-15.98.96.06.6,1.69.35,2.35-1.01,2.69-12.4,9.84-15.36,12.62-2.23,2.09-3.48,4.64-5.44,6.55-4.31,4.19-9.03,7.95-13.01,12.45l57.95-11.97ZM598.6,178.84c-3.06.04-4.23,2.81-7.49,3.07-3.58.29-7.63-1.91-11.49-1.08l12.56,17.9c3.58,4.02,5.53,2.68,3.15-2.14-.82-1.66-2.46-2.47-2.7-4.3-.77-6.06,2.09-9.37,5.97-13.46ZM658.32,193.06c-1.34-.7-2.51-.07-3.81.21l-7.95,3.54,17.98,1c-.73-2.28-3.5-2.06-5.3-2.99-.6-.31-.64-1.61-.92-1.75Z"/>
      <path d="M304.12,48.17c-1.19,1.76.44,6.3-5.21,5.79l1.57,4.01-5.55,3.47c4.2,3.08.63,5.02.27,7.16-.52,3.11,3.45,6.79-4.29,6.34l3,4.48c-.27,1.28-7.28,5.08-8.74,5.34-2.5.45-4.05-.74-5.74-.63-31.74,1.92-66.68-3.04-97.88-9.21-5.47-1.08-2.01-7.92,1.48-9.96-9.51-1.25.91-5.49.92-6.5l-1.49-2.5,6.15-4.99-1.54-3.4,5.97-4.12-1.76-2.99c0-.74,2.07-2.4,2.87-2.92,2.69-1.75,3.21,1.36,2.28-4.6,2.37-.6,5.32-3.39,7.33-3.8,3.71-.76,22.08,3.29,27.75,3.83,21.42,2.03,48.15,1.3,67.86,8.06,2.35.8,7.87,1.03,9.08,2.91,1.92,3-3.65,3.28-4.31,4.24ZM291.92,41.96c-26.65-3.06-53.35-5.93-80.21-6.79l-3.69,4.78c14.63-2.41,29.57-2.41,44.32-.87,5.16.54,22.22,2.87,25.97,5,1.08.62,2.45,1.46,2.19,2.92-2.83,5.25-7.08,25.23-11.15,27.81-6.21,3.95-45.25-.86-54.85-1.89-3.72-.4-11.68.9-14.48-1.5-4.14-3.54,6.04-25.04,6.99-30.48-8.1,8.12-10.7,20.27-13.95,30.93,15.17,2.16,32.33,6.94,47.44,8.02,11.06.79,22.47-1,33.51.58,3.11-14.02,11.95-25.61,17.92-38.53ZM272.86,47.03c-8.78-1.61-18.55-4.41-27.41-5.06-5.08-.38-27.13-.91-30.76.18-4.71,1.41-8.19,21.77-8.69,26.78l58.27,3.04c1.62-.39,9.42-23.72,8.58-24.94ZM289.92,63.94c-3.95-2.02-7.44,9.42-6.98,9.99,6.28-1.44,4.56-4.95,6.98-9.99Z"/>
      <path d="M125.78,106.68c.19-.22-.77-3.56,2.6-3.56,12.63,2.34,24.85,7.13,37.44,9.5,16.72,3.15,41.06,3.15,56.4,8.53,8.76,3.07,2.63,6.93.56,11.01-8.95,17.57-17.06,35.52-27.7,52.22-4.58,4.54-13.43,2.03-19.05.95-16.58-3.19-32.78-9.48-48.93-14.01-5.19-1.46-31.67-6.44-33.49-9.46-2.31-3.82,3.34-12.89,5.34-16.68,7.33-13.89,16.79-26.95,26.83-38.51ZM219.99,124.88c-30.87-6.73-62.82-7.57-92.88-18-.15,1.72-1,3.22-1.84,4.68-7.4,13-19.53,28.47-25.05,41.88-.8,1.94-1.42,3.64-1.17,5.81.45,1.64,29.05,6.97,33.06,8.06,4.57,1.24,9.17,3.74,13.97,5.01,7.69,2.04,37.82,10.97,43.26,9.3,3.27-3.39,6.4-8.84,8.85-13.12,8.06-14.06,14.83-29.01,21.8-43.62Z"/>
      <path d="M292.91,355.68c-.41,1.69-5.2,2.09-6.5,2.07-4.12-.05-8.17-1.79-12.48-1.09,1.44-3.68,5.04-1.06,7.5-.99,3.82.1,7.66-.07,11.47.01Z"/>
      <path d="M725.18,224.97c8.04-2.39,12.69,7.38,6.26,10.28-8.53,3.84-12.16-8.52-6.26-10.28ZM731.21,228.04c-2.88-2.79-8.74-1.24-6.25,3.75,2.42,4.85,10.27.13,6.25-3.75Z"/>
      <path d="M772.16,182c5.71-1.2,11.06,3.82,6.85,8.91-8.73,5.51-16.39-6.91-6.85-8.91ZM772.15,183.97c-6.24,1.66,1.5,9.71,6.26,4.34.94-3.06-3.72-5.01-6.26-4.34Z"/>
      <path d="M78.88,231.03c5.52,4.84-4.3,15.93-9.81,8.32-4.75-6.57,5.79-11.84,9.81-8.32ZM71.27,238.66c4.5,1.2,8.96-2.03,5.91-6.44-5-.94-8.33,1.5-5.91,6.44Z"/>
      <path d="M22.34,196.67c-2.04-7.52,5.65-11.54,11.35-6.87,2.83,8.75-4.88,9.49-11.35,6.87ZM32.04,190.96c-3.61-1.99-7.83-1.49-7.83,3.32,1.81,2.64,5.01,1.44,7.39.64l.44-3.96Z"/>
      <path d="M324.89,236.78l2.08,1.59-1.08,4.39c2.15.32,4.14-.97,6.26-.77,5.06.46,9.4,6.87,4.21,6.82-1.94-.02-2.8-2.89-4.93-3-3.79-.19-19.31,7.49-10.54-5.02-1.19-.89-13.85,3.82-13.97-.51-.04-1.38,4.73-2.95,4.97-4.49-6.03-1.3-13.78,8.64-15.57-.09l-9.42.6,1.01-5.51c-.38-.48-8.38,7.38-10.97,4.5,2.53-1.97,14.32-13.83,16.98-10.49l-.99,3.99c.34.42,7.23-5.47,8.96-1.5l-7.46,6.51c5.37.42,13.25-8.11,17.85-7.06.79.18.5,2.24,1.1,2.06,3.05-2.12,8.33-5.32,12.04-5.12,1.9.1,1.36,2.12,2.07,2.18,1.43.12,2.94-1.49,4.39-.58,2.73,1.71-.48,4.86-1.99,6.02-.05,3.08,15.01-.88,9.47,5.5h-14.49Z"/>
      <path d="M352.85,212.8l-.11,3.88c-2.59.21-4.95,1.51-7.42,2.09-.99.23-3.04,1.76-3.45-.49-.53-2.88,8.96-4.93,10.98-5.48Z"/>
      <path d="M367.52,218.94c1.32-.11,1.53.52,2.31,1.37.62,2.68-9,6.24-8.97,2.98,0-.86,5.53-4.25,6.65-4.35Z"/>
      <path d="M357.86,220.79c-1.88-4.36,8.06-7.52,7.97-4.49-.03,1.08-5.97,5.5-7.97,4.49Z"/>
      <path d="M384.82,219.8c1.61,3.38-6.22,8.1-6.98,4.48-.46-2.2,4.89-5.09,6.98-4.48Z"/>
      <path d="M290.91,248.76v-2.97c1.71.73,6.39-3.42,7-.5.34,1.64-.65,3.05-1.95,3.95l-5.05-.48Z"/>
      <path d="M733.19,435.75c7.85-1.24,9.78,12.32.6,12.58-6.8.19-8.97-11.26-.6-12.58ZM736.31,445.44c1.51-.93,2.74-7.77-3.3-6.86-6.7,1.01-2.64,10.49,3.3,6.86Z"/>
      <path d="M785.41,384.65c-.18,1.94-3.47,1.25-4.5,2.97-5.56,9.25,12.83,10.01,5.51-1.97,5.97.1,4.58,9.47.31,10.78-11.3,3.46-11.36-13.61-1.31-11.78Z"/>
      <path d="M88.12,449.58l-13.17-24.28c-11.2-16.59-24.17-26.86-41.74-36.18l-14-6.46c9.31,1.39,19.89,7.43,27.89,12.56,19.37,12.42,34.45,32.27,41.03,54.37Z"/>
      <path d="M74.88,439.75c8.24-1.47,10.73,12.02,1.61,12.53-7.7.43-8.94-11.22-1.61-12.53ZM73.79,442.71c-3.16,1.05-1.85,6.33,1.9,6.89,7.6,1.13,4.78-9.11-1.9-6.89Z"/>
      <path d="M20.46,401.37c-1.86-1.97-2.41-9.27,1.74-8.73-4.08,13.94,15.52,8.14,2-2,13.61.19,4.74,19.69-3.74,10.73Z"/>
      <path d="M714.19,35.17c4.68-1.42,13.17.66,10.82,6.8-2.42,3.96-12.71,1.48-13.54-3.52,0-1.43,1.39-2.88,2.73-3.29ZM715.12,37.1c-.71.22-1.13.85-1.61,1.36,1.17,2.53,9.27,5.19,9.96,1.98-.46-3.71-5.49-4.23-8.35-3.34Z"/>
      <path d="M657.29,9.17c8.81-1.78,13.36,10.51,1.82,8.75-5.51-.84-8.15-7.48-1.82-8.75ZM664.53,14.96c-.53-3-8.26-5.83-8.98-2.47s6.89,4.12,8.98,2.47Z"/>
      <path d="M94.9,48.74c-1.21,2.13-8.8,2.82-11.13,2.05-8.16-10.34,16.53-11.57,11.13-2.05ZM93.07,45.02c-3.29-1.57-9.62-1.1-8.93,3.92l8.4-.9.53-3.01Z"/>
      <path d="M152.81,17.23l.79,3.71c-2.8,3.73-8.57,6.17-12.05,2.04-2.91-5.54,7.94-8.94,11.25-5.75ZM143.07,19.99c1.37,8.09,13.99-2.62,5.55-1.99-1.89.14-3.57,1.93-5.55,1.99Z"/>
      <path d="M713.74,287.48c-4.48-4.42,5.08-12.12,8.25-5.75,2.99,6-4.68,9.27-8.25,5.75Z"/>
      <path d="M716.48,277.75c.25,1.71-2.37,1.07-3.47.98-1.99-.16-3.85-.95-5.97-1.03-11.3-.44-22.28,2.14-33.52.54,14.17-2.05,28.8-3.15,42.96-.49Z"/>
      <path d="M668.78,281.98c4.26-4.22,11.87,2.62,7.26,6.76-4.87,4.38-11.29-2.78-7.26-6.76ZM674.44,282.82c-4.05-2.95-7.14,5.09-2.28,5.84,2.83.44,4.01-4.58,2.28-5.84Z"/>
      <path d="M85.13,282.73l10.45-2.04c6.83.76,30.62-2.03,34.58,3.46,6.82,9.45-14.75,12.38-6.07-1.42h-38.96Z"/>
      <path d="M79.84,284.93c7.85-2.37,9.44,6.89,3.57,8.61-6.92,2.04-8.43-7.15-3.57-8.61Z"/>
      <path d="M704.5,351.68l-8.89-.11c-1.1-2.43-.5-6.88-1.61-8.87-.76-1.35-4.57-2.12-5.32-4.73-2.49-8.66,14.59-14.79,17.37-6.33,2.12,6.47-3.31,13.05-1.55,20.05ZM700.49,348.68c-1.07-4.67,3.66-10.36,3.05-14.46-.94-6.29-13.72-2.95-11.05,4.47l3.9.09c.49.39,1.51,13.14,4.09,9.9Z"/>
      <path d="M108.11,353.68l-8.5-1.98c.15-6-5.65-14.46-2.99-20.01,1.97-4.11,10.36-4.16,13.88-1.89,6.59,4.25-4.19,17.6-2.39,23.88ZM101.78,331.86c-5.4,1.88-.52,8.02.12,10.54.71,2.81-.9,6.25,1.72,8.25,2.99-5.18,11.16-23.32-1.84-18.8Z"/>
      <path class="cls-1" d="M569.63,89.89c-14.69,8.09-28.01,18.63-42.65,26.79-3.01,1.68-9.63,6.06-12.63,5.9-2.36-.13-17.24-7.52-20.66-9.17-15.16-7.34-29.94-15.84-44.92-23.52-.74-1.09,8.4-5.23,9.64-5.83,17.39-8.5,35.26-16.09,52.87-24.12,15.52,5.43,28.85,15.36,43.7,22.15,1.9.87,16.69,4.91,14.66,7.79ZM508.7,70.93c-2.09-2.08-12.2,2.25-14.97,3.51-2.09.95-7.98,2.81-7,5.97,1.55,5.02,17.49-2.24,20.82-2.94,3.07-.65,9.23,2.03,10.13-4.53l-9.98.98,1-2.98ZM530.67,81.93c-2.27-2.76-20.88,3.92-20.96,5.48,1.95,3.16,4.54.44,6.4.48.62.01.5,2.5,3.17,2.7,2.24.16,10.58-2.36,11.4-1.68.27.23-2.33,5.85,3.4,3.9,1.78-.6,1.98-3.81,1.64-5.26-.37-1.55-5.52-1.75-7.04-1.65l1.99-3.98ZM503.55,97.69c.34-.56-.67-1.91-.3-2.81.79-1.9,8.47-6.64,1.46-8.56-3.59-.98-9.6,2.55-13.54,2.63-2.36.05-8.58-2.62-9.44,1.47-1.19,5.67,17.42.21,19.97-.5l-6.99,8.47c1.32,3.01,7.91.82,8.84-.7ZM516.69,106.89c3.04,1.38,19.93-2.04,18.97-6.47-.86-3.97-14.15,2.12-16.52,3.44-1.39.77-2.88.85-2.45,3.04Z"/>
      <path class="cls-1" d="M441.76,75.93c-.08,1.4-3.89,2.34-4.93,2.54-3.6.69-7.68-.31-10.55,2.43l-.43-2.27-4.05-.73,19.97-1.98Z"/>
      <path class="cls-1" d="M464.74,77.91l-8.99,3,3.58-6.05c2.45-.13,5.66-.21,5.4,3.05Z"/>
      <path class="cls-1" d="M668.53,167.34c-.28-.8-2.58-1.22-2.87-1.7-.53-.88,1.78-2.24-.77-3.62-1.91-1.04-17.29-4.28-19.78-4.2-3.35.11-10.86,1.75-14.59,2.47-19.43,3.77-38.85,11.15-58.94,12.99l-1.51,7.54,21.23,25.8,50.25-8.8-6.96,5.51c-7.77,4.25-22.65,3.13-29.23,5.74-2.67,1.06-5.31,4.84-8.46,5.52-1.17.25-9.02.92-9.83.8-5.79-.84-27.48-38.21-33.43-44.04-.28-2.24.34-1.2,1.51-1.49,3.26-.82,6.56-.65,9.9-2.11,2.7-1.18,4.46-4.02,6.33-4.66,12.67-4.38,23.99-3.2,36.71-4.24,8.88-.73,10.21-5.01,15.06-5.92,12.64-2.38,26.02.9,38.35-3.04,1.05,7.19,8.08,7.38,14.05,7.98l-6.02,33.96h-2.97c-.3-.22,2-3.84,2-4.49,0-3.82.78-17.74,0-19.98Z"/>
      <path class="cls-1" d="M662.54,187.83l-57.95,11.97c3.98-4.5,8.7-8.26,13.01-12.45,1.96-1.91,3.21-4.46,5.44-6.55,2.96-2.77,14.35-9.93,15.36-12.62.25-.66.6-2.28-.35-2.35-11.91-1.85-19.34,11.49-29.46,15.98l13.98-12.49-1.99-1.98c5.52-2.53,17.26-5.9,23.2-5.27,2.21.23,17.7,3.82,18.3,4.73l.47,21.02Z"/>
      <path class="cls-1" d="M598.6,178.84c-3.87,4.09-6.74,7.39-5.97,13.46.23,1.83,1.88,2.64,2.7,4.3,2.39,4.83.43,6.17-3.15,2.14l-12.56-17.9c3.85-.83,7.9,1.37,11.49,1.08,3.25-.26,4.43-3.04,7.49-3.07Z"/>
      <path class="cls-1" d="M658.32,193.06c.27.14.32,1.44.92,1.75,1.8.94,4.57.72,5.3,2.99l-17.98-1,7.95-3.54c1.3-.27,2.47-.9,3.81-.21Z"/>
      <path class="cls-1" d="M291.92,41.96c-5.98,12.92-14.82,24.5-17.92,38.53-11.04-1.58-22.45.21-33.51-.58-15.11-1.08-32.27-5.86-47.44-8.02,3.25-10.66,5.85-22.81,13.95-30.93-.95,5.44-11.13,26.94-6.99,30.48,2.8,2.39,10.76,1.1,14.48,1.5,9.6,1.03,48.64,5.84,54.85,1.89,4.06-2.58,8.31-22.57,11.15-27.81.26-1.46-1.1-2.31-2.19-2.92-3.75-2.13-20.81-4.46-25.97-5-14.75-1.54-29.68-1.54-44.32.87l3.69-4.78c26.87.86,53.56,3.74,80.21,6.79Z"/>
      <path class="cls-1" d="M289.92,63.94c-2.41,5.03-.7,8.54-6.98,9.99-.46-.57,3.03-12,6.98-9.99Z"/>
      <path class="cls-1" d="M219.99,124.88c-6.97,14.61-13.74,29.57-21.8,43.62-2.46,4.28-5.58,9.74-8.85,13.12-5.44,1.67-35.57-7.26-43.26-9.3-4.8-1.27-9.4-3.77-13.97-5.01-4.01-1.09-32.61-6.42-33.06-8.06-.25-2.17.37-3.86,1.17-5.81,5.52-13.41,17.65-28.88,25.05-41.88.83-1.46,1.68-2.96,1.84-4.68,30.06,10.42,62.02,11.26,92.88,18ZM140.82,118.07c-1.7.27-9.35,3.55-11.52,4.51-1.35.6-3.36.64-3.2,2.78.64,3.07,11.48-.82,13.35-1.62,5.09-2.18,8.74-6.86,1.38-5.67ZM144.05,152.94c-2.11,4.34,3.57,6.16,7.25,5.73,3.79-.44,22.85-11.12,24.76-14.28,9.14-15.12-14.47-23.03-26.05-21.06-5.17.88-17.18,6.89-19.16,11.8-2.31,5.69.01,8.88,2.23,13.73h-4c-2.77,2.78,9.93,15.34,12.04,7.5l-4.04-5.48,6.97,2.07ZM185.93,129.95c-.91-.66-6.79,1.34-6.87,2.42l6.41,12.18,5.55-2.22-5.09-12.38ZM179.03,156.84c-1.52-7.99-15.78.71-21.39.91l-.59,4.1,21.98-5Z"/>
      <path class="cls-1" d="M731.21,228.04c4.02,3.88-3.83,8.6-6.25,3.75-2.48-4.99,3.37-6.54,6.25-3.75Z"/>
      <path class="cls-1" d="M772.15,183.97c2.54-.68,7.2,1.28,6.26,4.34-4.76,5.37-12.5-2.68-6.26-4.34Z"/>
      <path class="cls-1" d="M71.27,238.66c-2.42-4.94.91-7.39,5.91-6.44,3.06,4.41-1.4,7.65-5.91,6.44Z"/>
      <path class="cls-1" d="M32.04,190.96l-.44,3.96c-2.38.8-5.58,1.99-7.39-.64,0-4.8,4.22-5.31,7.83-3.32Z"/>
      <path class="cls-1" d="M736.31,445.44c-5.94,3.63-10-5.85-3.3-6.86,6.03-.91,4.81,5.94,3.3,6.86Z"/>
      <path class="cls-1" d="M73.79,442.71c6.68-2.22,9.51,8.02,1.9,6.89-3.75-.56-5.06-5.84-1.9-6.89Z"/>
      <path class="cls-1" d="M715.12,37.1c2.86-.89,7.89-.37,8.35,3.34-.69,3.2-8.8.55-9.96-1.98.49-.5.9-1.14,1.61-1.36Z"/>
      <path class="cls-1" d="M664.53,14.96c-2.09,1.64-9.69.8-8.98-2.47s8.45-.53,8.98,2.47Z"/>
      <path class="cls-1" d="M93.07,45.02l-.53,3.01-8.4.9c-.69-5.02,5.64-5.49,8.93-3.92Z"/>
      <path class="cls-1" d="M143.07,19.99c1.98-.06,3.66-1.85,5.55-1.99,8.44-.63-4.18,10.09-5.55,1.99Z"/>
      <path class="cls-1" d="M674.44,282.82c1.73,1.26.55,6.27-2.28,5.84-4.86-.75-1.77-8.79,2.28-5.84Z"/>
      <path class="cls-1" d="M700.49,348.68c-2.59,3.24-3.61-9.51-4.09-9.9l-3.9-.09c-2.68-7.42,10.11-10.75,11.05-4.47.61,4.1-4.12,9.79-3.05,14.46Z"/>
      <path class="cls-1" d="M101.78,331.86c13-4.52,4.82,13.61,1.84,18.8-2.61-2.01-1-5.44-1.72-8.25-.64-2.52-5.52-8.66-.12-10.54Z"/>
      <path d="M508.7,70.93l-1,2.98,9.98-.98c-.9,6.56-7.06,3.88-10.13,4.53-3.33.71-19.28,7.97-20.82,2.94-.97-3.15,4.91-5.01,7-5.97,2.78-1.26,12.88-5.59,14.97-3.51Z"/>
      <path d="M503.55,97.69c-.93,1.52-7.52,3.71-8.84.7l6.99-8.47c-2.55.71-21.16,6.17-19.97.5.86-4.09,7.08-1.42,9.44-1.47,3.95-.08,9.95-3.62,13.54-2.63,7.01,1.92-.67,6.66-1.46,8.56-.37.89.64,2.25.3,2.81Z"/>
      <path d="M530.67,81.93l-1.99,3.98c1.52-.09,6.67.1,7.04,1.65.34,1.45.13,4.66-1.64,5.26-5.74,1.94-3.13-3.67-3.4-3.9-.81-.69-9.16,1.84-11.4,1.68-2.67-.2-2.54-2.69-3.17-2.7-1.86-.04-4.45,2.68-6.4-.48.07-1.56,18.69-8.24,20.96-5.48Z"/>
      <path d="M516.69,106.89c-.44-2.19,1.06-2.27,2.45-3.04,2.37-1.32,15.66-7.41,16.52-3.44.96,4.43-15.93,7.86-18.97,6.47Z"/>
      <path class="cls-1" d="M272.86,47.03c.83,1.21-6.97,24.54-8.58,24.94l-58.27-3.04c.5-5.01,3.97-25.37,8.69-26.78,3.63-1.09,25.68-.56,30.76-.18,8.85.66,18.63,3.45,27.41,5.06ZM224.7,46.16c-5.8,1.32-9.12,11.52-14.2,14.77l-.49,2.47c.61,1.03,1.36,1.33,2.49,1.53,6.13,1.07,14.08.19,19.91,1.06,3.11.47,6.87,3.16,10.29,3.69,14.5,2.23,14.27-7.8,21.28-17.27.05-5.17-13.89-3.08-17.5-3.48-6.09-.68-16.29-4.02-21.79-2.77Z"/>
      <path d="M144.05,152.94l-6.97-2.07,4.04,5.48c-2.11,7.84-14.81-4.72-12.04-7.49h4c-2.22-4.85-4.54-8.04-2.23-13.74,1.99-4.9,14-10.92,19.16-11.8,11.58-1.97,35.19,5.94,26.05,21.06-1.91,3.16-20.97,13.84-24.76,14.28-3.68.43-9.36-1.39-7.25-5.73ZM147.07,148.85c3.02-.25,6.5.44,9.44-.04,2.49-.41,3.4-2.01,5.3-2.69,3.93-1.41,6.95.33,9.31-5.7,2.29-5.85-1.74-8.4-7.07-9.53,4.34,5.93-2.78,11.86-7.29,15.18l-9.68,2.79ZM156.05,132.88c-4.82-1.56-15.55,8.69-7.99,9.97l.5-3.98,7.49-5.99Z"/>
      <path d="M179.03,156.84l-21.98,5,.59-4.1c5.62-.19,19.87-8.89,21.39-.91Z"/>
      <path d="M185.93,129.95l5.09,12.38-5.55,2.22-6.41-12.18c.08-1.08,5.96-3.08,6.87-2.42Z"/>
      <path d="M140.82,118.07c7.36-1.19,3.71,3.49-1.38,5.67-1.87.8-12.7,4.69-13.35,1.62-.16-2.14,1.85-2.18,3.2-2.78,2.17-.96,9.83-4.24,11.52-4.51Z"/>
      <path d="M224.7,46.16c5.5-1.25,15.69,2.09,21.79,2.77,3.61.4,17.55-1.69,17.5,3.48-7,9.47-6.78,19.49-21.28,17.27-3.42-.52-7.18-3.22-10.29-3.69-5.84-.88-13.78,0-19.91-1.06-1.14-.2-1.89-.49-2.49-1.53l.49-2.47c5.08-3.25,8.4-13.45,14.2-14.77ZM240.97,56.95c-6.75.88-13.15,3.45-19.97,2.48,2.88,2.76,7.79,1.22,11.4,1.42l8.57-3.9Z"/>
      <path class="cls-1" d="M147.07,148.85l9.68-2.79c4.51-3.32,11.63-9.25,7.29-15.18,5.33,1.14,9.37,3.69,7.07,9.53-2.37,6.03-5.38,4.29-9.31,5.7-1.9.68-2.81,2.28-5.3,2.69-2.93.48-6.41-.21-9.44.04Z"/>
      <path class="cls-1" d="M156.05,132.88l-7.49,5.99-.5,3.98c-7.56-1.28,3.17-11.53,7.99-9.97Z"/>
      <path class="cls-1" d="M240.97,56.95l-8.57,3.9c-3.61-.2-8.52,1.35-11.4-1.42,6.82.97,13.22-1.61,19.97-2.48Z"/>
    </g>
  </g>
</svg>